<?xml version="1.0" encoding="utf-8"?>
<!-- Generator: Adobe Illustrator 25.0.0, SVG Export Plug-In . SVG Version: 6.00 Build 0)  -->
<svg version="1.1" id="Camada_1" xmlns="http://www.w3.org/2000/svg" xmlns:xlink="http://www.w3.org/1999/xlink" x="0px" y="0px"
	 viewBox="0 0 722.1 558.2" style="enable-background:new 0 0 722.1 558.2;" xml:space="preserve">
<style type="text/css">
	.st0{fill:#C4C4C4;}
	.st1{fill:#FFB6B6;}
	.st2{fill:#025EAD;}
	.st3{fill:#424242;}
	.st4{fill:#E6E6E6;}
	.st5{fill:#FF0ED1;}
	.st6{fill:#FFFFFF;}
	.st7{fill:#969696;}
	.st8{fill:#2F2E41;}
	.st9{fill:#FFB8B8;}
	.st10{fill:#FF6584;}
	.st11{fill:#CCCCCC;}
</style>
<path class="st0" d="M653.6,534H68.5C30.7,534,0,503.3,0,465.5c0-4.9,0.5-9.9,1.6-14.7L27.8,332h666.6l26.1,118.8
	c8.1,36.9-15.2,73.5-52.2,81.6C663.5,533.5,658.5,534,653.6,534z M29.4,334L3.6,451.2c-7.9,35.9,14.8,71.3,50.7,79.2
	c4.7,1,9.5,1.6,14.3,1.6h585.1c36.7,0,66.5-29.8,66.5-66.5c0-4.8-0.5-9.6-1.6-14.3L692.8,334H29.4z"/>
<path class="st1" d="M579.3,78.4l30.7-4.6l-4.8-21.3l-18.4,9.3l-38-14.3c-1.5-4-6-5.9-10-4.4c-4,1.5-5.9,6-4.4,10
	c1.4,3.7,5.5,5.7,9.3,4.6L579.3,78.4z"/>
<path class="st2" d="M641.7,62.4c-2.4,9-57,19.1-57,17.2c0.1-5.5,3.6-17.1,1.6-20.1c-1.1-1.7,14.3-6.1,14.3-6.1s8.5-3.3,19.6-7.3
	c6.3-2.4,13.4-1.4,18.9,2.6C639,48.7,644.1,53.4,641.7,62.4z"/>
<path class="st3" d="M112.8,437h-19c-8.8,0-16,7.2-16,16s7.2,16,16,16h19c8.8,0,16-7.2,16-16S121.6,437,112.8,437z"/>
<path class="st4" d="M173.8,437h-19c-8.8,0-16,7.2-16,16s7.2,16,16,16h19c8.8,0,16-7.2,16-16S182.6,437,173.8,437z"/>
<path class="st3" d="M234.8,437h-19c-8.8,0-16,7.2-16,16s7.2,16,16,16h19c8.8,0,16-7.2,16-16S243.6,437,234.8,437z"/>
<path class="st3" d="M295.8,437h-19c-8.8,0-16,7.2-16,16s7.2,16,16,16h19c8.8,0,16-7.2,16-16S304.6,437,295.8,437z"/>
<path class="st3" d="M356.8,437h-19c-8.8,0-16,7.2-16,16s7.2,16,16,16h19c8.8,0,16-7.2,16-16S365.6,437,356.8,437z"/>
<path class="st3" d="M417.8,437h-19c-8.8,0-16,7.2-16,16s7.2,16,16,16h19c8.8,0,16-7.2,16-16S426.6,437,417.8,437z"/>
<path class="st3" d="M478.8,437h-19c-8.8,0-16,7.2-16,16s7.2,16,16,16h19c8.8,0,16-7.2,16-16S487.6,437,478.8,437z"/>
<path class="st3" d="M539.8,437h-19c-8.8,0-16,7.2-16,16s7.2,16,16,16h19c8.8,0,16-7.2,16-16S548.6,437,539.8,437z"/>
<path class="st3" d="M600.8,437h-19c-8.8,0-16,7.2-16,16s7.2,16,16,16h19c8.8,0,16-7.2,16-16S609.6,437,600.8,437z"/>
<path class="st3" d="M112.8,370h-19c-8.8,0-16,7.2-16,16s7.2,16,16,16h19c8.8,0,16-7.2,16-16S121.6,370,112.8,370z"/>
<path class="st4" d="M173.8,370h-19c-8.8,0-16,7.2-16,16s7.2,16,16,16h19c8.8,0,16-7.2,16-16S182.6,370,173.8,370z"/>
<path class="st5" d="M234.8,370h-19c-8.8,0-16,7.2-16,16s7.2,16,16,16h19c8.8,0,16-7.2,16-16S243.6,370,234.8,370z"/>
<path class="st3" d="M295.8,370h-19c-8.8,0-16,7.2-16,16s7.2,16,16,16h19c8.8,0,16-7.2,16-16S304.6,370,295.8,370z"/>
<path class="st3" d="M356.8,370h-19c-8.8,0-16,7.2-16,16s7.2,16,16,16h19c8.8,0,16-7.2,16-16S365.6,370,356.8,370z"/>
<path class="st3" d="M417.8,370h-19c-8.8,0-16,7.2-16,16s7.2,16,16,16h19c8.8,0,16-7.2,16-16S426.6,370,417.8,370z"/>
<path class="st3" d="M478.8,370h-19c-8.8,0-16,7.2-16,16s7.2,16,16,16h19c8.8,0,16-7.2,16-16S487.6,370,478.8,370z"/>
<path class="st3" d="M539.8,370h-19c-8.8,0-16,7.2-16,16s7.2,16,16,16h19c8.8,0,16-7.2,16-16S548.6,370,539.8,370z"/>
<path class="st3" d="M600.8,370h-19c-8.8,0-16,7.2-16,16s7.2,16,16,16h19c8.8,0,16-7.2,16-16S609.6,370,600.8,370z"/>
<path class="st3" d="M141.3,404.5h-19c-8.8,0-16,7.2-16,16s7.2,16,16,16h19c8.8,0,16-7.2,16-16S150.1,404.5,141.3,404.5z"/>
<path class="st3" d="M202.3,404.5h-19c-8.8,0-16,7.2-16,16s7.2,16,16,16h19c8.8,0,16-7.2,16-16S211.1,404.5,202.3,404.5z"/>
<path class="st3" d="M263.3,404.5h-19c-8.8,0-16,7.2-16,16s7.2,16,16,16h19c8.8,0,16-7.2,16-16S272.1,404.5,263.3,404.5z"/>
<path class="st3" d="M324.3,404.5h-19c-8.8,0-16,7.2-16,16s7.2,16,16,16h19c8.8,0,16-7.2,16-16S333.1,404.5,324.3,404.5z"/>
<path class="st3" d="M385.3,404.5h-19c-8.8,0-16,7.2-16,16s7.2,16,16,16h19c8.8,0,16-7.2,16-16S394.1,404.5,385.3,404.5z"/>
<path class="st3" d="M446.3,404.5h-19c-8.8,0-16,7.2-16,16s7.2,16,16,16h19c8.8,0,16-7.2,16-16S455.1,404.5,446.3,404.5z"/>
<path class="st3" d="M507.3,404.5h-19c-8.8,0-16,7.2-16,16s7.2,16,16,16h19c8.8,0,16-7.2,16-16S516.1,404.5,507.3,404.5z"/>
<path class="st3" d="M568.3,404.5h-19c-8.8,0-16,7.2-16,16s7.2,16,16,16h19c8.8,0,16-7.2,16-16S577.1,404.5,568.3,404.5z"/>
<path class="st3" d="M629.3,404.5h-19c-8.8,0-16,7.2-16,16s7.2,16,16,16h19c8.8,0,16-7.2,16-16S638.1,404.5,629.3,404.5z"/>
<path class="st6" d="M558.9,333H164.1c-13,0-23.6-10.6-23.6-23.6l0-0.2c14-60.4,14-136.2,0-238.4l0-0.1c0-13,10.6-23.6,23.6-23.6
	h394.8c13,0,23.6,10.6,23.6,23.6l0,0.2c-16.9,78.6-16.9,159.8,0,238.3l0,0.2C582.5,322.4,571.9,333,558.9,333z"/>
<path class="st0" d="M558.9,333H164.1c-13,0-23.6-10.6-23.6-23.6l0-0.2c14-60.4,14-136.2,0-238.4l0-0.1c0-13,10.6-23.6,23.6-23.6
	h394.8c13,0,23.6,10.6,23.6,23.6l0,0.2c-16.9,78.6-16.9,159.8,0,238.3l0,0.2C582.5,322.4,571.9,333,558.9,333z M142.5,309.5
	c0.1,11.9,9.7,21.5,21.6,21.5h394.8c11.9,0,21.5-9.6,21.6-21.5c-16.9-78.8-16.9-160.2,0-239c-0.1-11.9-9.7-21.5-21.6-21.5H164.1
	c-11.9,0-21.6,9.6-21.6,21.6C156.5,172.9,156.5,248.9,142.5,309.5z"/>
<path class="st0" d="M517.5,117.5h-319c-3.6,0-6.5-2.9-6.5-6.5s2.9-6.5,6.5-6.5h319c3.6,0,6.5,2.9,6.5,6.5S521.1,117.5,517.5,117.5z
	"/>
<path class="st0" d="M517.5,149h-319c-3.6,0-6.5-2.9-6.5-6.5s2.9-6.5,6.5-6.5h319c3.6,0,6.5,2.9,6.5,6.5S521.1,149,517.5,149z"/>
<path class="st0" d="M517.5,180.5h-319c-3.6,0-6.5-2.9-6.5-6.5s2.9-6.5,6.5-6.5h319c3.6,0,6.5,2.9,6.5,6.5S521.1,180.5,517.5,180.5z
	"/>
<path class="st0" d="M517.5,212h-319c-3.6,0-6.5-2.9-6.5-6.5s2.9-6.5,6.5-6.5h319c3.6,0,6.5,2.9,6.5,6.5S521.1,212,517.5,212z"/>
<path class="st0" d="M517.5,243.5h-319c-3.6,0-6.5-2.9-6.5-6.5s2.9-6.5,6.5-6.5h319c3.6,0,6.5,2.9,6.5,6.5S521.1,243.5,517.5,243.5z
	"/>
<path class="st5" d="M341.5,275h-143c-3.6,0-6.5-2.9-6.5-6.5s2.9-6.5,6.5-6.5h143c3.6,0,6.5,2.9,6.5,6.5S345.1,275,341.5,275z"/>
<path class="st7" d="M360.2,324.5h-21.7c-0.7,0-1.3-0.4-1.7-1c-0.5-0.7-0.7-1.7-0.5-2.7l10.2-56c0.2-1.5,1.3-2.5,2.5-2.2
	c0.9,0.2,1.7,1,1.8,2.2l11.5,56c0.2,0.9,0,1.9-0.5,2.7C361.5,324.1,360.9,324.5,360.2,324.5z"/>
<path class="st3" d="M690.5,345.5h-658c-7.5,0-13.5-6-13.5-13.5s6-13.5,13.5-13.5h658c7.5,0,13.5,6,13.5,13.5S698,345.5,690.5,345.5
	z"/>
<polygon class="st1" points="607.2,311.7 597.6,311.7 593,274.7 607.2,274.7 "/>
<path class="st8" d="M609.6,321l-31,0v-0.4c0-6.7,5.4-12,12.1-12.1h0l5.7-4.3l10.6,4.3l2.7,0L609.6,321z"/>
<polygon class="st1" points="694,299.2 685.4,303.5 664.7,272.4 677.4,266.1 "/>
<path class="st8" d="M700.3,306.4l-27.7,13.8l-0.2-0.4c-3-6-0.5-13.2,5.4-16.2l0,0l3.1-6.4l11.4-0.9l2.4-1.2L700.3,306.4z"/>
<path class="st8" d="M602.9,143.5l52.9,1.9l4,7.4c0,0,4.1,30.1,2,32.2c-2.1,2.1-3.2,2.1-2.1,5.8s3.8,39.2,3.8,39.2
	s21.9,45.4,22.9,48c1.1,2.7,2.1,1.6,1.1,2.7c-0.9,1-1.8,2.1-2.7,3.2h-17.3c0,0-9.3-23.5-17.8-32.6c-7.5-8-12.3-18.2-13.6-29.2
	l-7.2-34l-15.4,52c0,0-2.7,51.5-2.1,54.1l0.5,2.7l-20.4,0.2c0,0-2.1-4.5-1.1-6.1c1.1-1.6,1-1.2-0.3-3.8s-0.8-7-0.8-7
	s7.7-104.4,7.7-106c0-0.8-0.1-1.6-0.4-2.4v-2.2l2-7.7L602.9,143.5z"/>
<path class="st2" d="M625.8,47.4c-3.4,2-5.5,5.8-6.7,9.6c-2.2,7.1-3.5,14.4-3.9,21.8l-1.2,22.2c-0.6,14.3-4.6,28.3-11.6,40.8
	c-1.9,3.5-0.6,7.8,2.8,9.7c0.5,0.3,1.1,0.5,1.6,0.6c19.2,5,55.5-1.3,55.5-1.3s1.5-0.5,0-2.1s-5-9.3-5-9.3l4.1-27.1l5.2-54.7
	c-6.2-7.7-18.6-12.3-18.6-12.3l-3.2-5.8l-16.1,1.3L625.8,47.4z"/>
<circle class="st9" cx="636" cy="20.8" r="15.5"/>
<path class="st8" d="M655,19.9c-0.7,3.1-1.9,6.1-3.7,8.8c-0.5,0.9-1.2,1.7-2,2.3c-0.9,0.6-2.1,0.4-2.8-0.3l-0.4-0.3
	c0.7-0.5,1.4-1,1.9-1.7c0.6-0.7,0.8-1.6,0.5-2.4c-0.3-0.9-1.2-1.3-2-1.1c-0.9,0.4-1.5,1.7-2.4,1.5c-0.8-0.2-0.9-1.2-0.9-2
	c0-4.1-2-10-3.5-9.9c-1.6,0.1-3.1-0.1-4.6-0.6c-1.5-0.5-3.1-0.7-4.6-0.6c-0.1,0-0.2,0-0.3,0.1c-0.3-0.8-0.6-1.5-1-2.2
	c0,0.9,0,1.7-0.1,2.5c-1.2,0.5-2.5,0.9-3.9,1.2c-1.4,0.2-4.6,4.5-4.7,4.1c-0.3-0.8-0.6-1.5-1-2.2c0,0.9,0,1.7-0.1,2.5
	c0,0,0,0.1,0,0.1c-0.7-0.9-1.1-2.1-0.9-1.2c-2.3-5.3-1.4-9.1,2.2-13.5c0.7-1,1.7-1.7,2.8-2.2c1.1-0.5,2.4-0.4,3.4,0.3
	c3-2.8,7.4-3.7,11.3-2.4c3.8,1.3,6.8,2.1,7.4,6.1c3.3-0.4,6.4,1.2,8.2,4C655.2,13.5,655.7,16.8,655,19.9z"/>
<path class="st1" d="M671.5,120.3l0-31l-21.8,1.6l6.4,19.6l-19.8,35.4c-4.2,0.9-6.8,5.1-5.8,9.2c0.9,4.2,5.1,6.8,9.2,5.8
	c3.9-0.9,6.5-4.6,6-8.6L671.5,120.3z"/>
<path class="st2" d="M665,56.3c8.5,3.7,10.5,59.3,8.6,58.9c-5.5-0.9-16.4-6.1-19.7-4.6c-1.9,0.9-3.9-15.1-3.9-15.1s-2-8.9-4.3-20.5
	c-1.5-6.6,0.6-13.5,5.4-18.3C651,56.9,656.4,52.6,665,56.3z"/>
<path class="st1" d="M137.3,399.2c-2.1-2-2.3-5.3-0.3-7.4c0.2-0.2,0.4-0.4,0.7-0.6l-5.9-17.7l9.3,2.5l4.1,16.4
	c1.6,2.4,1,5.7-1.5,7.3C141.8,401.1,139.1,400.8,137.3,399.2z"/>
<path class="st2" d="M154.3,303.2c1.6,0.9,10.7-1.3,12.5-0.7c-1,6,4.4,3.8-1.5,11.7s-17.6,31.7-20.2,40.6s0,21.4-0.4,25.6
	c-0.2,2.4-0.2,4.9,0,7.3c-3.2,0-6.3,0.6-9.5,0.2c-3.4-9.7-5.7-23.4-7.3-31s-1.6-4.4-0.9-8.2s0.9-1,0.1-4.7s2.3-8.2,5.1-10.8
	c1.2-3.5,2.8-6.7,4-10.2C145,315.4,145.6,311,154.3,303.2z"/>
<path class="st1" d="M236.4,388c-2.9,0.4-5.5-1.6-5.9-4.4c0-0.3-0.1-0.6,0-0.9l-17.4-6.7l7.9-5.6l15.3,7.2c2.9,0.3,5,2.9,4.7,5.8
	C240.7,385.7,238.8,387.7,236.4,388L236.4,388z"/>
<path class="st2" d="M173.1,313.9c1.7-0.6,5.8-9.1,7.4-10.1c4,4.6,5.7-1,8.1,8.6s13.3,33.7,18.4,41.4s16.5,13.6,19.5,16.6
	c1.8,1.7,3.7,3.2,5.7,4.6c-2,2.4-3.5,5.2-5.9,7.4c-9.6-3.5-21.7-10.5-28.6-14.1s-4.4-1.5-6.9-4.5s-0.2-1.3-3.5-3.1s-4.9-7-5.1-10.8
	c-1.9-3.1-3.4-6.4-5.3-9.5C176.6,328.8,173.6,325.5,173.1,313.9z"/>
<polygon class="st1" points="186.1,366.4 194.8,405.1 139.2,401.6 154.4,363.6 "/>
<polygon class="st1" points="176.9,544.9 183.1,544.9 186.1,520.9 176.9,520.9 "/>
<path class="st8" d="M174.8,541.8l9.9-0.6v4.2l9.4,6.5c1.2,0.8,1.5,2.5,0.7,3.7c-0.5,0.7-1.3,1.1-2.2,1.1h-11.7l-2-4.2l-0.8,4.2
	h-4.4L174.8,541.8z"/>
<polygon class="st1" points="117.9,541.8 124,543.1 132,520.2 123,518.3 "/>
<path class="st8" d="M116.5,538.4l9.8,1.5l-0.9,4.1l7.8,8.3c1,1.1,0.9,2.7-0.1,3.7c-0.6,0.6-1.5,0.8-2.4,0.7l-11.5-2.5l-1.1-4.5
	l-1.7,3.9l-4.3-0.9L116.5,538.4z"/>
<path class="st8" d="M196.2,437.4c-4.4,24.1-5.5,34.5-5.5,34.5s3.3,3.8,1.1,6s0,6.6,0,6.6l-4.9,53.1l-4-0.6l-9.5-1.5l-3.4-0.6
	l2.2-49.8c0,0-2.2-4.4-1.1-5.5c1.1-1.1-1.1-7.7-1.1-7.7l-2.7-52l-17,56.9c0,0,1.6,2.2,0,3.8c-1.6,1.6-4.9,9.8-4.9,9.8l-10.1,35.3
	l-0.9,3l-5.3-1l-5.7-1.1l-1.1-0.2l-1.9-0.4l-1.2-0.2l-0.4-0.1l-2-0.4l0.6-2.7l0.3-1.4l8.5-37.9l0.2-0.9l0.2-0.9c0,0-1.1-2.7,0.5-4.4
	c1-1,1.4-2.4,1.1-3.8c-0.1-0.1-0.1-0.1-0.1-0.2c-0.2-0.3-0.3-0.6-0.4-0.9c-0.2-1,0.3-2.1,1.1-2.8c0.3-0.3,0.6-0.7,0.8-1.1
	c1.7-3.1,2.5-9.8,2.5-9.8s1.5-52.8,6.3-60.9c0.3-0.4,5.4-8.5,5.7-8.7c5.5-3.3,48.1,1.2,48.1,1.2s2.6,6.9,2.7,7.7
	C195.6,402.1,199.9,417,196.2,437.4z"/>
<path class="st2" d="M183.3,310.1c0,0,0.9-4.8-7.9-13.6c-4.7-1.6-12.8-0.7-15.6,0c-13,17.2-10.7,14.2-14.1,23.8
	c-0.9,2.2-1.2,4.5-0.9,6.8c1.6,7.8,4.1,47.9,3.6,50s-4.2,4.7-0.5,4.7s50.7-0.8,49.6-2.4S183.3,310.1,183.3,310.1z"/>
<circle class="st1" cx="168.6" cy="278.5" r="14.9"/>
<path class="st8" d="M155.9,284.2c-0.1,1.8-1.2,3.4-2.1,5c-3.1,5.7-3.2,12.7-0.2,18.5c1.2,2.3,2.9,4.4,3.9,6.8
	c0.9,2.1,0.9,4.5-0.1,6.5c-2.6-2.5-3.9-1.2-6.9-3.4c1.2,3.3,0.2,3.4,1.3,6.7c-5,1.4-10.1,2.9-15.1,4.3c6.4-5.2,8.5-14,5.2-21.5
	c-1.8-4-5.1-7.2-6.3-11.4c-1.9-6.6,1.9-13.4,8.5-15.3c2.8-0.8,5.9-0.6,8.5,0.6C154.4,280.4,156,282.4,155.9,284.2z"/>
<path class="st8" d="M174.7,261.8c-2-4.4-7.3-3.5-12.1-2.9c-4.9,0.7-9,3.8-11.2,8.3c-2,4.4-2.4,9.4-1.1,14.1
	c0.7,3.2,2.4,6.1,4.9,8.2c2.5,2,14.4,6.8,15.4,2.7c-1.2,5.4-4.5,8.5-0.8,12.6c1.9-5.7,10-11.2,11.9-16.9c0.3-0.9-0.9-11-0.6-11.9
	c0.6-1.8,1.2-3.6,1.7-5.5c0.5-2.3,0.8-5-0.7-7s-5.1-2-5.9,0.3"/>
<path class="st10" d="M172.3,280.1l-0.6-4.1c0.4-5.1-0.3-13.1,3-14.2l2,2C175.4,264.3,173,271.8,172.3,280.1z"/>
<path class="st11" d="M317.8,557c0,0.7-0.5,1.2-1.2,1.2c0,0,0,0,0,0H36.3c-0.7,0-1.2-0.5-1.2-1.2s0.5-1.2,1.2-1.2h280.3
	C317.3,555.8,317.8,556.3,317.8,557C317.8,557,317.8,557,317.8,557z"/>
<path class="st3" d="M464.5,483h-206c-8.8,0-16,7.2-16,16s7.2,16,16,16h206c8.8,0,16-7.2,16-16S473.4,483,464.5,483z"/>
</svg>
