<?xml version="1.0" encoding="utf-8"?>
<!-- Generator: Adobe Illustrator 25.0.0, SVG Export Plug-In . SVG Version: 6.00 Build 0)  -->
<svg version="1.1" id="Camada_1" xmlns="http://www.w3.org/2000/svg" xmlns:xlink="http://www.w3.org/1999/xlink" x="0px" y="0px"
	 viewBox="0 0 731.4 522.4" style="enable-background:new 0 0 731.4 522.4;" xml:space="preserve">
<style type="text/css">
	.st0{fill:#FFB8B8;}
	.st1{fill:#2F2E41;}
	.st2{fill:#E6E6E6;}
	.st3{fill:#025EAD;}
	.st4{fill:#424242;}
	.st5{fill:#FF0ED1;}
	.st6{fill:#536DFE;}
	.st7{fill:#8E8E8E;}
</style>
<path class="st0" d="M605.5,330.5c2.4-5,0.3-11-4.7-13.4c-0.5-0.3-1.1-0.5-1.7-0.6l-2.2-35.7L582.1,292l4.4,32.2
	c-1.1,5.5,2.4,10.8,7.8,12C598.9,337.1,603.5,334.8,605.5,330.5L605.5,330.5z"/>
<polygon class="st0" points="670.2,470.7 682,474.1 700.6,430.3 683.2,425.3 "/>
<path class="st1" d="M701.6,491.6l-37-10.6l0,0l4.1-14.3l0,0l22.7,6.5C699.3,475.4,703.8,483.7,701.6,491.6L701.6,491.6L701.6,491.6
	z"/>
<polygon class="st0" points="651.3,511 639.1,511 633.2,463.7 651.3,463.7 "/>
<path class="st1" d="M630.3,507.5h23.6l0,0v14.9l0,0h-38.5l0,0l0,0C615.4,514.2,622.1,507.5,630.3,507.5L630.3,507.5z"/>
<path class="st1" d="M617.4,318.2c0,0-7,28,5,85l9,98l23,1l-3-106l8-44l20,61l-7,43l17,8l19-59c0,0-2-82-10-92L617.4,318.2z"/>
<circle class="st0" cx="646.5" cy="134.2" r="24.6"/>
<path class="st2" d="M633.4,171.5c0,0-1.5,3.3,16.5,1.3s22-8,22-8l31.5,138.2l-2,12.2l-86,5.1v-17.3l15-91.7L633.4,171.5z"/>
<path class="st3" d="M640.8,316.7l-27.3-0.5l-0.1-0.4c-3.5-18.9-3.2-38.4,1-57.2c5.5-24.4-7-57.4-12.6-70.5c-1.4-3.2-0.2-7,2.8-8.8
	l19.3-11.6c4.7-2.8,10.7-1.3,13.5,3.4c0.5,0.8,0.9,1.7,1.1,2.6l3.4,13.2c15.5,16.7,14.5,51,10.8,76.8c-2.6,17.8-6.5,35.4-11.8,52.6
	L640.8,316.7z"/>
<path class="st3" d="M609.9,176.7l-2.4,1.6c-5.3,3.6-9.3,8.9-11.4,15c-1.2,3.6-2.1,7.2-2.7,10.9c-2,12-11,63-11,63l-4,50l22-5l10-58
	l10-36L609.9,176.7z"/>
<path class="st3" d="M688.2,317l-0.2-0.6c-1.4-4-34.8-97.3-19-130.3l-1.5-15.4c-0.6-5.5,3.5-10.4,9-11c1.4-0.1,2.7,0,4,0.4l24.1,7.6
	c2,0.6,3.4,2.5,3.4,4.7c-0.1,8.9-0.6,31.5-3,49.8c-3,22.7,6.9,79.3,7,79.8l0.1,0.3L688.2,317z"/>
<path class="st0" d="M677.5,292.1c0.1-5.6,4.7-10,10.2-9.9c0.6,0,1.2,0.1,1.8,0.2l18.1-30.8l8.2,16.7L697.4,295
	c-1.4,5.4-7,8.6-12.4,7.1C680.5,301,677.4,296.8,677.5,292.1z"/>
<path class="st3" d="M700.9,167.7l1.3,0.3c3.2,0.7,5.9,3.1,7.1,6.2l22.1,60l-26,57l-9.5-23.5l12-26l-21.5-27.5L700.9,167.7z"/>
<path class="st1" d="M671.4,137.6c1.4-3.6,2.5-7.4,3.2-11.3c0.7-3.9,0.2-7.8-1.3-11.5c-1.7-3.2-4-5.9-6.8-8.1
	c-1.9-1.6-4-3.2-6.1-4.6c-5.9-3.9-7.2-0.4-14.4-1.2c-7.1-0.8-15.1-2.9-20.8,1.4c-7.6,5.7-10.9,15.5-8.4,24.7
	c1.6,5.4,0.3,7.2,5.2,10.1c0-4.9,1.9-9.6,5.2-13.1c3.4-3.6,8-5.8,12.9-6.1c3.8-0.3,7.6,0.5,11.3,1.3c3.6,0.8,7.3,1.6,10.4,3.6
	c5.1,3.4,7.4,9.4,9.5,15"/>
<rect y="233" class="st4" width="436" height="2"/>
<rect y="155" class="st4" width="436" height="2"/>
<rect y="77" class="st4" width="436" height="2"/>
<rect x="347.8" class="st4" width="2" height="312"/>
<rect x="260.6" class="st4" width="2" height="312"/>
<rect x="173.4" class="st4" width="2" height="312"/>
<rect x="86.2" class="st4" width="2" height="312"/>
<rect x="87" y="78" class="st5" width="175" height="78"/>
<path class="st6" d="M174.9,150.1"/>
<polygon class="st5" points="87,150 87,234 178,153 "/>
<path class="st5" d="M262,153v3l-1.1,1l-2.3,2c-44.7,1.4-80.9,33.4-82.5,73.1l-2,1.8l0,0v-84L262,153z"/>
<path class="st4" d="M261.5,157c-0.2,0-0.4,0-0.6,0c-47.6,0.3-86.2,34.6-86.8,77c0,0.3,0,0.7,0,1c0,43,39.2,78,87.5,78
	s87.5-35,87.5-78S309.8,157,261.5,157z M261.5,311c-47.1,0-85.5-34.1-85.5-76c0-1,0-1.9,0.1-2.8c1.6-39.7,37.8-71.8,82.5-73.1
	c1,0,1.9,0,2.9,0c47.1,0,85.5,34.1,85.5,76S308.6,311,261.5,311z"/>
<path class="st2" d="M213.5,234l-5,0c0-0.4,0.8-44.5,52-47.5l0.3,5C214.4,194.2,213.5,232.4,213.5,234z"/>
<path class="st7" d="M312,233c-0.4-11.5-5.4-22.4-14-30.1c-9.9-9.1-22.9-14-36.4-14h-0.1c-27.5,0-49.9,19.7-50.5,44.1
	c0,0.3,0,0.7,0,1c0,12.8,6,24.3,15.5,32.5c9.8,8.2,22.2,12.7,35,12.6h0.1c27.8,0,50.4-20.2,50.4-45.1C312,233.7,312,233.3,312,233z"
	/>
<path class="st5" d="M298,202.9l-1.5,1.3L228,265.2l-1.5,1.3C217,258.3,211,246.8,211,234c0-0.3,0-0.7,0-1
	c0.6-24.4,23-44.1,50.5-44.1h0.1C275.1,188.8,288.1,193.8,298,202.9z"/>
</svg>
