<?xml version="1.0" encoding="utf-8"?>
<!-- Generator: Adobe Illustrator 25.0.0, SVG Export Plug-In . SVG Version: 6.00 Build 0)  -->
<svg version="1.1" id="Camada_1" xmlns="http://www.w3.org/2000/svg" xmlns:xlink="http://www.w3.org/1999/xlink" x="0px" y="0px"
	 viewBox="0 0 752 555.9" style="enable-background:new 0 0 752 555.9;" xml:space="preserve">
<style type="text/css">
	.st0{fill:#8E8E8E;}
	.st1{fill:#FFFFFF;}
	.st2{fill:#F2F2F2;}
	.st3{fill:#FFB8B8;}
	.st4{fill:#FFB6B6;}
	.st5{fill:#2F2E41;}
	.st6{fill:#025EAD;}
	.st7{fill:#E6E6E6;}
	.st8{fill:#CACACA;}
	.st9{fill:#3F3D56;}
	.st10{fill:#FF0ED1;}
	.st11{fill:#D1D3D4;}
</style>
<path class="st0" d="M533.7,407.7H128.8c-7.5,0-13.6-6.1-13.6-13.6V64.4c0-7.5,6.1-13.6,13.6-13.6h404.9c7.5,0,13.6,6.1,13.6,13.6
	v329.7C547.3,401.6,541.3,407.7,533.7,407.7z"/>
<path class="st1" d="M138,60.4c-7.2,0-13.1,5.9-13.1,13.1v311.4c0,7.2,5.9,13.1,13.1,13.1h277.2c67.6-0.1,122.4-54.9,122.5-122.5
	V73.6c0-7.2-5.9-13.1-13.1-13.1L138,60.4z"/>
<path class="st0" d="M459.9,200.5h-73.4c-3.2,0-5.8-2.6-5.8-5.8v-36.5c0-3.2,2.6-5.8,5.8-5.8h73.4c3.2,0,5.8,2.6,5.8,5.8
	c4.5,12.9,5.2,25.2,0,36.5C465.7,197.9,463.1,200.5,459.9,200.5z"/>
<path class="st1" d="M451.2,196.9h-62.4c-2.7,0-4.9-2.2-4.9-4.9v-31c0-2.7,2.2-4.9,4.9-4.9h62.4c2.7,0,4.9,2.2,4.9,4.9
	c4.2,11.1,4.9,21.5,0,31C456.1,194.7,453.9,196.9,451.2,196.9z"/>
<path class="st0" d="M447.8,219.6h-49.5c-3,0-5.5-2.4-5.5-5.5s2.4-5.5,5.5-5.5h49.5c3,0,5.5,2.5,5.5,5.5
	C453.3,217.2,450.9,219.6,447.8,219.6z"/>
<path class="st0" d="M414.6,164.5c-1.2,0-2.1,1-2.1,2.1v23.3c0,1.2,1,2.1,2.1,2.1c0.4,0,0.7-0.1,1.1-0.3l20.5-11.7
	c1-0.6,1.4-1.9,0.8-2.9c-0.2-0.3-0.5-0.6-0.8-0.8l-20.5-11.6C415.3,164.6,415,164.5,414.6,164.5z"/>
<path class="st2" d="M714.1,511.4c-2.3-2.9-6.2-4.2-9.8-3.1l-0.4,0.1l-3.4,13.5c-0.5-2-1.6-6.5-2.3-11l-0.1-0.4l-0.3,0.2
	c-3.6,1.6-7,3.6-10.1,6.1c-11.1,8.9-17.7,22.2-18.1,36.4l0,0.3l0,0.2l0.5-0.2l9.8-3.5c8.8,0.8,17.4-2.5,23.6-8.8
	c4-4.2,6.7-9.5,9.3-14.7c0.8-1.5,1.6-3.1,2.4-4.6C716.9,518.4,716.5,514.3,714.1,511.4z"/>
<path class="st3" d="M464,168.1c0.7,3.8,4.5,6.4,8.3,5.6c0.4-0.1,0.8-0.2,1.2-0.3l29.3,34.1l3.7-12.6l-29-31.2
	c-1.7-3.6-5.9-5.1-9.5-3.5C465,161.7,463.3,164.9,464,168.1z"/>
<polygon class="st4" points="582,545.2 572.3,545.2 567.7,507.9 582,507.9 "/>
<path class="st5" d="M581.7,542.1l-10.3-4.2l-0.3-0.1l-5.7,4.3c-6.7,0-12.2,5.4-12.2,12.2v0.4h31.2v-12.6H581.7z"/>
<polygon class="st4" points="651.1,545.2 641.4,545.2 636.8,507.9 651.1,507.9 "/>
<path class="st5" d="M650.8,542.1l-10.3-4.2l-0.3-0.1l-5.7,4.3c-6.7,0-12.2,5.4-12.2,12.2v0.4h31.2v-12.6H650.8z"/>
<path class="st5" d="M628.2,322.1c0,0,12.2,12.6,12.2,23c0,10.4-3,24.7,0,27.8s6.8,6.9,2.3,11.5s-6.8,6.8-3.8,9.9s1.5,56.2,1.5,56.2
	l15.9,71.4h-20.1l-25.5-71.4l-6.8-59.2l-22.1,57l2.4,74.3l-21-0.6l-8.7-79c0,0,12.9-75.1,10.6-77.1s0-5.8,0-5.8l6.1-28.8
	L628.2,322.1z"/>
<path class="st6" d="M604.4,232.5c0,0,4.1-16.3-14.9-20.9s-73.4-10.7-73.4-10.7l-27.5-29.2l-9.3,13.5l30.8,38.3l73,15L604.4,232.5z"
	/>
<path class="st7" d="M483.8,184.2c0.9-1.1,1.5-2.3,2-3.7l3.9-9.7l-1,0c-5.6-1-10.9,2.6-11.9,8.2c-0.1,0.4-0.1,0.8-0.1,1.2
	c-0.1,1.2,0.1,2.5,0.6,3.6c0.6,1.1,1.6,1.9,2.9,2.1C481.5,185.9,482.9,185.3,483.8,184.2z"/>
<path class="st7" d="M567.4,335.1l-2.3,16.5c0,0,4.6,4.9,6.8,4.3s10.6-4.2,10.6-4.2s9.9,5.4,15.2,6s33.4-3.1,34.2-4.9s9.6-9,9.6-9
	l-3.5-21L567.4,335.1z"/>
<path class="st6" d="M641.4,277.3c0,0-1.9,15.9-0.4,17.4c1.5,1.5-1.5,10.7-4.6,16.8s2.3,6.8,2.3,11.4s2.3,21.3,2.3,21.3
	s-23.5,1.5-27.3-2.3s-9.9-0.8-18.2,7.6s-26.5,1.5-30.3-2.3s3-17.5,5.2-20.1s-2.2,0.4-4.5-8s2.2-7.6,6-11.4s0-10.6-3-17.5
	s-0.8-57.7-0.8-69.9s16.7-13.7,16.7-13.7l6.6-8.3l4.9-6.1l9.5-0.4l0.3,0l9.2-0.4l4.5,5.2l9.9,11.5l11.4,2.3c9.1,3,6.8,22,6.8,22
	L641.4,277.3z"/>
<circle class="st4" cx="605.3" cy="169" r="19.5"/>
<path class="st5" d="M627.9,162.5c-5.4-3.3-4.7-11.9-9.9-14.9c-5.2-3-11.6-3.3-17-0.7c-3.6-1.6-8-0.3-10.9,2.5s-4.5,7-5,11.1
	c-0.3,4.2,0,8.4,0.9,12.5c0.3-1.6,0.6-3.3,0.9-4.9l15.4-3.4c-1.4,1.2-2.7,2.4-4.1,3.7c7,1.6,14.3,0.4,20.4-3.2
	c6.7,3,5.5,9.7-0.4,18.7C620.5,187.7,634,166.2,627.9,162.5z"/>
<path class="st7" d="M619.7,196.7c0,0-0.1,0.1-0.1,0.1c-1.6,1-3.5,1.5-5.3,1.4c-2.5,0.2-4.9-0.6-6.8-2.1c-1-0.9-5,1-7.5,2.1
	c-2.7,1.1-5.8,1.2-8.5,0.1l4.9-6.1l8-1.8h2l9,1L619.7,196.7z"/>
<path class="st8" d="M750.8,555.6L479,555.9c-0.7,0-1.2-0.5-1.2-1.2c0-0.7,0.5-1.2,1.2-1.2h0l271.8-0.3c0.7,0,1.2,0.5,1.2,1.2
	C751.9,555,751.4,555.6,750.8,555.6z"/>
<polygon class="st9" points="425.4,155.7 423.4,155.7 423.4,12.7 502,12.7 502,14.7 425.4,14.7 "/>
<path class="st10" d="M563.2,0h-53c-7.2,0-13,5.8-13,13s5.8,13,13,13h53c7.2,0,13-5.8,13-13S570.4,0,563.2,0z"/>
<circle class="st10" cx="423.2" cy="156.8" r="11.9"/>
<path class="st0" d="M279.3,201.7l52.4-12.1l15-3.5c1.9-0.4,1.1-3.3-0.8-2.9l-52.4,12.1l-15,3.5
	C276.6,199.3,277.4,202.2,279.3,201.7L279.3,201.7z"/>
<path class="st0" d="M333.4,170.1l28.1,12.9c1,0.3,1.9,0.8,2.7,1.4c0.8,0.8,0.2,1.5-0.4,2.1c-1.9,1.8-3.9,3.4-6,4.9l-12,9.7
	c-1.5,1.2,0.6,3.3,2.1,2.1l10.4-8.5l5.2-4.2c1.5-1.2,3.3-2.4,3.9-4.3c1.2-4-3.7-5.6-6.4-6.9l-12.2-5.6l-13.8-6.3
	C333.2,166.8,331.6,169.3,333.4,170.1L333.4,170.1z"/>
<path class="st0" d="M720.5,268.4c-5-3.4-11.1-4.6-17-5.1c-6.7-0.4-13.5-0.4-20.3,0c-7,0.3-14,0.8-21,1.5c-7,0.7-13.9,1.7-20.8,2.9
	c-6.2,1-12.3,2.3-18.3,4c-5.7,1.6-11.1,4.2-15.9,7.7c-4.2,3.2-7.4,7.4-9.3,12.3c-1.9,4.6-2.2,9.7-0.9,14.5c0.7,2.3,1.8,4.5,3.4,6.3
	c1.8,2,4,3.7,6.3,5c5,2.8,10.6,4.5,15.1,8.2c1.2,0.9,2.3,2,3.2,3.2c0.6,0.9,1.5,1.6,2.6,2c2,0.7,4.2,0.1,5.7-1.5
	c0.9-1.2,1.6-2.6,2.2-4l2.4-4.6c0.2-0.4,0.4-0.8,0.6-1.1c0.2-0.2-0.1,0-0.1-0.1c0,0,0.1,0,0.1-0.1c0.2-0.1,0.4-0.2,0.6-0.2
	c2.2-0.8,4.4-1.6,6.6-2.4c8.1-2.9,16.4-5.6,24.8-7.7c4.3-1.2,8.7-2.1,13.1-2.7c5.7-0.8,11.5-0.7,17.3-1.3c6.2-0.6,12.6-1.9,17.9-5.3
	c4.4-2.7,7.8-6.7,9.6-11.5c0.8-2.3,1.1-4.7,0.8-7.1C728.5,276,725,271.4,720.5,268.4z"/>
<path class="st1" d="M710.3,271.4c-4.5-3.1-10-4.2-15.4-4.6c-6.1-0.3-12.2-0.3-18.3,0c-6.3,0.3-12.7,0.7-19,1.4
	c-6.3,0.7-12.6,1.5-18.8,2.6c-5.6,0.9-11.1,2.1-16.6,3.6c-5.2,1.4-10,3.8-14.3,6.9c-3.8,2.9-6.7,6.7-8.4,11.1
	c-1.7,4.2-2,8.7-0.8,13.1c0.6,2.1,1.7,4.1,3.1,5.7c1.6,1.8,3.6,3.4,5.7,4.5c4.5,2.6,9.6,4.1,13.6,7.4c1.1,0.9,2,1.8,2.9,2.9
	c0.6,0.8,1.4,1.5,2.3,1.8c1.8,0.6,3.8,0.1,5.1-1.3c0.8-1.1,1.5-2.3,2-3.6l2.1-4.1c0.1-0.4,0.3-0.7,0.5-1c0.2-0.2-0.1,0-0.1,0
	c0,0,0.1,0,0.1,0c0.2-0.1,0.4-0.2,0.6-0.2c2-0.8,4-1.5,6-2.2c7.4-2.6,14.8-5,22.4-7c3.9-1,7.8-1.9,11.8-2.5
	c5.2-0.7,10.4-0.7,15.6-1.2c5.6-0.5,11.4-1.7,16.1-4.7c4-2.4,7-6.1,8.7-10.4c0.7-2.1,1-4.3,0.7-6.4
	C717.5,278.3,714.3,274.2,710.3,271.4z"/>
<path class="st0" d="M700.9,277l-73.6,13.6c-0.9,0.2-1.7-0.4-1.9-1.3c-0.2-0.9,0.4-1.7,1.3-1.9c0,0,0,0,0,0l0,0l73.6-13.6
	c0.9-0.2,1.7,0.4,1.9,1.3C702.3,276,701.7,276.8,700.9,277L700.9,277z"/>
<path class="st0" d="M702.7,286.8l-73.6,13.6c-0.9,0.2-1.7-0.4-1.9-1.3s0.4-1.7,1.3-1.9c0,0,0,0,0,0l0,0l73.6-13.6
	c0.9-0.2,1.7,0.4,1.9,1.3C704.1,285.8,703.5,286.6,702.7,286.8L702.7,286.8L702.7,286.8z"/>
<path class="st0" d="M639.5,308.6l-8.6,1.6c-0.9,0.2-1.7-0.4-1.9-1.3c-0.2-0.9,0.4-1.7,1.3-1.9l8.6-1.6c0.9-0.2,1.7,0.4,1.9,1.3
	C640.9,307.6,640.3,308.5,639.5,308.6z"/>
<ellipse transform="matrix(0.9834 -0.1814 0.1814 0.9834 -51.6716 120.3123)" class="st11" cx="632" cy="342.7" rx="6.9" ry="6.9"/>
<path class="st0" d="M252.3,198.6h-62.9c-6.1,0-11-4.9-11-11v-41.4c0-6.1,4.9-11,11-11h62.9c6.1,0,11,4.9,11,11v41.4
	C263.3,193.7,258.4,198.6,252.3,198.6z"/>
<path class="st1" d="M245.4,196.4h-54.7c-5.3,0-9.6-4.3-9.6-9.6v-36.1c0-5.3,4.3-9.6,9.6-9.6h54.7c5.3,0,9.6,4.3,9.6,9.6v36.1
	C255,192.1,250.7,196.4,245.4,196.4z"/>
<path class="st0" d="M261.2,236h-80.7c-1,0-1.9-0.8-1.9-1.9c0-1,0.8-1.9,1.9-1.9h80.7c1,0,1.9,0.8,1.9,1.9
	C263.1,235.1,262.2,235.9,261.2,236z"/>
<path class="st0" d="M261.2,225.2h-80.7c-1,0-1.9-0.8-1.9-1.9c0-1,0.8-1.9,1.9-1.9h80.7c1,0,1.9,0.8,1.9,1.9
	C263.1,224.4,262.2,225.2,261.2,225.2z"/>
<path class="st0" d="M261.2,246.7h-80.7c-1,0-1.9-0.8-1.9-1.9s0.8-1.9,1.9-1.9l0,0h80.7c1,0,1.9,0.8,1.9,1.9
	S262.2,246.7,261.2,246.7z"/>
<path class="st0" d="M261.2,257.5h-80.7c-1,0-1.9-0.8-1.9-1.9s0.8-1.9,1.9-1.9l0,0h80.7c1,0,1.9,0.8,1.9,1.9
	S262.2,257.5,261.2,257.5z"/>
<path class="st0" d="M261.2,268.2h-80.7c-1,0-1.9-0.8-1.9-1.9s0.8-1.9,1.9-1.9l0,0h80.7c1,0,1.9,0.8,1.9,1.9
	S262.2,268.2,261.2,268.2z"/>
<path class="st0" d="M261.2,279h-80.7c-1,0-1.9-0.8-1.9-1.9c0-1,0.8-1.9,1.9-1.9h80.7c1,0,1.9,0.8,1.9,1.9
	C263.1,278.1,262.2,279,261.2,279z"/>
<polygon class="st9" points="216.8,254.3 218.8,254.3 218.8,331.3 74.2,331.3 74.2,329.3 216.8,329.3 "/>
<path class="st10" d="M13,344h53c7.2,0,13-5.8,13-13s-5.8-13-13-13H13c-7.2,0-13,5.8-13,13S5.8,344,13,344L13,344z"/>
<circle class="st10" cx="219.2" cy="248.2" r="11.9"/>
<path class="st0" d="M281,251.5c17.5,3.7,13.1,4.5,30.6,8.2l15.1,3.2c1.9,0.4,2.4-2.6,0.5-3c-17.5-3.7-13.1-4.5-30.6-8.2l-15.1-3.2
	C279.6,248.1,279.1,251.1,281,251.5L281,251.5z"/>
<path class="st0" d="M321.4,242.8l20,23.6c0.7,0.7,1.3,1.5,1.8,2.4c0.4,1-0.4,1.4-1.3,1.8c-2.5,0.8-5,1.4-7.5,1.9l-14.9,3.7
	c-1.9,0.5-0.9,3.3,1,2.8l13-3.3l6.5-1.6c1.8-0.5,4-0.8,5.3-2.3c2.8-3.1-1-6.6-2.9-8.9l-8.7-10.3l-9.8-11.6
	C322.6,239.6,320.1,241.3,321.4,242.8L321.4,242.8z"/>
<circle class="st0" cx="384.7" cy="317.7" r="27.8"/>
<circle class="st1" cx="381.9" cy="320.8" r="21.1"/>
<path class="st0" d="M378.2,335.3c-1,0-1.9-0.5-2.5-1.2l-7.6-10.1c-1-1.4-0.7-3.3,0.6-4.3c1.4-1,3.3-0.7,4.3,0.6l0,0l0,0l5,6.6
	l12.7-19.1c0.9-1.4,2.9-1.8,4.3-0.9s1.8,2.9,0.9,4.3l0,0l-15.2,22.7C380.2,334.7,379.2,335.2,378.2,335.3
	C378.2,335.3,378.2,335.3,378.2,335.3z"/>
<path class="st3" d="M644.1,346.3c3.4-2,4.5-6.3,2.5-9.7c-0.2-0.4-0.5-0.7-0.7-1l22.3-39l-13.1,0.7l-19.7,37.8
	c-2.8,2.8-2.9,7.3-0.1,10.1C637.6,347.5,641.2,348,644.1,346.3L644.1,346.3z"/>
<path class="st6" d="M618.9,209.7c0,0,23.6-7.6,29.7,10.6s26.5,67.6,26.5,67.6l-21.9,44.8l-9.9-10.6l10.6-31.1l-30.4-45.6
	L618.9,209.7z"/>
<path class="st7" d="M653.9,328.1c-0.7-1.2-1.6-2.3-2.7-3.2l-7.5-7.3l-0.4,0.9c-3,4.8-1.6,11.1,3.2,14.1c0.3,0.2,0.7,0.4,1,0.6
	c1.1,0.6,2.4,0.8,3.6,0.7c1.3-0.1,2.4-0.8,3-1.9C654.7,330.9,654.6,329.4,653.9,328.1z"/>
<polygon class="st9" points="384.4,355.1 382.4,355.1 382.4,432.1 450.1,432.1 450.1,430.1 384.4,430.1 "/>
<path class="st10" d="M524.2,431.8c0-7.2-5.8-13-13-13h-53c-7.2,0-13,5.8-13,13s5.8,13,13,13h53
	C518.4,444.8,524.2,438.9,524.2,431.8z"/>
<circle class="st10" cx="382" cy="348.9" r="11.9"/>
</svg>
