<?xml version="1.0" encoding="utf-8"?>
<!-- Generator: Adobe Illustrator 25.0.0, SVG Export Plug-In . SVG Version: 6.00 Build 0)  -->
<svg version="1.1" id="Camada_1" xmlns="http://www.w3.org/2000/svg" xmlns:xlink="http://www.w3.org/1999/xlink" x="0px" y="0px"
	 viewBox="0 0 926.6 600.1" style="enable-background:new 0 0 926.6 600.1;" xml:space="preserve">
<style type="text/css">
	.st0{fill:#FFB8B8;}
	.st1{fill:#2F2E41;}
	.st2{fill:#025EAD;}
	.st3{fill:#CCCCCC;}
	.st4{fill:#C4C4C4;}
	.st5{fill:#FFFFFF;}
	.st6{fill:#3F3D56;}
	.st7{fill:#8E8E8E;}
	.st8{fill:#FF0ED1;}
</style>
<circle class="st0" cx="150.5" cy="254.9" r="24.6"/>
<polygon class="st0" points="67.5,549.2 73.8,559.8 117.5,540.8 108.3,525.2 "/>
<path class="st1" d="M69.4,544.5l12.2,20.8l0,0c4.3,7.3,1.9,16.8-5.5,21.1c0,0,0,0,0,0l-0.4,0.3l-20.1-34.1L69.4,544.5z"/>
<polygon class="st0" points="139.6,587.3 151.9,587.3 157.7,540 139.6,540 "/>
<path class="st1" d="M136.5,583.3l24.1,0h0c8.5,0,15.4,6.9,15.4,15.4c0,0,0,0,0,0v0.5l-39.5,0L136.5,583.3z"/>
<path class="st1" d="M90.3,558.6c-1.4,0-2.8-0.7-3.6-1.8l-11.8-16.1c-1.5-2-1-4.8,1-6.3c0.1,0,0.1-0.1,0.2-0.1l52.6-35.1l-31.7-83.5
	l67.9,5.6L167,493c0.4,13.3-6.5,25.8-18,32.4L92.6,558C91.9,558.4,91.1,558.6,90.3,558.6z"/>
<path class="st1" d="M140,577.7c-2.4,0-4.4-1.9-4.5-4.3l-2.5-69.9l30.8-1.6l-2.5,70.4c-0.1,2.3-1.9,4.2-4.2,4.3l-16.9,1.1
	C140.2,577.7,140.1,577.7,140,577.7z"/>
<path class="st2" d="M172.6,435.2c-7.8,0-35.2-8.8-44.7-12c-1.4,1.1-9.2,7-18.4,5.9c-5.6-0.7-10.6-3.8-14.7-9.5
	C85.7,407.2,97,354,108,311.5c4.6-17.8,22.5-28.8,40.5-24.9l0,0c12.8,2.8,22.9,12.7,26.1,25.4c2.1,8.5,0.3,18.5-1,25.8
	c-0.6,3.4-1.1,6.1-0.9,7.5c0.6,5.1,4.2,85.9,1.9,89.3C174.4,435,173.7,435.2,172.6,435.2z"/>
<path class="st0" d="M143.9,435.3c4.8-3.5,5.7-10.3,2.2-15c-0.4-0.5-0.8-1-1.3-1.4l0.5-97.8l-23,3.8l6.8,95
	c-3.8,4.6-3.1,11.4,1.5,15.2C134.4,438.2,139.9,438.3,143.9,435.3z"/>
<path class="st2" d="M149.3,383.9h-24.8c-2.5,0-4.5-2-4.5-4.5l-0.6-67.3c-0.1-9.7,7.7-17.7,17.4-17.8s17.7,7.7,17.8,17.4
	c0,0.1,0,0.2,0,0.4l-0.8,67.3C153.7,381.9,151.7,383.9,149.3,383.9z"/>
<path class="st1" d="M144.3,279.3c-11.2,0-21.9-8.9-23.8-19.9c-0.7-4.4-0.4-8.8,0.9-13c5.5-18.5,24.9-29.1,43.4-23.6
	c1.5,0.5,3.1,1,4.5,1.7c3,1.4,6,3.3,7.3,6.3s0.5,7.2-2.5,8.5c-2,0.9-4.4,0.4-6.2,1.7c-2.5,1.8-1.9,5.7-0.7,8.6s2.4,6.4,0.5,8.9
	c-1.8,2.3-5.2,2.2-8,1.4s-5.5-2.3-8.3-2c-4.2,0.4-7.2,4.6-7.8,8.8s0.8,8.3,2.1,12.4L144.3,279.3z"/>
<path class="st3" d="M259,600.1H1c-0.6,0-1-0.4-1-1s0.4-1,1-1h258c0.6,0,1,0.4,1,1S259.6,600.1,259,600.1z"/>
<path class="st4" d="M910.1,434.5H269.3c-9.1,0-16.5-7.4-16.5-16.5V22.9c0-6.7,5.4-12.1,12.1-12.1h649.5c6.8,0,12.3,5.5,12.3,12.3
	V418C926.6,427.2,919.2,434.5,910.1,434.5z"/>
<path class="st5" d="M889.4,413.7H292.2c-8.8,0-15.9-6.7-15.9-14.9V54.7c0-6.1,5.3-11,11.8-11h605.3c6.6,0,12,5,12,11.2v343.9
	C905.3,407,898.2,413.7,889.4,413.7z"/>
<path class="st6" d="M926.4,25H252.6v-8.4C252.6,7.4,260,0,269.1,0h640.7c9.1,0,16.5,7.4,16.6,16.5V25z"/>
<circle class="st5" cx="282.6" cy="12.5" r="4.3"/>
<circle class="st5" cx="298.9" cy="12.5" r="4.3"/>
<circle class="st5" cx="315.2" cy="12.5" r="4.3"/>
<path class="st7" d="M576.6,119H459.8c-3.6,0-6.6-2.9-6.6-6.6c0-3.6,2.9-6.6,6.6-6.6h116.8c3.6,0,6.6,2.9,6.6,6.6
	S580.2,119,576.6,119C576.6,119,576.6,119,576.6,119z"/>
<path class="st7" d="M721.8,119H604.9c-3.6,0-6.6-2.9-6.6-6.6c0-3.6,2.9-6.6,6.6-6.6h116.8c3.6,0,6.6,2.9,6.6,6.6
	S725.4,119,721.8,119C721.8,119,721.8,119,721.8,119z"/>
<path class="st7" d="M721.8,143.8H518.6c-3.6,0-6.6-2.9-6.6-6.6s2.9-6.6,6.6-6.6l0,0h203.2c3.6,0,6.6,2.9,6.6,6.6
	S725.4,143.8,721.8,143.8z"/>
<path class="st7" d="M576.6,93.7H459.8c-3.6,0-6.6-3-6.6-6.6c0-3.6,2.9-6.5,6.6-6.6h116.8c3.6,0,6.6,2.9,6.6,6.6
	S580.3,93.7,576.6,93.7C576.6,93.7,576.6,93.7,576.6,93.7z"/>
<path class="st7" d="M640.9,94.1h-33.2c-3.6,0-6.6-2.9-6.6-6.6c0-3.6,2.9-6.6,6.6-6.6h33.2c3.6,0,6.6,2.9,6.6,6.6
	C647.5,91.1,644.5,94.1,640.9,94.1C640.9,94.1,640.9,94.1,640.9,94.1z"/>
<path class="st7" d="M493,143.8h-33.2c-3.6,0-6.6-3-6.6-6.6c0-3.6,2.9-6.5,6.6-6.6H493c3.6,0,6.6,2.9,6.6,6.6S496.6,143.8,493,143.8
	C493,143.8,493,143.8,493,143.8z"/>
<path class="st7" d="M576.6,352H459.8c-3.6,0-6.6-2.9-6.6-6.6s2.9-6.6,6.6-6.6h116.8c3.6,0,6.6,2.9,6.6,6.6S580.2,352,576.6,352
	L576.6,352z"/>
<path class="st7" d="M721.8,352H604.9c-3.6,0-6.6-2.9-6.6-6.6s2.9-6.6,6.6-6.6l0,0h116.8c3.6,0,6.6,2.9,6.6,6.6S725.4,352,721.8,352
	z"/>
<path class="st7" d="M721.8,376.8H518.6c-3.6,0-6.6-2.9-6.6-6.6c0-3.6,2.9-6.6,6.6-6.6l0,0h203.2c3.6,0,6.6,2.9,6.6,6.6
	C728.3,373.9,725.4,376.8,721.8,376.8C721.8,376.8,721.8,376.8,721.8,376.8z"/>
<path class="st7" d="M576.6,326.7H459.8c-3.6,0-6.6-2.9-6.6-6.6c0-3.6,2.9-6.6,6.6-6.6l0,0h116.8c3.6,0,6.6,2.9,6.6,6.6
	C583.2,323.8,580.2,326.7,576.6,326.7z"/>
<path class="st7" d="M640.9,327.1h-33.2c-3.6,0-6.6-2.9-6.6-6.6s2.9-6.6,6.6-6.6h33.2c3.6,0,6.6,2.9,6.6,6.6
	S644.5,327.1,640.9,327.1z"/>
<path class="st7" d="M493,376.8h-33.2c-3.6,0-6.6-2.9-6.6-6.6c0-3.6,2.9-6.6,6.6-6.6l0,0H493c3.6,0,6.6,2.9,6.6,6.6
	C499.6,373.9,496.6,376.8,493,376.8C493,376.8,493,376.8,493,376.8z"/>
<path class="st8" d="M546.1,281.5c-2.5,0-4.9-1-6.6-2.7l-43.9-43.4c-3.6-3.6-3.6-9.3-0.1-12.9c0,0,0.1-0.1,0.1-0.1l43.7-43.2
	c3.8-3.7,9.9-3.7,13.6,0l0,0c3.8,3.8,3.8,9.9,0,13.7l-32.5,32.5c-2.1,2.1-2.1,5.5,0,7.6l32.3,32.3c3.7,3.7,3.7,9.6,0,13.3
	C551,280.5,548.6,281.5,546.1,281.5L546.1,281.5z"/>
<path class="st8" d="M616.1,281.5c-5.2,0-9.4-4.2-9.4-9.4c0-2.5,1-4.9,2.8-6.7l32.3-32.3c2.1-2.1,2.1-5.5,0-7.6l-32.5-32.5
	c-3.8-3.8-3.8-9.9,0-13.7c0,0,0,0,0,0l0,0c3.8-3.7,9.9-3.8,13.6,0l43.7,43.2c3.6,3.6,3.6,9.3,0.1,12.9c0,0-0.1,0.1-0.1,0.1
	l-43.9,43.4C620.9,280.5,618.5,281.5,616.1,281.5z"/>
</svg>
