<?xml version="1.0" encoding="utf-8"?>
<!-- Generator: Adobe Illustrator 25.0.0, SVG Export Plug-In . SVG Version: 6.00 Build 0)  -->
<svg version="1.1" id="Camada_1" xmlns="http://www.w3.org/2000/svg" xmlns:xlink="http://www.w3.org/1999/xlink" x="0px" y="0px"
	 viewBox="0 0 500 324" style="enable-background:new 0 0 500 324;" xml:space="preserve">
<g>
	<path d="M284.6,293.9c-20.2,7.8-43.1,7.8-63.2,0.1c-2.5-0.9-5.2,0.3-6.2,2.7c-0.9,2.5,0.3,5.2,2.7,6.2c11.1,4.3,22.9,6.4,34.9,6.4
		c12.1,0,23.9-2.2,35.1-6.5c2.5-0.9,3.7-3.7,2.7-6.2C289.8,294.1,287.1,292.9,284.6,293.9z"/>
	<path d="M374.3,268.1c7.3-6.1,11.9-15.3,11.9-25.5c7.9,0,14.3-6.4,14.3-14.3c0-7.9-6.4-14.3-14.3-14.3v-23.8c0-5.2-4.3-9.5-9.5-9.5
		c0,0,0,0,0,0v0c0-5.2-4.3-9.5-9.5-9.5h-25.5c-8.8-19.2-23.6-35.2-42.2-45.4c0,0,0,0,0,0c-5.5-9.4-14.4-16.5-25.1-19.6
		c7.3-6.1,11.9-15.3,11.9-25.5c7.9,0,14.3-6.4,14.3-14.3s-6.4-14.3-14.3-14.3V28.3c0-5.2-4.3-9.5-9.5-9.5c0,0,0,0,0,0v0
		c0-5.2-4.3-9.5-9.5-9.5h-33.3c-13.1,0-23.8,10.7-23.8,23.8c0,7.8,3.8,14.6,9.5,18.9c0,0,0,0.1,0,0.1c-7.9,0-14.3,6.4-14.3,14.3
		s6.4,14.3,14.3,14.3c0,10.2,4.6,19.4,11.9,25.5c-10.7,3.1-19.6,10.2-25.1,19.6c-0.1,0-0.1,0-0.2,0.1
		c-18.5,10.1-33.3,26.1-42.1,45.3h-30.3c-13.1,0-23.8,10.7-23.8,23.8c0,7.8,3.8,14.6,9.5,18.9c0,0,0,0.1,0,0.1
		c-7.9,0-14.3,6.4-14.3,14.3c0,7.9,6.4,14.3,14.3,14.3c0,10.2,4.6,19.4,11.9,25.5c-17.9,5.2-31,21.6-31,41.1c0,2.6,2.1,4.8,4.8,4.8
		h95.2c2.6,0,4.8-2.1,4.8-4.8c0-19.5-13.1-36-31-41.1c7.3-6.1,11.9-15.3,11.9-25.5c7.9,0,14.3-6.4,14.3-14.3
		c0-7.9-6.4-14.3-14.3-14.3v-23.8c0-5.2-4.3-9.5-9.5-9.5c0,0,0,0,0,0v0c0-2.8-1.3-5.3-3.2-7.1c6.3-13.2,15.9-24.6,27.6-33.2
		c-0.4,2.3-0.6,4.5-0.6,6.9c0,2.6,2.1,4.8,4.8,4.8h95.2c2.6,0,4.8-2.1,4.8-4.8c0-2.4-0.2-4.6-0.6-6.9c11.1,8.1,20.3,18.7,26.6,31
		c-11.9,1.3-21.2,11.3-21.2,23.5c0,7.8,3.8,14.6,9.5,18.9c0,0,0,0.1,0,0.1c-7.9,0-14.3,6.4-14.3,14.3c0,7.9,6.4,14.3,14.3,14.3
		c0,10.2,4.6,19.4,11.9,25.5c-17.9,5.2-31,21.6-31,41.1c0,2.6,2.1,4.8,4.8,4.8h95.2c2.6,0,4.8-2.1,4.8-4.8
		C405.3,289.7,392.2,273.3,374.3,268.1z M114.9,228.3c0-2.6,2.1-4.8,4.8-4.8v9.5C117,233.1,114.9,230.9,114.9,228.3z M162.5,275.9
		c16.8,0,30.7,12.4,33,28.6h-85c2.3-16.1,16.2-28.6,33-28.6H162.5z M176.8,242.6c0,13.1-10.7,23.8-23.8,23.8
		c-13.1,0-23.8-10.7-23.8-23.8v-23.8v-0.5c1.5,0.3,3.1,0.5,4.8,0.5h15.9c6.4,0,12.3-2.5,16.8-7l1.2-1.2l8.9,5.9V242.6z M191.1,228.3
		c0,2.6-2.1,4.8-4.8,4.8v-9.5C188.9,223.5,191.1,225.7,191.1,228.3z M176.8,190.2v14.9l-6.9-4.6c-1.9-1.3-4.4-1-6,0.6l-3.9,3.9
		c-2.7,2.7-6.3,4.2-10.1,4.2h-15.9c-7.9,0-14.3-6.4-14.3-14.3c0-7.9,6.4-14.3,14.3-14.3l33.3,0v0
		C167.2,185.9,171.5,190.2,176.8,190.2z M291,66.4c0,2.6-2.1,4.8-4.8,4.8v-9.5C288.9,61.7,291,63.8,291,66.4z M233.9,18.8l33.3,0v0
		c0,5.2,4.3,9.5,9.5,9.5v14.9l-6.9-4.6c-1.9-1.3-4.4-1-6,0.6l-3.9,3.9c-2.7,2.7-6.3,4.2-10.1,4.2h-15.9c-7.9,0-14.3-6.4-14.3-14.3
		S226,18.8,233.9,18.8z M214.9,66.4c0-2.6,2.1-4.8,4.8-4.8v9.5C217,71.2,214.9,69.1,214.9,66.4z M229.1,80.7V56.4
		c1.5,0.3,3.1,0.5,4.8,0.5h15.9c6.4,0,12.3-2.5,16.8-7l1.2-1.2l8.9,5.9v26c0,13.1-10.7,23.8-23.8,23.8
		C239.8,104.5,229.1,93.8,229.1,80.7z M210.4,142.6c2.3-16.1,16.2-28.6,33-28.6h19c16.8,0,30.7,12.4,33,28.6H210.4z M391,228.3
		c0,2.6-2.1,4.8-4.8,4.8v-9.5C388.9,223.5,391,225.7,391,228.3z M333.9,180.7l33.3,0v0c0,5.2,4.3,9.5,9.5,9.5v14.9l-6.9-4.6
		c-1.9-1.3-4.4-1-6,0.6l-3.9,3.9c-2.7,2.7-6.3,4.2-10.1,4.2h-15.9c-7.9,0-14.3-6.4-14.3-14.3C319.6,187.1,326,180.7,333.9,180.7z
		 M314.8,228.3c0-2.6,2.1-4.8,4.8-4.8v9.5C317,233.1,314.8,230.9,314.8,228.3z M329.1,242.6v-23.8v-0.5c1.5,0.3,3.1,0.5,4.8,0.5
		h15.9c6.4,0,12.3-2.5,16.8-7l1.2-1.2l8.9,5.9v26c0,13.1-10.7,23.8-23.8,23.8C339.8,266.4,329.1,255.7,329.1,242.6z M310.4,304.5
		c2.3-16.1,16.2-28.6,33-28.6h19c16.8,0,30.7,12.4,33,28.6H310.4z"/>
	<circle cx="138.7" cy="228.3" r="4.8"/>
	<circle cx="167.2" cy="228.3" r="4.8"/>
	<circle cx="338.6" cy="228.3" r="4.8"/>
	<circle cx="367.2" cy="228.3" r="4.8"/>
	<circle cx="238.7" cy="66.4" r="4.8"/>
	<circle cx="267.2" cy="66.4" r="4.8"/>
	<path d="M300.6,185.5c0-13.1-10.7-23.8-23.8-23.8h-28.6c-11.6,0-21.3,8.4-23.4,19.5c-11.1,2-19.5,11.7-19.5,23.4v57.1
		c0,1.9,1.2,3.7,2.9,4.4c0.6,0.2,1.2,0.4,1.8,0.4c1.2,0,2.5-0.5,3.4-1.4l13.5-13.5c2.7-2.7,6.3-4.2,10.1-4.2h20.7
		c9.6,0,18.1-5.7,21.8-14.3l12.9,12.9c0.9,0.9,2.1,1.4,3.4,1.4c0.6,0,1.2-0.1,1.8-0.4c1.8-0.7,2.9-2.5,2.9-4.4V185.5z M257.7,237.8
		H237c-6.4,0-12.3,2.5-16.8,7l-5.3,5.3v-45.6c0-6.2,4-11.4,9.5-13.4v13.4c0,13.1,10.7,23.8,23.8,23.8h20.7c0.7,0,1.5,0.1,2.2,0.2
		C269,234.1,263.7,237.8,257.7,237.8z M291,231.1l-5.3-5.3c-4.5-4.5-10.5-7-16.8-7h-20.7c-7.9,0-14.3-6.4-14.3-14.3v-19
		c0-7.9,6.4-14.3,14.3-14.3h28.6c7.9,0,14.3,6.4,14.3,14.3V231.1z"/>
	<circle cx="262.5" cy="195" r="4.8"/>
	<circle cx="276.8" cy="195" r="4.8"/>
	<circle cx="248.2" cy="195" r="4.8"/>
</g>
</svg>
