<?xml version="1.0" encoding="utf-8"?>
<!-- Generator: Adobe Illustrator 25.0.0, SVG Export Plug-In . SVG Version: 6.00 Build 0)  -->
<svg version="1.1" id="Camada_1" xmlns="http://www.w3.org/2000/svg" xmlns:xlink="http://www.w3.org/1999/xlink" x="0px" y="0px"
	 viewBox="0 0 500 324" style="enable-background:new 0 0 500 324;" xml:space="preserve">
<style type="text/css">
	.st0{fill:none;stroke:#ffffff;stroke-width:7.5431;stroke-linecap:round;stroke-linejoin:round;stroke-miterlimit:10;}
</style>
<path class="st0" d="M212.4,264c0-24.4-9.3-48.7-27.9-67.3c-13.7-13.6-22.1-32.5-22.1-53.3c0-41.7,33.8-75.4,75.4-75.4
	s75.4,33.8,75.4,75.4c0,20.8-8.4,39.7-22.1,53.3c-18.6,18.6-27.9,43-27.9,67.3H212.4z"/>
<path class="st0" d="M263.3,264h-50.9v39.6c0,5.2,4.3,9.4,9.4,9.4h32c5.2,0,9.4-4.2,9.4-9.4V264z"/>
<path class="st0" d="M204.5,109.9c-18.4,18.4-18.4,48.3,0,66.7C186.1,158.2,186.1,128.3,204.5,109.9z"/>
<path class="st0" d="M237.9,11.3v28.3V11.3z"/>
<path class="st0" d="M187.3,21.3l10.8,26.1L187.3,21.3z"/>
<path class="st0" d="M142,103.6l-26.1-10.8L142,103.6z"/>
<path class="st0" d="M333.7,183l26.1,10.8L333.7,183z"/>
<path class="st0" d="M288.4,21.3l-10.8,26.1L288.4,21.3z"/>
<path class="st0" d="M142,183l-26.1,10.8L142,183z"/>
<path class="st0" d="M359.8,92.8l-26.1,10.8L359.8,92.8z"/>
<path class="st0" d="M134.1,143.3H87H134.1z"/>
<path class="st0" d="M388.7,143.3h-47.2H388.7z"/>
<path class="st0" d="M164.5,216.6L131.2,250L164.5,216.6z"/>
<path class="st0" d="M344.5,36.6l-33.3,33.3L344.5,36.6z"/>
<path class="st0" d="M344.5,249.9l-33.3-33.3L344.5,249.9z"/>
<path class="st0" d="M131.2,36.6l33.3,33.3L131.2,36.6z"/>
</svg>
