<?xml version="1.0" encoding="utf-8"?>
<!-- Generator: Adobe Illustrator 25.0.0, SVG Export Plug-In . SVG Version: 6.00 Build 0)  -->
<svg version="1.1" id="Camada_1" xmlns="http://www.w3.org/2000/svg" xmlns:xlink="http://www.w3.org/1999/xlink" x="0px" y="0px"
	 viewBox="0 0 500 324" style="enable-background:new 0 0 500 324;" xml:space="preserve">
<style type="text/css">
	.st0{fill:#FFFFFF;}
</style>
<g>
	<path class="st0" d="M84.2,301.5h332.4c12,0,21.7-9.7,21.7-21.7V63c0-12-9.7-21.7-21.7-21.7H84.2c-12,0-21.7,9.7-21.7,21.7v216.8
		C62.5,291.7,72.2,301.5,84.2,301.5z M77,279.8V113.6h159V287H84.2C80.2,287,77,283.8,77,279.8z M423.8,63v216.8
		c0,4-3.2,7.2-7.2,7.2H250.4V55.8h166.2C420.6,55.8,423.8,59,423.8,63z M84.2,55.8H236v43.4H77V63C77,59,80.2,55.8,84.2,55.8z"/>
	<rect x="91.4" y="70.2" class="st0" width="14.5" height="14.5"/>
	<rect x="120.3" y="70.2" class="st0" width="14.5" height="14.5"/>
	<rect x="149.2" y="70.2" class="st0" width="14.5" height="14.5"/>
	<path class="st0" d="M98.6,193.1h57.8c4,0,7.2-3.2,7.2-7.2v-43.4c0-4-3.2-7.2-7.2-7.2H98.6c-4,0-7.2,3.2-7.2,7.2v43.4
		C91.4,189.8,94.6,193.1,98.6,193.1z M105.9,149.7h43.4v28.9h-43.4V149.7z"/>
	<rect x="178.1" y="142.5" class="st0" width="43.4" height="14.5"/>
	<rect x="178.1" y="171.4" class="st0" width="43.4" height="14.5"/>
	<rect x="91.4" y="222" class="st0" width="28.9" height="14.5"/>
	<rect x="134.8" y="222" class="st0" width="86.7" height="14.5"/>
	<rect x="91.4" y="250.9" class="st0" width="130.1" height="14.5"/>
	<path class="st0" d="M303.1,140.4l10.2-10.2l-16.6-16.6L313.3,97l-10.2-10.2l-21.7,21.7c-2.8,2.8-2.8,7.4,0,10.2L303.1,140.4z"/>
	<path class="st0" d="M371.1,140.4l21.7-21.7c2.8-2.8,2.8-7.4,0-10.2l-21.7-21.7L360.9,97l16.6,16.6l-16.6,16.6L371.1,140.4z"/>
	
		<rect x="314.2" y="106.3" transform="matrix(0.3165 -0.9486 0.9486 0.3165 122.707 397.3181)" class="st0" width="45.7" height="14.4"/>
	<rect x="279.3" y="164.2" class="st0" width="28.9" height="14.5"/>
	<rect x="322.7" y="164.2" class="st0" width="57.8" height="14.5"/>
	<rect x="293.8" y="193.1" class="st0" width="43.4" height="14.5"/>
	<rect x="351.6" y="193.1" class="st0" width="28.9" height="14.5"/>
	<rect x="279.3" y="222" class="st0" width="28.9" height="14.5"/>
	<rect x="322.7" y="222" class="st0" width="43.4" height="14.5"/>
	<rect x="293.8" y="250.9" class="st0" width="57.8" height="14.5"/>
	<rect x="366" y="250.9" class="st0" width="14.5" height="14.5"/>
</g>
</svg>
