<?xml version="1.0" encoding="utf-8"?>
<!-- Generator: Adobe Illustrator 25.0.0, SVG Export Plug-In . SVG Version: 6.00 Build 0)  -->
<svg version="1.1" id="Camada_1" xmlns="http://www.w3.org/2000/svg" xmlns:xlink="http://www.w3.org/1999/xlink" x="0px" y="0px"
	 viewBox="0 0 500 324" style="enable-background:new 0 0 500 324;" xml:space="preserve">
<style type="text/css">
	.st0{fill:none;stroke:#000000;stroke-width:7.3484;stroke-linecap:round;stroke-linejoin:round;stroke-miterlimit:10;}
</style>
<polygon class="st0" points="377.6,289.7 135.6,289.7 135.6,47.6 135.6,289.7 "/>
<path class="st0" d="M118.3,255.1h17.3H118.3z"/>
<path class="st0" d="M118.3,220.6h17.3H118.3z"/>
<path class="st0" d="M118.3,186h17.3H118.3z"/>
<path class="st0" d="M118.3,151.4h17.3H118.3z"/>
<path class="st0" d="M118.3,116.8h17.3H118.3z"/>
<path class="st0" d="M118.3,82.2h17.3H118.3z"/>
<path class="st0" d="M170.1,307v-17.3V307z"/>
<path class="st0" d="M204.7,307v-17.3V307z"/>
<path class="st0" d="M239.3,307v-17.3V307z"/>
<path class="st0" d="M273.9,307v-17.3V307z"/>
<path class="st0" d="M308.5,307v-17.3V307z"/>
<path class="st0" d="M343,307v-17.3V307z"/>
<polygon class="st0" points="152.9,47.6 135.6,13.1 118.3,47.6 "/>
<polygon class="st0" points="377.6,307 412.2,289.7 377.6,272.4 "/>
<rect x="170.1" y="186" class="st0" width="34.6" height="103.7"/>
<rect x="239.3" y="47.6" class="st0" width="34.6" height="242.1"/>
<rect x="308.5" y="151.4" class="st0" width="34.6" height="138.3"/>
</svg>
