<?xml version="1.0" encoding="utf-8"?>
<!-- Generator: Adobe Illustrator 25.0.0, SVG Export Plug-In . SVG Version: 6.00 Build 0)  -->
<svg version="1.1" id="Camada_1" xmlns="http://www.w3.org/2000/svg" xmlns:xlink="http://www.w3.org/1999/xlink" x="0px" y="0px"
	 viewBox="0 0 500 324" style="enable-background:new 0 0 500 324;" xml:space="preserve">
<path d="M36.8,236l-8.4,5.8c-3-4.3-5.8-8.8-8.3-13.3l8.9-4.9C31.5,227.9,34.1,232,36.8,236z M214.5,300.7h-50.9
	c-46.3,0-89.5-19.7-118.6-53.9l-7.8,6.6c31,36.6,77,57.5,126.3,57.5h50.9V300.7z M29.1,154.4c0-71.3,61.9-129.3,138-129.3h121.8
	v73.4H171.9c-33.2,0-60.2,25.1-60.2,55.9c0,30.8,27,55.9,60.2,55.9h116.9v73.4H167.1C91,283.7,29.1,225.7,29.1,154.4z M278.7,220.5
	h-66.9v53h66.9V220.5z M278.7,35.3h-66.9v53h66.9V35.3z M167.1,273.5h34.5v-53h-29.6c-37,0-67.3-26.9-70.1-61h-8.8v-10.2h8.8
	c2.8-34.1,33.1-61,70.1-61h29.6v-53h-34.5c-68.6,0-124.8,50.7-127.7,114h12.8v10.2H39.4C42.3,222.8,98.4,273.5,167.1,273.5z
	 M229.6,54.3v10.2h9.9v9.9h10.2v-9.9h9.9V54.3h-9.9v-9.9h-10.2v9.9H229.6z M229.6,241.5v10.2h9.9v9.9h10.2v-9.9h9.9v-10.2h-9.9v-9.9
	h-10.2v9.9H229.6z M326.9,44.9V34.7h-27.2v10.2H326.9z M326.9,88V77.8h-27.2V88H326.9z M358.6,67V56.8h-59V67H358.6z M326.9,230.3
	V220h-27.2v10.2H326.9z M326.9,273.4v-10.2h-27.2v10.2H326.9z M358.6,252.4v-10.2h-59v10.2H358.6z M65.8,149.3v10.2h13.6v-10.2H65.8
	z"/>
<g>
	<path d="M478.6,98.1c-1.2-9.6-8.7-17.3-18.3-18.7l-13.4-2l-0.4-1.3c5.2-3.2,9-8.4,10.5-14.5h1.8c5.3,0,9.6-4.3,9.6-9.6
		c0-4.9-3.7-8.9-8.4-9.5c1-2.2,1.5-4.5,1.5-6.9v-6c0-8.3-6.7-15-15-15c-2.6,0-5,1-6.8,2.7c-2.5-4.1-7-6.8-12.1-6.8
		c-11.9,0-21.6,9.7-21.6,21.6v3.6c0,2.4,0.5,4.8,1.5,6.9c-4.7,0.6-8.4,4.6-8.4,9.5c0,5.3,4.3,9.6,9.6,9.6h1.8
		c1.5,6.1,5.4,11.2,10.5,14.5l-0.4,1.3l-13.3,2c-9.3,1.2-17.2,9.2-18.3,18.6l-0.4,3.1l90.4,0L478.6,98.1z M450.3,47.8
		c-1.1-3.1-4.1-5.3-7.5-5.3c-2.9,0-5.4,1.5-6.8,3.8c-0.7-0.2-1.4-0.3-2.2-0.3c0,0,0,0,0,0c-0.7,0-1.4,0.1-2.1,0.3
		c-1.4-2.3-3.9-3.8-6.8-3.8c-3.5,0-6.4,2.2-7.5,5.3h-2.3v-7.2c0-1.5,1.2-2.7,2.7-2.7h10.7c4.4,0,8.2-2.1,10.7-5.3
		c2.4,3.2,6.3,5.3,10.7,5.3c1.5,0,2.7,1.2,2.7,2.7v7.2H450.3z M445.5,50.5c0,1.5-1.2,2.7-2.7,2.7c-1.5,0-2.7-1.2-2.7-2.7
		c0-1.5,1.2-2.7,2.7-2.7C444.3,47.8,445.5,49,445.5,50.5L445.5,50.5z M427.6,50.5c0,1.5-1.2,2.7-2.7,2.7c-1.5,0-2.7-1.2-2.7-2.7
		c0-1.5,1.2-2.7,2.7-2.7C426.4,47.8,427.6,49,427.6,50.5L427.6,50.5z M463.1,52.1c0,2.4-1.9,4.3-4.3,4.3h-1.1c0-0.2,0-0.4,0-0.5v-8
		h1.1C461.2,47.8,463.1,49.7,463.1,52.1L463.1,52.1z M446.5,19.9c5.3,0,9.7,4.3,9.7,9.7v6c0,0.1,0,0.2,0,0.2c-1.5-2-3.8-3.2-6.4-3.2
		c-4.4,0-8-3.6-8-8C441.8,22,443.9,19.9,446.5,19.9L446.5,19.9z M411.4,32c0-9,7.3-16.2,16.2-16.2c4.9,0,8.8,4,8.8,8.8
		c0,4.4-3.6,8-8,8h-10.7c-2.6,0-5,1.3-6.4,3.2c0-0.1,0-0.2,0-0.2V32z M408.7,56.3c-2.4,0-4.3-1.9-4.3-4.3c0-2.4,1.9-4.3,4.3-4.3h1.1
		l0,8c0,0.2,0,0.4,0,0.5H408.7z M415.1,54.6v-2.9h2.3c1.1,3.3,4.1,5.7,7.5,5.7c4,0,7.4-3.2,7.9-7.4c0.4-0.3,0.8-0.4,1-0.4h0
		c0.2,0,0.6,0,1,0.4c0.5,4.2,3.9,7.4,7.9,7.4c3.5,0,6.4-2.4,7.5-5.7h2.1v2.9c0,11-8.4,19.9-18.7,19.9
		C423.5,74.5,415.1,65.5,415.1,54.6L415.1,54.6z M433.8,79.8c2.8,0,5.4-0.5,7.9-1.3l0.5,1.5c-1.1,4.9-5.1,6.6-8.4,6.6
		s-7.3-1.7-8.4-6.6l0.5-1.5C428.4,79.3,431,79.8,433.8,79.8L433.8,79.8z M408.1,84.6l12.6-1.9c1.5,4.5,5.6,8,10.4,8.8v4.2l-21.2,0
		v-4.2h-5.3v4.2l-9.6,0C396.8,90,401.9,85.5,408.1,84.6L408.1,84.6z M463.1,95.8v-4.2h-5.3v4.2l-21.3,0v-4.2
		c4.6-0.8,8.9-4.2,10.4-8.9l12.7,1.8c6.2,0.9,11.3,5.3,13.2,11.2L463.1,95.8z M463.1,95.8"/>
</g>
<g>
	<path d="M475.1,284c-1-6.4-5.9-12.1-12-14c3.9-3.7,4.6-11.3-0.5-15.6c-2-1.7-3.4-4-3.9-6.5c3.8-1.2,6.6-4.8,6.6-9
		c0-4.3-2.9-7.9-6.8-9.1v-4.6c0-15.1-12.3-27.3-27.3-27.3c-15.1,0-27.3,12.3-27.3,27.3v4.6c-3.9,1.1-6.8,4.8-6.8,9.1
		c0,4.2,2.8,7.8,6.6,9c-0.5,2.5-1.9,4.8-3.9,6.5c-4.6,3.7-5,11.3-0.6,15.6c-6.3,2.1-11,7.6-12,14.3l-0.4,3h88.9L475.1,284z
		 M454.8,242.5v-7.9h1.1c2.3,0,4.2,1.9,4.2,4.2c0,2.3-1.9,4.2-4.2,4.2h-1.1C454.8,242.9,454.8,242.7,454.8,242.5L454.8,242.5z
		 M459.2,258.4c2.5,1.9,2.2,6.3,0.2,7.9c-1.3,1.1-3.6,1.6-7,1.4l-9.3-1.9l-0.6-2.5c5.2-2.9,9.3-7.8,11.1-13.6
		C454.5,253,456.5,256.1,459.2,258.4L459.2,258.4z M431.1,260.9c-10.1,0-18.4-8.3-18.4-18.4v-7.9h2.6c6.7,0,12.5-3.6,15.8-8.9
		c3.2,5.4,9.1,8.9,15.8,8.9h2.6v7.9C449.5,252.7,441.3,260.9,431.1,260.9L431.1,260.9z M409,225.2c0-12.2,9.9-22.1,22.1-22.1
		c12.2,0,22.1,9.9,22.1,22.1v4.2h-6.3c-7.2,0-13.1-5.9-13.1-13.1h-5.2c0,7.3-5.9,13.1-13.1,13.1H409V225.2z M402.2,238.9
		c0-2.3,1.9-4.2,4.2-4.2h1.1v7.9c0,0.2,0,0.3,0,0.5h-1.1C404.1,243.1,402.2,241.2,402.2,238.9L402.2,238.9z M403,258.4
		c2.7-2.3,4.7-5.4,5.5-8.8c1.8,5.8,5.8,10.7,11.1,13.6l-0.6,2.5l-9.4,1.9c-3.3,0.2-5.6-0.3-6.9-1.4
		C400.8,264.6,400.5,260.2,403,258.4L403,258.4z M393.1,282c1.6-3.8,5-6.6,9.1-7.5l6.8-1.4c2.1,2.8,4.6,6.7,7.4,8.8H393.1z
		 M431.1,282c-7.9-0.1-12.7-4.3-16.5-10l8.8-1.8l1.1-4.9c2.1,0.6,4.3,0.9,6.6,0.9c2.3,0,4.5-0.3,6.6-0.9l1.1,4.9l8.8,1.8
		C443.4,278.5,438.2,281.9,431.1,282L431.1,282z M445.8,282c2.7-2,5.4-6.1,7.4-8.8l6.8,1.4c4.1,0.8,7.5,3.7,9,7.4H445.8z M445.8,282
		"/>
	<path d="M431.1,250.4c-1.7,0.2-3.5-1.5-3.7-2.8l-5.1,1c0.5,2.4,2.9,7,8.8,7c5.9,0,8.3-4.6,8.8-7l-5.1-1
		C434.6,248.9,432.9,250.6,431.1,250.4L431.1,250.4z M431.1,250.4"/>
</g>
</svg>
