<?xml version="1.0" encoding="utf-8"?>
<!-- Generator: Adobe Illustrator 25.0.0, SVG Export Plug-In . SVG Version: 6.00 Build 0)  -->
<svg version="1.1" id="Camada_1" xmlns="http://www.w3.org/2000/svg" xmlns:xlink="http://www.w3.org/1999/xlink" x="0px" y="0px"
	 viewBox="0 0 100 100" style="enable-background:new 0 0 100 100;" xml:space="preserve">
<style type="text/css">
	.st0{clip-path:url(#SVGID_2_);fill:#FFFFFF;}
	.st1{clip-path:url(#SVGID_2_);}
	.st2{fill:#1B181C;}
	.st3{fill:#105FAB;}
	.st4{fill:#BD4A95;}
	.st5{fill:#BE4B96;}
	.st6{clip-path:url(#SVGID_2_);fill:#1B181C;}
</style>
<g>
	<defs>
		<polyline id="SVGID_1_" points="100,94.13 0,94.13 0,4.98 100,4.98 100,94.13 		"/>
	</defs>
	<clipPath id="SVGID_2_">
		<use xlink:href="#SVGID_1_"  style="overflow:visible;"/>
	</clipPath>
	<rect x="-270.09" y="-152.57" class="st0" width="640.06" height="512.05"/>
	<g class="st1">
		<g>
			<path class="st2" d="M-202.55-79.61c0.5,0.14,1.01-0.16,1.14-0.65c0.39-1.43,1.86-2.27,3.29-1.88c1.43,0.39,2.27,1.86,1.89,3.29
				c-0.19,0.69-0.63,1.27-1.26,1.62c-0.62,0.36-1.34,0.45-2.03,0.26c-0.5-0.13-1.01,0.16-1.14,0.65c-0.14,0.5,0.16,1.01,0.66,1.14
				c0.4,0.11,0.8,0.16,1.19,0.16c1.69,0,3.26-0.96,4.04-2.48l6.51,1.77c-0.05,0.88,0.15,1.75,0.59,2.52
				c0.6,1.05,1.58,1.81,2.75,2.12c0.4,0.11,0.8,0.16,1.2,0.16c0.78,0,1.55-0.21,2.25-0.6c1.05-0.6,1.81-1.58,2.12-2.75
				c0.32-1.17,0.16-2.39-0.44-3.45c-0.04-0.07-0.1-0.13-0.14-0.2l4.83-4.8c0.4,0.27,0.84,0.49,1.33,0.62
				c0.4,0.11,0.8,0.16,1.19,0.16c1.69,0,3.27-0.96,4.05-2.48l6.5,1.76c-0.05,0.87,0.15,1.75,0.59,2.52c0.6,1.05,1.58,1.81,2.75,2.12
				c0.4,0.11,0.8,0.16,1.2,0.16c0.07,0,0.14-0.01,0.21-0.01l0.33,1.25c0.11,0.42,0.49,0.69,0.9,0.69c0.08,0,0.16-0.01,0.24-0.03
				c0.5-0.13,0.79-0.64,0.66-1.14l-0.33-1.25c0.08-0.04,0.16-0.07,0.24-0.12c1.05-0.6,1.81-1.58,2.12-2.75
				c0.32-1.17,0.16-2.39-0.44-3.45c-0.6-1.05-1.58-1.81-2.75-2.13c-1.17-0.32-2.39-0.16-3.45,0.44c-0.78,0.45-1.39,1.1-1.79,1.88
				l-7.31-1.98c-0.49-0.13-1,0.16-1.14,0.65c0,0.02-0.01,0.04-0.02,0.06c-0.41,1.39-1.87,2.21-3.27,1.83
				c-1.43-0.39-2.27-1.86-1.88-3.29c0.19-0.69,0.63-1.27,1.25-1.62c0.62-0.36,1.34-0.45,2.03-0.26c0.5,0.13,1.01-0.16,1.14-0.66
				c0.13-0.5-0.16-1.01-0.65-1.14c-1.17-0.32-2.4-0.16-3.45,0.44c-1.05,0.6-1.81,1.58-2.12,2.75c-0.32,1.17-0.16,2.39,0.44,3.45
				c0.03,0.06,0.08,0.11,0.12,0.17l-4.84,4.81c-0.4-0.26-0.82-0.48-1.29-0.6c-2.11-0.57-4.28,0.45-5.23,2.32l-6.5-1.76
				c0.12-2.1-1.23-4.08-3.34-4.65c-2.42-0.66-4.92,0.78-5.57,3.19C-203.34-80.26-203.04-79.75-202.55-79.61z M-160.12-83.1
				c0.19-0.69,0.63-1.27,1.25-1.62c0.41-0.24,0.87-0.36,1.33-0.36c0.24,0,0.47,0.03,0.71,0.1c0.69,0.19,1.27,0.63,1.62,1.25
				c0.36,0.62,0.45,1.34,0.26,2.04c-0.19,0.69-0.63,1.27-1.25,1.62c-0.62,0.36-1.34,0.45-2.03,0.26c-0.69-0.19-1.27-0.63-1.62-1.25
				C-160.22-81.69-160.31-82.41-160.12-83.1z M-186.33-76.18c0.32-1.19,1.41-1.98,2.59-1.98c0.23,0,0.47,0.03,0.7,0.09
				c0.69,0.19,1.27,0.63,1.62,1.25c0.36,0.62,0.45,1.34,0.26,2.03c-0.19,0.69-0.63,1.27-1.25,1.62c-0.62,0.36-1.34,0.45-2.03,0.26
				c-0.69-0.19-1.27-0.63-1.62-1.25C-186.43-74.76-186.52-75.49-186.33-76.18z"/>
			<path class="st2" d="M-159.82-62.37l-2.34,2.33c-0.39-0.26-0.82-0.47-1.28-0.59c-1.17-0.32-2.4-0.16-3.45,0.44
				c-0.78,0.45-1.39,1.1-1.79,1.88l-6.5-1.77c0.12-2.1-1.23-4.08-3.34-4.65c-0.49-0.13-0.98-0.16-1.46-0.13l-0.89-3.35
				c-0.13-0.5-0.64-0.8-1.14-0.66c-0.5,0.13-0.79,0.64-0.66,1.14l0.89,3.36c-1.1,0.56-1.97,1.56-2.32,2.84
				c-0.32,1.17-0.16,2.4,0.44,3.45c0.04,0.06,0.08,0.11,0.12,0.17l-4.84,4.81c-0.39-0.26-0.82-0.48-1.29-0.61
				c-1.17-0.32-2.39-0.16-3.45,0.44c-0.78,0.45-1.39,1.1-1.79,1.88l-6.5-1.76c0.05-0.87-0.15-1.75-0.59-2.52
				c-0.6-1.05-1.58-1.81-2.75-2.12c-1.17-0.32-2.4-0.16-3.45,0.44c-1.05,0.6-1.81,1.58-2.12,2.75c-0.32,1.17-0.16,2.4,0.44,3.45
				c0.6,1.05,1.58,1.81,2.75,2.12c0.08,0.02,0.16,0.03,0.25,0.03c0.41,0,0.79-0.27,0.9-0.69c0.13-0.5-0.16-1.01-0.66-1.14
				c-0.69-0.19-1.27-0.63-1.62-1.25c-0.36-0.62-0.45-1.34-0.26-2.03c0.19-0.69,0.63-1.27,1.25-1.62c0.62-0.35,1.34-0.45,2.03-0.26
				c0.69,0.19,1.27,0.63,1.62,1.25c0.36,0.62,0.45,1.34,0.26,2.03c-0.14,0.5,0.16,1.01,0.65,1.14l7.3,1.98
				c-0.05,0.87,0.15,1.75,0.59,2.52c0.6,1.05,1.58,1.81,2.75,2.12c0.4,0.11,0.8,0.16,1.19,0.16c0.08,0,0.16-0.01,0.24-0.02
				l1.73,6.53c-0.05,0.03-0.11,0.04-0.16,0.07c-1.05,0.6-1.81,1.58-2.13,2.75c-0.66,2.42,0.78,4.92,3.19,5.57
				c0.4,0.11,0.8,0.16,1.19,0.16c2,0,3.84-1.33,4.38-3.35c0.32-1.17,0.16-2.4-0.44-3.45s-1.58-1.81-2.75-2.12
				c-0.49-0.14-1-0.17-1.49-0.13l-1.72-6.51c1.11-0.56,2-1.57,2.35-2.86c0.35-1.29,0.09-2.6-0.59-3.65l4.83-4.8
				c0.4,0.27,0.84,0.49,1.33,0.62c0.4,0.11,0.8,0.16,1.2,0.16c0.78,0,1.55-0.2,2.25-0.6c0.78-0.45,1.39-1.1,1.79-1.88l6.5,1.76
				c-0.05,0.88,0.15,1.75,0.59,2.52c0.6,1.05,1.58,1.81,2.75,2.12c0.08,0.02,0.16,0.03,0.24,0.03c0.41,0,0.79-0.27,0.9-0.69
				c0.13-0.5-0.16-1.01-0.66-1.14c-0.69-0.19-1.27-0.63-1.62-1.25c-0.36-0.62-0.45-1.34-0.26-2.03c0.19-0.69,0.63-1.27,1.26-1.62
				c0.62-0.36,1.34-0.44,2.03-0.26c0.69,0.19,1.27,0.63,1.62,1.25c0.36,0.62,0.45,1.34,0.26,2.03c-0.14,0.5,0.16,1.01,0.65,1.14
				c0.5,0.13,1.01-0.16,1.14-0.65c0.32-1.17,0.16-2.39-0.44-3.45c-0.04-0.08-0.1-0.14-0.15-0.21l2.34-2.32
				c0.36-0.36,0.37-0.95,0-1.32C-158.87-62.72-159.46-62.73-159.82-62.37z M-188.12-36.59c0.41-0.24,0.87-0.36,1.33-0.36
				c0.24,0,0.47,0.03,0.71,0.09c0.69,0.19,1.27,0.63,1.62,1.25c0.35,0.62,0.45,1.34,0.26,2.04c-0.39,1.42-1.87,2.27-3.29,1.88
				c-1.43-0.39-2.27-1.86-1.89-3.29C-189.18-35.65-188.74-36.23-188.12-36.59z M-188.26-48.63c-0.39,1.43-1.86,2.27-3.29,1.89
				c-0.69-0.19-1.27-0.63-1.62-1.25c-0.36-0.62-0.45-1.34-0.26-2.03c0.19-0.69,0.63-1.27,1.25-1.62c0.41-0.24,0.87-0.35,1.33-0.35
				c0.24,0,0.47,0.03,0.71,0.09C-188.72-51.53-187.87-50.05-188.26-48.63z M-177.12-59.64c-0.19,0.69-0.63,1.27-1.25,1.62
				c-0.62,0.35-1.34,0.45-2.03,0.26c-0.69-0.19-1.27-0.63-1.62-1.25c-0.36-0.62-0.45-1.34-0.26-2.04c0.32-1.19,1.41-1.98,2.59-1.98
				c0.23,0,0.47,0.03,0.7,0.09C-177.58-62.54-176.73-61.07-177.12-59.64z"/>
			<path class="st2" d="M-149.61-69.54c-0.6-1.05-1.58-1.81-2.75-2.13c-0.48-0.13-0.95-0.16-1.42-0.13l-0.35-1.34
				c-0.13-0.5-0.64-0.79-1.14-0.66c-0.5,0.13-0.79,0.64-0.66,1.14l0.35,1.34c-1.11,0.56-2,1.56-2.35,2.85
				c-0.32,1.17-0.16,2.4,0.44,3.45c0.6,1.05,1.58,1.81,2.75,2.12c0.4,0.11,0.8,0.16,1.2,0.16c0.78,0,1.55-0.21,2.25-0.6
				c1.05-0.6,1.81-1.58,2.12-2.75C-148.85-67.26-149.01-68.49-149.61-69.54z M-150.97-66.58c-0.19,0.69-0.63,1.27-1.25,1.62
				c-0.62,0.35-1.34,0.45-2.03,0.26c-0.69-0.19-1.27-0.63-1.62-1.25c-0.36-0.62-0.45-1.34-0.26-2.03c0.32-1.19,1.41-1.98,2.59-1.98
				c0.23,0,0.47,0.03,0.7,0.09c0.69,0.19,1.27,0.63,1.62,1.25C-150.87-67.99-150.78-67.27-150.97-66.58z"/>
		</g>
		<g>
			<path class="st2" d="M-92.11-77.3c0.36,0.36,0.95,0.36,1.32,0c0.36-0.36,0.36-0.95,0-1.32l-0.92-0.92
				c-1.15-1.15-1.76-2.76-1.65-4.4c0.1-1.66,0.89-3.14,2.2-4.16c2.26-1.76,5.59-1.46,7.74,0.69l11.72,11.72
				c0.18,0.18,0.42,0.27,0.66,0.27s0.48-0.09,0.66-0.27c0.36-0.36,0.36-0.95,0-1.32l-11.72-11.72c-2.81-2.81-7.2-3.17-10.19-0.85
				c-1.72,1.34-2.79,3.35-2.92,5.52c-0.14,2.18,0.66,4.3,2.2,5.83L-92.11-77.3z"/>
			<path class="st2" d="M-86.96-83.88l5.85,5.85c0.18,0.18,0.42,0.27,0.66,0.27c0.24,0,0.48-0.09,0.66-0.27
				c0.36-0.36,0.36-0.95,0-1.32l-5.85-5.85c-0.61-0.61-1.24-1.19-1.88-1.72c-0.4-0.33-0.98-0.28-1.31,0.12
				c-0.33,0.4-0.28,0.98,0.12,1.31C-88.12-84.99-87.53-84.45-86.96-83.88z"/>
			<path class="st2" d="M-65.7-75.43c-0.36-0.36-0.95-0.36-1.32,0L-71.44-71l-5.21-5.21c-0.36-0.36-0.95-0.36-1.32,0
				c-0.36,0.36-0.36,0.95,0,1.32l5.21,5.21l-4.56,4.56l-10.35-10.35c-0.36-0.36-0.95-0.36-1.32,0c-0.36,0.36-0.36,0.95,0,1.32
				l10.35,10.35l-0.91,0.91c-0.36,0.36-0.36,0.95,0,1.32c0.18,0.18,0.42,0.27,0.66,0.27c0.24,0,0.48-0.09,0.66-0.27l9.13-9.13
				l9.32,9.32c0.18,0.18,0.42,0.27,0.66,0.27c0.24,0,0.48-0.09,0.66-0.27c0.36-0.36,0.36-0.95,0-1.32l-9.32-9.32l2.08-2.08
				C-65.33-74.48-65.33-75.07-65.7-75.43z"/>
			<path class="st2" d="M-72.35-62.51c-0.36-0.36-0.95-0.36-1.32,0c-0.36,0.36-0.36,0.95,0,1.32l10.76,10.76
				c0.03,0.03,0.16,0.12,0.19,0.15l8.02,4.82c0.15,0.09,0.32,0.13,0.48,0.13c0.32,0,0.62-0.16,0.8-0.45
				c0.26-0.44,0.12-1.01-0.32-1.28l-7.92-4.75L-72.35-62.51z"/>
			<path class="st2" d="M-48.81-46.56c0.16,0,0.33-0.04,0.48-0.13c0.44-0.27,0.59-0.84,0.32-1.28l-6.43-10.71l-0.01-0.01
				c-0.31-0.41-0.91-0.53-1.32-0.22c-0.41,0.31-0.52,0.86-0.21,1.27l6.38,10.63C-49.43-46.72-49.12-46.56-48.81-46.56z"/>
			<path class="st2" d="M-50.17-45.65c-0.36-0.34-0.92-0.34-1.28,0c-0.6,0.56-5.83,5.62-5.83,9.53c0,3.57,2.9,6.47,6.47,6.47
				c3.57,0,6.47-2.9,6.47-6.47C-44.34-40-49.57-45.08-50.17-45.65z M-50.81-31.52c-2.54,0-4.6-2.07-4.6-4.61
				c0-2.31,2.9-5.78,4.6-7.54c1.7,1.76,4.61,5.25,4.61,7.54C-46.2-33.58-48.27-31.52-50.81-31.52z"/>
			<path class="st2" d="M-43.43-91.09h-33.51c-0.51,0-0.93,0.42-0.93,0.93c0,0.51,0.42,0.93,0.93,0.93h33.51
				c4.28,0,7.76,3.48,7.76,7.76v5.55v2.48c0,0.51,0.42,0.93,0.93,0.93c0.51,0,0.93-0.42,0.93-0.93v-2.48v-5.55
				C-33.81-86.78-38.12-91.09-43.43-91.09z"/>
			<path class="st2" d="M-34.74-55.1c-0.51,0-0.93,0.42-0.93,0.93v2.48v12.41c0,3.35-2.14,6.31-5.31,7.36
				c-0.49,0.16-0.75,0.69-0.59,1.18c0.13,0.39,0.49,0.64,0.88,0.64c0.1,0,0.2-0.01,0.29-0.05c3.94-1.31,6.59-4.98,6.59-9.13v-12.41
				v-2.48C-33.81-54.68-34.22-55.1-34.74-55.1z"/>
			<path class="st2" d="M-34.74-67.49c-0.51,0-0.93,0.42-0.93,0.93v5.51c0,0.52,0.42,0.93,0.93,0.93c0.51,0,0.93-0.42,0.93-0.93
				v-5.51C-33.81-67.07-34.22-67.49-34.74-67.49z"/>
			<path class="st2" d="M-60.81-31.52h-24.82c-4.28,0-7.76-3.48-7.76-7.76c0-0.51-0.42-0.93-0.93-0.93c-0.51,0-0.93,0.42-0.93,0.93
				c0,5.3,4.32,9.62,9.62,9.62h24.82c0.51,0,0.93-0.42,0.93-0.93C-59.88-31.1-60.29-31.52-60.81-31.52z"/>
			<path class="st2" d="M-94.32-44.55c0.51,0,0.93-0.42,0.93-0.93v-27.31c0-0.51-0.42-0.93-0.93-0.93c-0.51,0-0.93,0.42-0.93,0.93
				v27.31C-95.25-44.97-94.83-44.55-94.32-44.55z"/>
		</g>
		<g>
			<path class="st2" d="M68.69-85.91c-0.38-0.34-0.97-0.3-1.31,0.08c-0.34,0.39-0.3,0.98,0.08,1.32c4.08,3.6,6.42,8.77,6.42,14.21
				c0,3.38-0.9,6.69-2.61,9.59c-0.26,0.44-0.12,1.01,0.33,1.27c0.15,0.09,0.31,0.13,0.47,0.13c0.32,0,0.63-0.16,0.8-0.46
				c1.88-3.18,2.87-6.83,2.87-10.54C75.74-76.27,73.17-81.96,68.69-85.91z"/>
			<path class="st2" d="M69.81-45.79c0.51,0,0.93-0.42,0.93-0.93c0-0.52-0.42-0.93-0.93-0.93h-1.55v-2.02c0-2.23,0.6-4.34,1.73-6.1
				c0.28-0.43,0.15-1.01-0.28-1.29c-0.44-0.28-1.01-0.15-1.29,0.28c-1.32,2.06-2.02,4.52-2.02,7.11v2.02h-5.88v-2.02
				c0-2.84,0.35-5.51,0.99-7.51c1.17-3.67,1.81-8.33,1.81-13.12c0-0.52-0.42-0.93-0.93-0.93c-0.51,0-0.93,0.42-0.93,0.93
				c0,4.6-0.61,9.06-1.73,12.56c-0.69,2.18-1.08,5.04-1.08,8.07v2.02h-7.45v-2.08c0-3.02-0.38-5.87-1.07-8.04
				c-0.24-0.76-0.46-1.56-0.64-2.38c-0.12-0.5-0.61-0.82-1.12-0.7c-0.5,0.12-0.81,0.62-0.7,1.12c0.2,0.87,0.43,1.72,0.69,2.53
				c0.63,1.99,0.98,4.65,0.98,7.48v2.08h-5.91v-2.08c0-2.53-0.67-4.94-1.93-6.97c-0.27-0.43-0.85-0.57-1.28-0.3
				c-0.44,0.27-0.57,0.85-0.3,1.28c1.08,1.74,1.65,3.81,1.65,5.99v2.08h-1.55c-0.51,0-0.93,0.42-0.93,0.93
				c0,0.52,0.42,0.93,0.93,0.93h0.89c0.62,0.53,0.97,1.19,0.97,1.86c0,0.68-0.35,1.33-0.97,1.86h-0.89c-0.51,0-0.93,0.42-0.93,0.93
				c0,0.51,0.42,0.93,0.93,0.93h0.89c0.62,0.54,0.97,1.19,0.97,1.86c0,0.68-0.35,1.33-0.97,1.86h-0.89c-0.51,0-0.93,0.42-0.93,0.93
				c0,0.51,0.42,0.93,0.93,0.93h4.13c0.45,2.81,2.87,4.97,5.8,4.97h9.93c2.93,0,5.35-2.16,5.8-4.97l4.13,0
				c0.51,0,0.93-0.42,0.93-0.93c0-0.51-0.42-0.93-0.93-0.93h-0.89c-0.62-0.54-0.97-1.19-0.97-1.86c0-0.68,0.35-1.33,0.97-1.86h0.89
				c0.51,0,0.93-0.42,0.93-0.93c0-0.52-0.42-0.93-0.93-0.93h-0.89c-0.62-0.54-0.97-1.19-0.97-1.86c0-0.68,0.35-1.33,0.97-1.86H69.81
				z M54.4-40.21h12.18c-0.31,0.58-0.49,1.21-0.49,1.86c0,0.65,0.17,1.28,0.47,1.86h-4.8c-0.51,0-0.93,0.42-0.93,0.93
				c0,0.51,0.42,0.93,0.93,0.93h2.01c-0.42,1.77-1.99,3.1-3.9,3.1h-9.93c-1.9,0-3.49-1.33-3.92-3.11l10.76,0
				c0.51,0,0.93-0.42,0.93-0.93c0-0.51-0.42-0.93-0.93-0.93l-13.56,0c0.31-0.58,0.5-1.2,0.5-1.86c0-0.66-0.18-1.28-0.49-1.86h6.19
				c0.52,0,0.93-0.42,0.93-0.93c0-0.52-0.42-0.93-0.93-0.93h-6.19c0.31-0.58,0.5-1.2,0.5-1.86c0-0.66-0.18-1.28-0.49-1.86h23.33
				c-0.31,0.58-0.49,1.21-0.49,1.86c0,0.66,0.18,1.28,0.49,1.86l-12.19,0c-0.51,0-0.93,0.42-0.93,0.93
				C53.47-40.62,53.88-40.21,54.4-40.21z"/>
			<path class="st2" d="M50.91-72.79c0-0.85-0.08-1.71-0.24-2.53c-0.1-0.51-0.58-0.84-1.09-0.74c-0.51,0.1-0.84,0.59-0.74,1.09
				c0.14,0.71,0.21,1.45,0.21,2.18c0,6.33-5.15,11.48-11.48,11.48c-6.33,0-11.48-5.15-11.48-11.48c0-6.33,5.15-11.48,11.48-11.48
				c2.3,0,4.52,0.68,6.42,1.96c0.43,0.29,1.01,0.18,1.29-0.25c0.29-0.43,0.18-1.01-0.25-1.29c-0.64-0.43-1.32-0.8-2.01-1.11
				c3.37-2.75,7.54-4.27,11.93-4.27c2.98,0,5.83,0.67,8.47,2c0.46,0.23,1.02,0.04,1.25-0.42c0.23-0.46,0.04-1.02-0.42-1.25
				c-2.9-1.46-6.03-2.19-9.3-2.19c-5.2,0-10.13,1.93-13.97,5.41c-1.11-0.29-2.25-0.45-3.41-0.45c-7.36,0-13.34,5.99-13.34,13.34
				c0,7.36,5.99,13.34,13.34,13.34C44.92-59.45,50.91-65.43,50.91-72.79z"/>
			<path class="st2" d="M47.18-80.42L35.6-68.84l-4.22-4.22c-0.36-0.36-0.95-0.36-1.32,0c-0.36,0.36-0.36,0.95,0,1.32l4.88,4.88
				c0.17,0.17,0.41,0.27,0.66,0.27c0.25,0,0.48-0.1,0.66-0.27L48.5-79.1c0.36-0.36,0.36-0.95,0-1.32
				C48.13-80.78,47.54-80.78,47.18-80.42z"/>
		</g>
		<g>
			<path class="st2" d="M148.83-57.29c0.14,0.07,0.28,0.11,0.43,0.11c0.34,0,0.66-0.18,0.83-0.5c3.1-5.97,9.2-9.67,15.91-9.67
				c1.28,0,2.56,0.14,3.8,0.41c0,0,0,0,0,0c0.38,0.08,0.77,0.18,1.14,0.29c0.09,0.02,0.17,0.04,0.26,0.04c0.41,0,0.78-0.27,0.9-0.67
				c0.14-0.5-0.14-1.01-0.64-1.15c-0.42-0.12-0.84-0.23-1.26-0.32l0,0c-1.37-0.3-2.78-0.45-4.2-0.45c-7.41,0-14.14,4.09-17.57,10.67
				C148.19-58.09,148.37-57.53,148.83-57.29z"/>
			<path class="st2" d="M175.74-64.48c0.59,0.38,1.16,0.8,1.7,1.25c0.17,0.14,0.38,0.21,0.6,0.21c0.27,0,0.53-0.11,0.72-0.34
				c0.33-0.4,0.27-0.98-0.12-1.31c-0.6-0.5-1.24-0.97-1.88-1.39c-0.43-0.28-1.01-0.16-1.29,0.28
				C175.19-65.33,175.31-64.76,175.74-64.48z"/>
			<path class="st2" d="M183.2-59.21C183.2-59.21,183.2-59.21,183.2-59.21c-0.22-0.38-0.44-0.75-0.68-1.11
				c-0.28-0.43-0.86-0.55-1.29-0.26c-0.43,0.28-0.55,0.86-0.26,1.29c0.22,0.33,0.42,0.66,0.61,1c0,0,0,0,0,0
				c1.53,2.68,2.33,5.74,2.33,8.85c0,1.57-0.2,3.12-0.6,4.63c-0.13,0.5,0.16,1.01,0.66,1.14c0.08,0.02,0.16,0.03,0.24,0.03
				c0.41,0,0.79-0.28,0.9-0.69c0.44-1.66,0.66-3.38,0.66-5.1C185.78-52.87,184.89-56.24,183.2-59.21z"/>
			<path class="st2" d="M182.85-40.92c-0.45-0.26-1.02-0.1-1.27,0.35c-3.18,5.59-9.16,9.06-15.58,9.06
				c-9.88,0-17.92-8.04-17.92-17.92c0-1.27,0.13-2.53,0.39-3.76c0.11-0.5-0.21-1-0.72-1.1c-0.51-0.11-1,0.21-1.1,0.72
				c-0.29,1.36-0.44,2.75-0.44,4.15c0,10.91,8.88,19.78,19.78,19.78c7.09,0,13.68-3.83,17.2-10
				C183.45-40.1,183.29-40.67,182.85-40.92z"/>
			<path class="st2" d="M165.06-38.27c0,0.51,0.42,0.93,0.93,0.93c6.67,0,12.1-5.43,12.1-12.1c0-0.51-0.42-0.93-0.93-0.93
				s-0.93,0.42-0.93,0.93c0,5.65-4.59,10.24-10.24,10.24C165.48-39.2,165.06-38.78,165.06-38.27z"/>
			<path class="st2" d="M168.78-79.04h-1.85v-11.13c0-0.51-0.42-0.93-0.93-0.93c-0.51,0-0.93,0.42-0.93,0.93v11.13h-1.85l2.79,4.82
				L168.78-79.04z"/>
			<path class="st2" d="M155.12-72.83h-1.85v-4.36c0-0.51-0.42-0.93-0.93-0.93s-0.93,0.42-0.93,0.93v4.36h-1.86l2.79,4.82
				L155.12-72.83z"/>
			<path class="st2" d="M152.34-81.22c0.51,0,0.93-0.42,0.93-0.93v-4.29c0-0.51-0.42-0.93-0.93-0.93s-0.93,0.42-0.93,0.93v4.29
				C151.41-81.64,151.83-81.22,152.34-81.22z"/>
			<path class="st2" d="M181.2-72.83h-1.86v-11.13c0-0.51-0.42-0.93-0.93-0.93c-0.51,0-0.93,0.42-0.93,0.93v11.13h-1.85l2.79,4.82
				L181.2-72.83z"/>
		</g>
		<g>
			<path class="st2" d="M310.78-66.12c-0.51,0-0.93,0.42-0.93,0.93v33.53H293.4c-0.51,0-0.93,0.42-0.93,0.93
				c0,0.51,0.42,0.93,0.93,0.93h17.38c0.51,0,0.93-0.42,0.93-0.93v-34.46C311.71-65.71,311.29-66.12,310.78-66.12z"/>
			<path class="st2" d="M310.78-86.73h-3.27c-0.51,0-0.93,0.42-0.93,0.93c0,0.51,0.42,0.93,0.93,0.93h2.34v14.71
				c0,0.51,0.42,0.93,0.93,0.93c0.51,0,0.93-0.42,0.93-0.93v-15.64C311.71-86.31,311.29-86.73,310.78-86.73z"/>
			<path class="st2" d="M288.43-31.66h-6.52v-1.25l0,0c0-1.76,1.44-3.2,3.2-3.2h18.21c0.51,0,0.93-0.42,0.93-0.93v-5.42
				c0-0.51-0.42-0.93-0.93-0.93c-0.51,0-0.93,0.42-0.93,0.93v4.49h-17.28c-1.22,0-2.32,0.45-3.2,1.17v-49.09
				c0-1.77,1.44-3.2,3.2-3.2h17.28v41.66c0,0.51,0.42,0.93,0.93,0.93c0.51,0,0.93-0.42,0.93-0.93v-42.59c0-0.52-0.42-0.93-0.93-0.93
				h-18.21c-1.71,0-3.21,0.86-4.13,2.15c-0.92-1.3-2.42-2.15-4.13-2.15h-3.32c-0.51,0-0.93,0.42-0.93,0.93
				c0,0.51,0.42,0.93,0.93,0.93h3.32c1.77,0,3.2,1.44,3.2,3.2v49.06c-0.87-0.71-1.99-1.14-3.2-1.14h-17.28v-51.11h9
				c0.51,0,0.93-0.42,0.93-0.93c0-0.52-0.42-0.93-0.93-0.93h-9.93c-0.51,0-0.93,0.42-0.93,0.93v3.3h-6.52
				c-0.51,0-0.93,0.42-0.93,0.93v50.1c0,0.52,0.42,0.93,0.93,0.93c0.51,0,0.93-0.42,0.93-0.93v-49.16h5.59v47.82
				c0,0.51,0.42,0.93,0.93,0.93h18.21c1.76,0,3.2,1.44,3.2,3.2v1.25h-28.86c-0.51,0-0.93,0.42-0.93,0.93c0,0.51,0.42,0.93,0.93,0.93
				h37.24c0.51,0,0.93-0.42,0.93-0.93C289.36-31.25,288.94-31.66,288.43-31.66z"/>
			<path class="st2" d="M276.33-82.57c0-0.51-0.42-0.93-0.93-0.93h-11.17c-0.51,0-0.93,0.42-0.93,0.93v2.55
				c0,0.51,0.42,0.93,0.93,0.93c0.51,0,0.93-0.42,0.93-0.93v-1.62h9.31v10.55h-9.31v-5.21c0-0.51-0.42-0.93-0.93-0.93
				c-0.51,0-0.93,0.42-0.93,0.93v6.14c0,0.51,0.42,0.93,0.93,0.93h11.17c0.51,0,0.93-0.42,0.93-0.93V-82.57z"/>
			<path class="st2" d="M275.4-64.88h-4.9c-0.51,0-0.93,0.42-0.93,0.93c0,0.51,0.42,0.93,0.93,0.93h4.9c0.51,0,0.93-0.42,0.93-0.93
				C276.33-64.46,275.91-64.88,275.4-64.88z"/>
			<path class="st2" d="M264.23-63.02h2.54c0.51,0,0.93-0.42,0.93-0.93c0-0.51-0.42-0.93-0.93-0.93h-2.54
				c-0.51,0-0.93,0.42-0.93,0.93C263.29-63.44,263.71-63.02,264.23-63.02z"/>
			<path class="st2" d="M275.4-58.67h-1.59c-0.51,0-0.93,0.42-0.93,0.93c0,0.51,0.42,0.93,0.93,0.93h1.59
				c0.51,0,0.93-0.42,0.93-0.93C276.33-58.26,275.91-58.67,275.4-58.67z"/>
			<path class="st2" d="M264.23-56.81h5.85c0.51,0,0.93-0.42,0.93-0.93c0-0.51-0.42-0.93-0.93-0.93h-5.85
				c-0.51,0-0.93,0.42-0.93,0.93C263.29-57.23,263.71-56.81,264.23-56.81z"/>
			<path class="st2" d="M276.33-51.54c0-0.51-0.42-0.93-0.93-0.93h-11.17c-0.51,0-0.93,0.42-0.93,0.93c0,0.51,0.42,0.93,0.93,0.93
				h11.17C275.91-50.61,276.33-51.02,276.33-51.54z"/>
			<path class="st2" d="M264.23-46.26c-0.51,0-0.93,0.42-0.93,0.93c0,0.51,0.42,0.93,0.93,0.93h8.69c0.51,0,0.93-0.42,0.93-0.93
				c0-0.51-0.42-0.93-0.93-0.93H264.23z"/>
			<path class="st2" d="M297.74-83.5h-11.17c-0.51,0-0.93,0.42-0.93,0.93c0,0.52,0.42,0.93,0.93,0.93h11.17
				c0.51,0,0.93-0.42,0.93-0.93C298.67-83.09,298.26-83.5,297.74-83.5z"/>
			<path class="st2" d="M286.57-75.43h6.21c0.52,0,0.93-0.42,0.93-0.93c0-0.51-0.42-0.93-0.93-0.93h-6.21
				c-0.51,0-0.93,0.42-0.93,0.93C285.64-75.85,286.06-75.43,286.57-75.43z"/>
			<path class="st2" d="M297.74-71.09h-11.17c-0.51,0-0.93,0.42-0.93,0.93c0,0.51,0.42,0.93,0.93,0.93h11.17
				c0.51,0,0.93-0.42,0.93-0.93C298.67-70.67,298.26-71.09,297.74-71.09z"/>
			<path class="st2" d="M297.74-64.88h-4.35c-0.51,0-0.93,0.42-0.93,0.93c0,0.51,0.42,0.93,0.93,0.93h4.35
				c0.51,0,0.93-0.42,0.93-0.93C298.67-64.46,298.26-64.88,297.74-64.88z"/>
			<path class="st2" d="M286.57-63.02h3.1c0.51,0,0.93-0.42,0.93-0.93c0-0.51-0.42-0.93-0.93-0.93h-3.1c-0.51,0-0.93,0.42-0.93,0.93
				C285.64-63.44,286.06-63.02,286.57-63.02z"/>
			<path class="st2" d="M297.43-57.74c0-0.51-0.42-0.93-0.93-0.93h-9.93c-0.51,0-0.93,0.42-0.93,0.93c0,0.51,0.42,0.93,0.93,0.93
				h9.93C297.01-56.81,297.43-57.23,297.43-57.74z"/>
			<path class="st2" d="M295.32-50.61h2.42c0.51,0,0.93-0.42,0.93-0.93c0-0.51-0.42-0.93-0.93-0.93h-2.42
				c-0.51,0-0.93,0.42-0.93,0.93C294.39-51.02,294.81-50.61,295.32-50.61z"/>
			<path class="st2" d="M286.57-50.61h5.03c0.51,0,0.93-0.42,0.93-0.93c0-0.51-0.42-0.93-0.93-0.93h-5.03
				c-0.51,0-0.93,0.42-0.93,0.93C285.64-51.02,286.06-50.61,286.57-50.61z"/>
			<path class="st2" d="M286.57-44.4h6.21c0.52,0,0.93-0.42,0.93-0.93c0-0.51-0.42-0.93-0.93-0.93h-6.21
				c-0.51,0-0.93,0.42-0.93,0.93C285.64-44.81,286.06-44.4,286.57-44.4z"/>
		</g>
		<g>
			<path class="st2" d="M-195.65,31.83c0.98-0.29,1.99-0.35,3.01-0.19c2.05,0.33,3.78,1.54,4.81,3.33c-0.06,0.7-0.05,1.37,0.02,2.01
				c-0.86,0.01-2.01,0.17-3.03,0.86c-1.12,0.75-1.82,1.93-2.09,3.51c-0.09,0.51,0.25,0.99,0.76,1.08c0.05,0.01,0.11,0.01,0.16,0.01
				c0.45,0,0.84-0.32,0.92-0.77c0.18-1.05,0.61-1.81,1.29-2.27c0.81-0.55,1.8-0.58,2.4-0.54c0.15,0.41,0.33,0.79,0.55,1.14
				l0.17,0.27c0.56,0.88,1.05,1.63,0.08,3.11c-0.28,0.43-0.16,1.01,0.27,1.29c0.16,0.1,0.33,0.15,0.51,0.15
				c0.3,0,0.6-0.15,0.78-0.42c1.62-2.48,0.52-4.21-0.07-5.13l-0.15-0.24c-0.81-1.32-0.82-3.01-0.68-4.18v0
				c0.01-0.11,0.03-0.23,0.05-0.34c0.68-4.22,4.67-7.08,8.87-6.42c3.55,0.57,6.27,3.57,6.5,7.15c0,0.95-0.33,1.33-0.79,1.87
				c-0.37,0.43-0.8,0.93-1,1.7c-2.12-0.87-5.37-1.29-8.02,1.18c-0.38,0.35-0.4,0.94-0.05,1.32c0.18,0.2,0.43,0.3,0.68,0.3
				c0.23,0,0.46-0.08,0.63-0.25c2.56-2.38,5.65-1.07,6.72-0.5c-0.04,2.15-2.75,3.42-2.8,3.45c-0.47,0.21-0.68,0.76-0.47,1.23
				c0.15,0.35,0.5,0.55,0.85,0.55c0.13,0,0.26-0.03,0.38-0.08c0.18-0.08,4.41-2.02,3.86-5.83c-0.14-0.95,0.14-1.27,0.63-1.84
				c0.53-0.61,1.25-1.45,1.25-3.09c0,0,0-0.04,0-0.06c-0.26-4.46-3.65-8.21-8.06-8.92c-2.53-0.41-5.07,0.2-7.15,1.7
				c-1.6,1.16-2.78,2.74-3.42,4.57c-1.3-1.43-3.05-2.39-5.02-2.7c-1.3-0.21-2.59-0.13-3.83,0.24c-0.49,0.15-0.77,0.67-0.63,1.16
				C-196.66,31.69-196.13,31.98-195.65,31.83z"/>
			<path class="st2" d="M-155.16,41.91c0.03-0.13,0.05-0.26,0.07-0.39c0.76-4.72-2.47-9.18-7.19-9.94
				c-1.14-0.18-2.28-0.14-3.39,0.13c-0.5,0.12-0.81,0.62-0.69,1.12c0.12,0.5,0.62,0.8,1.12,0.69c0.87-0.21,1.77-0.24,2.66-0.1
				c1.8,0.29,3.37,1.26,4.44,2.73c1.07,1.48,1.5,3.28,1.21,5.07c-0.02,0.1-0.05,0.19-0.07,0.29c-0.81-0.1-1.68-0.09-2.49,0.12
				c-0.56-1.67-1.97-3.81-4.76-4.16c-0.52-0.07-0.98,0.3-1.04,0.81c-0.07,0.51,0.3,0.98,0.81,1.04c2.21,0.28,3.03,2.19,3.31,3.14
				c-0.25,0.2-0.49,0.43-0.7,0.71c-1.24,1.69-3.69,1.06-3.82,1.02c-0.5-0.14-1.01,0.15-1.15,0.65c-0.14,0.5,0.15,1.01,0.64,1.15
				c0.07,0.02,0.76,0.21,1.7,0.21c1.26,0,2.96-0.34,4.12-1.92c1.03-1.4,3.33-0.9,3.9-0.76c0,0,0,0,0,0c3.62,0.65,6.1,4.14,5.52,7.78
				c-0.15,0.91-0.47,1.76-0.95,2.53c-0.27,0.44-0.14,1.01,0.3,1.28c0.15,0.09,0.32,0.14,0.49,0.14c0.31,0,0.61-0.16,0.79-0.44
				c0.61-0.98,1.02-2.07,1.21-3.23C-148.43,47.29-151.09,43.15-155.16,41.91z"/>
			<path class="st2" d="M-208.46,49.4c0.6-3.74,3.05-6.85,6.48-8.35c0.65,2.17,1.92,3.83,3.61,4.63c0.18,0.09,0.37,0.17,0.57,0.25
				c0.9,0.39,1.78,0.78,2.33,1.75c-2.03,0.41-4.62,1.84-4.91,5.37c-0.04,0.51,0.34,0.96,0.85,1.01c0.03,0,0.05,0,0.08,0
				c0.48,0,0.89-0.37,0.93-0.85c0.23-2.79,2.38-3.53,3.58-3.73c0.05,0.46,0.07,0.98,0.05,1.59c-0.02,0.51,0.38,0.95,0.89,0.97
				c0.01,0,0.03,0,0.04,0c0.5,0,0.91-0.39,0.93-0.89c0.21-5.1-2.33-6.2-4.01-6.93c-0.18-0.08-0.35-0.15-0.51-0.23
				c-1.39-0.66-2.45-2.29-2.84-4.36c0,0,0,0,0,0c0-0.03-0.01-0.05-0.02-0.08c-0.13-0.75-0.14-1.51-0.02-2.27
				c0.16-0.98,0.51-1.89,1.06-2.71c0.29-0.43,0.17-1.01-0.26-1.29c-0.43-0.29-1-0.17-1.29,0.26c-0.7,1.04-1.15,2.2-1.35,3.45
				c-0.12,0.73-0.14,1.45-0.07,2.17c-4.2,1.69-7.22,5.43-7.94,9.94c-0.34,2.1-0.15,4.27,0.55,6.27c0.13,0.38,0.49,0.63,0.88,0.63
				c0.1,0,0.2-0.02,0.31-0.05c0.49-0.17,0.74-0.7,0.57-1.19C-208.58,53.06-208.74,51.2-208.46,49.4z"/>
			<path class="st2" d="M-155.4,56.63c-1.07,0.38-2.23,0.49-3.36,0.31c-1.89-0.3-3.53-1.37-4.58-2.94c0.13-0.38,0.25-0.76,0.33-1.16
				c0.6-0.36,2.09-1.12,3.86-1.03c0.47,0.03,0.95-0.38,0.97-0.89c0.02-0.51-0.37-0.95-0.89-0.97c-1.49-0.07-2.81,0.32-3.75,0.72
				c-0.01-0.15,0-0.3-0.01-0.44c-0.05-0.51-0.49-0.89-1.02-0.84c-0.51,0.05-0.89,0.5-0.84,1.02c0.05,0.57,0.03,1.14-0.06,1.71
				c-0.09,0.57-0.25,1.12-0.47,1.63c0,0,0,0,0,0c-1.24,2.86-4.25,4.5-7.33,4.01c-0.69-0.11-1.34-0.32-1.95-0.63
				c0.54-1.16,1.21-3.11,0.45-5.04c-0.04-0.09-0.08-0.16-0.12-0.25c1.04-0.62,3.22-1.56,5.43-0.24c0.44,0.26,1.01,0.12,1.28-0.33
				c0.26-0.44,0.12-1.01-0.32-1.28c-3.15-1.88-6.13-0.51-7.47,0.32c-0.21-0.19-0.41-0.36-0.59-0.51c-0.67-0.53-0.89-0.71-0.7-1.8
				c0.09-0.51-0.24-0.99-0.75-1.08c-0.51-0.09-0.99,0.25-1.08,0.75c-0.39,2.18,0.58,2.95,1.36,3.58c0.48,0.38,0.93,0.74,1.23,1.51
				c0.66,1.65-0.36,3.53-0.74,4.24l-0.02,0.04c0,0,0,0,0,0c-0.01,0.02-0.02,0.03-0.03,0.05c-1.39,2.5-4.21,3.87-7.04,3.43
				c-1.31-0.21-2.52-0.82-3.49-1.7c0.86-1,1.66-2.11,1.78-4.01c0.92-0.21,2.77-0.4,4.25,0.94c0.18,0.16,0.4,0.24,0.63,0.24
				c0.25,0,0.51-0.1,0.69-0.31c0.35-0.38,0.32-0.97-0.07-1.32c-1.92-1.74-4.2-1.69-5.56-1.44c-0.23-2.4,2.25-3.56,2.36-3.61
				c0.47-0.21,0.68-0.76,0.48-1.22c-0.21-0.47-0.75-0.69-1.23-0.48c-1.38,0.6-3.87,2.56-3.46,5.67c0.33,2.47-0.45,3.36-1.52,4.59
				l-0.35,0.4c0,0,0,0,0,0c-2.53,2.99-6.33,4.4-10.19,3.78c-2.48-0.4-4.69-1.58-6.38-3.43c-0.35-0.38-0.94-0.4-1.32-0.06
				c-0.38,0.35-0.4,0.94-0.06,1.32c1.98,2.16,4.56,3.54,7.46,4c0.37,0.06,0.74,0.1,1.11,0.13c0.45,0.73,1.52,2.97,0.85,7.14
				c-0.16,1.02,0.12,2.05,0.79,2.84c0.66,0.77,1.61,1.21,2.63,1.21c0.8,0,1.57-0.27,2.17-0.76c3.15-2.57,5.4-5.43,6.67-8.48
				c0.2-0.47-0.03-1.02-0.5-1.22c-0.47-0.19-1.02,0.03-1.22,0.5c-1.15,2.77-3.21,5.37-6.13,7.75c-0.61,0.5-1.65,0.43-2.2-0.22
				c-0.31-0.37-0.45-0.85-0.37-1.33c0.58-3.62-0.01-6.04-0.61-7.45c3.02-0.26,5.86-1.57,8.04-3.78c1.24,1.12,2.79,1.87,4.45,2.13
				c3.32,0.53,6.61-0.91,8.5-3.61c0.8,0.41,1.67,0.69,2.57,0.84c3.4,0.55,6.73-0.96,8.58-3.73c1.32,1.54,3.16,2.58,5.21,2.91
				c1.44,0.23,2.92,0.09,4.29-0.39c0.48-0.17,0.74-0.71,0.56-1.19C-154.38,56.7-154.91,56.45-155.4,56.63z"/>
		</g>
		<g>
			<path class="st2" d="M-77.15,79.52h-1.86h-7.37c-0.66,0-1.21-0.37-1.46-0.98c-0.25-0.61-0.13-1.26,0.34-1.73l8.62-8.62
				c0.36-0.36,0.36-0.95,0-1.32c-0.36-0.36-0.95-0.36-1.32,0l-8.62,8.62c-1,1-1.29,2.44-0.75,3.75c0.54,1.31,1.76,2.13,3.18,2.13
				h7.37h1.86c0.51,0,0.93-0.42,0.93-0.93C-76.22,79.94-76.63,79.52-77.15,79.52z"/>
			<path class="st2" d="M-67.44,79.52h-4.16c-0.51,0-0.93,0.42-0.93,0.93c0,0.52,0.42,0.93,0.93,0.93h4.16
				c0.51,0,0.93-0.42,0.93-0.93C-66.51,79.94-66.93,79.52-67.44,79.52z"/>
			<path class="st2" d="M-43.89,72.75c-0.36-0.36-0.95-0.36-1.32,0c-0.36,0.36-0.36,0.95,0,1.32l2.75,2.75
				c0.47,0.47,0.6,1.11,0.34,1.73c-0.25,0.61-0.8,0.98-1.46,0.98h-16.46h-1.86c-0.51,0-0.93,0.42-0.93,0.93
				c0,0.52,0.42,0.93,0.93,0.93h1.86h16.46c1.42,0,2.64-0.81,3.18-2.13c0.54-1.31,0.26-2.75-0.75-3.75L-43.89,72.75z"/>
			<path class="st2" d="M-62.01,75.32c-0.42-3.79-0.61-7.43-0.6-10.92c0.98-0.18,2.05-0.31,3.17-0.35c0.51-0.02,0.92-0.45,0.9-0.97
				c-0.02-0.51-0.44-0.93-0.97-0.9c-1.08,0.04-2.12,0.15-3.08,0.3c0.1-3.74,0.44-7.3,1.05-10.63c0.09-0.51-0.24-0.99-0.75-1.08
				c-0.51-0.1-0.99,0.24-1.08,0.75c-0.65,3.57-1.02,7.37-1.1,11.39c-0.28,0.08-0.56,0.15-0.81,0.24c-2.46,0.85-6.15,1.09-9.33,0.68
				c1.96-2.4,3.03-5.38,3.03-8.51v-6.77h1.64c0.9,3.71,1.55,7.76,1.76,12.14c0.02,0.5,0.43,0.89,0.93,0.89c0.01,0,0.03,0,0.04,0
				c0.51-0.03,0.91-0.46,0.89-0.97c-0.2-4.33-0.82-8.36-1.7-12.06h9.66v6.77c0,3.61,1.4,6.99,3.95,9.54l6.05,6.05
				c0.18,0.18,0.42,0.27,0.66,0.27s0.48-0.09,0.66-0.27c0.36-0.36,0.36-0.95,0-1.32l-6.05-6.05c-2.2-2.2-3.41-5.12-3.41-8.23v-6.77
				h1.58c0.52,0,0.93-0.42,0.93-0.93c0-0.51-0.42-0.93-0.93-0.93h-5.39c0.48-1.66,1-3.25,1.58-4.71c0.64,0.08,1.26,0.14,1.87,0.14
				c13.6,0,17.59-20.74,17.63-20.96c0.05-0.25-0.01-0.5-0.16-0.71c-0.14-0.2-0.37-0.34-0.61-0.38c-4.59-0.74-17.35,1.49-21.27,9.13
				c-0.24,0.46-0.05,1.02,0.4,1.25c0.46,0.24,1.02,0.06,1.25-0.4c3.21-6.25,13.6-8.46,18.33-8.24c-0.98,4.09-5.41,19.39-16.69,18.38
				c3.29-7.31,7.74-11.85,11.28-14.53c0.41-0.31,0.49-0.89,0.18-1.3c-0.31-0.41-0.89-0.5-1.3-0.18c-3.63,2.73-8.15,7.31-11.57,14.6
				c-0.7-1.59-1.1-3.1-1.16-4.52c-0.02-0.52-0.47-0.95-0.97-0.89c-0.51,0.02-0.91,0.45-0.89,0.97c0.09,2.09,0.79,4.33,2.04,6.66
				c-0.71,1.75-1.35,3.65-1.91,5.68h-6.23c-0.37-1.4-0.79-2.75-1.22-4.04c4.67-4.09,4.43-8.13,3.36-10.85
				c-2.49-6.29-11.48-10.92-16.04-10.62c-0.45,0.03-0.81,0.37-0.86,0.82c-0.02,0.2-0.6,5.05,0.01,10.14c1.09,8.92,5,11.24,8.1,11.62
				c0.04,0,0.08,0.01,0.11,0.01c0.46,0,0.86-0.34,0.92-0.82c0.06-0.51-0.3-0.97-0.81-1.04c-6.85-0.84-6.94-12.54-6.67-17.49
				c2.57,3.19,8.03,10.95,11.15,22.27h-4.6c-0.51,0-0.93,0.42-0.93,0.93c0,0.51,0.42,0.93,0.93,0.93h1.58v6.77
				c0,3.11-1.48,6.31-3.67,8.51c-0.02,0.01-0.04,0.04-0.05,0.06c-0.04,0.05-0.07,0.1-0.09,0.16c-0.01,0.02-0.03,0.05-0.03,0.08
				c-0.02,0.05-0.05,0.09-0.07,0.15c-0.11,0.5,0.2,1,0.71,1.11c1.6,0.35,3.39,0.53,5.17,0.53c1.13,0,2.25-0.08,3.32-0.22
				c-0.06,1.93-0.18,3.87-0.4,5.81c-0.06,0.51,0.31,0.97,0.82,1.03c0.04,0,0.07,0.01,0.11,0.01c0.47,0,0.87-0.35,0.93-0.82
				c0.24-2.12,0.38-4.24,0.43-6.34c0.57-0.13,1.12-0.27,1.62-0.45c0.06-0.02,0.14-0.04,0.2-0.06c0.01,3.42,0.2,6.98,0.61,10.67
				c0.05,0.48,0.46,0.83,0.92,0.83c0.04,0,0.07,0,0.11-0.01C-62.32,76.3-61.95,75.84-62.01,75.32z M-80.13,23.26
				c4.17,0.94,10.25,4.69,12.04,9.22c1.15,2.91,0.36,5.68-2.31,8.26C-73.63,32.08-77.89,26.06-80.13,23.26z"/>
		</g>
		<g>
			<path class="st3" d="M80.43,37.74c0.36-0.36,0.36-0.95,0-1.32c-0.36-0.36-0.95-0.36-1.32,0c-0.45,0.45-0.97,0.85-1.54,1.21
				L63,23.06c0.35-0.55,0.75-1.07,1.22-1.53c0.36-0.36,0.36-0.95,0-1.32c-0.36-0.37-0.95-0.37-1.32,0
				c-6.29,6.29-3.12,19.28-2.99,19.83c0.01,0.05,0.9,3.68,0.85,7.89l-8.06-8.06c1.09-0.01,2.15,0.03,3.13,0.11
				c0.51,0.04,0.96-0.34,1.01-0.85c0.04-0.51-0.34-0.96-0.85-1.01c-4.63-0.4-10.95-0.06-14.77,3.77c-1.32,1.32-2.32,3.04-2.97,5.12
				c-0.15,0.49,0.12,1.01,0.61,1.17c0.09,0.03,0.19,0.04,0.28,0.04c0.4,0,0.76-0.25,0.89-0.65c0.12-0.38,0.26-0.74,0.4-1.09
				l13.73,13.73c-5.21,2.14-12.25,0.92-14.24,0.5c-0.24-1.17-0.77-4.08-0.72-7.33l5.63,5.63c0.18,0.18,0.42,0.27,0.66,0.27
				c0.24,0,0.48-0.09,0.66-0.27c0.36-0.36,0.36-0.95,0-1.32l-7.11-7.11c-0.03-0.03-0.07-0.04-0.1-0.07
				c-0.05-0.04-0.1-0.08-0.17-0.11c-0.06-0.03-0.12-0.04-0.18-0.05c-0.04-0.01-0.08-0.03-0.12-0.04c-0.01,0-0.03,0-0.04,0
				c-0.08,0-0.16,0.01-0.24,0.03c-0.04,0.01-0.08,0.01-0.11,0.02c-0.07,0.02-0.13,0.06-0.19,0.1c-0.04,0.03-0.09,0.05-0.13,0.09
				c-0.01,0.01-0.03,0.02-0.04,0.03c-0.03,0.03-0.05,0.08-0.08,0.11c-0.04,0.05-0.08,0.1-0.1,0.16c-0.03,0.06-0.04,0.12-0.05,0.18
				c-0.01,0.04-0.03,0.08-0.04,0.12c-0.5,5.33,0.74,10.36,0.79,10.57c0.02,0.07,1.09,4.47,0.8,9.2l-9.32-9.32
				c1.61-0.1,3.21-0.04,4.63,0.09c0.51,0.03,0.97-0.33,1.01-0.85c0.05-0.51-0.33-0.97-0.84-1.01c-4.7-0.42-11.11-0.12-14.98,3.75
				c-0.36,0.36-0.36,0.95,0,1.32c0.18,0.18,0.42,0.27,0.66,0.27c0.24,0,0.48-0.09,0.66-0.27c0.23-0.23,0.48-0.45,0.74-0.66
				l4.35,4.35c0.18,0.18,0.42,0.27,0.66,0.27c0.24,0,0.48-0.09,0.66-0.27c0.36-0.36,0.36-0.95,0-1.32l-4.06-4.06
				c1.27-0.66,2.69-1.09,4.15-1.34l11.42,11.44c-0.25,1.45-0.68,2.87-1.34,4.14l-7.11-7.11c-0.36-0.36-0.95-0.36-1.32,0
				c-0.36,0.36-0.36,0.95,0,1.32l7.4,7.4c-0.21,0.26-0.42,0.51-0.66,0.74c-0.36,0.36-0.36,0.95,0,1.32
				c0.18,0.18,0.42,0.27,0.66,0.27s0.48-0.09,0.66-0.27c5.14-5.14,3.97-14.76,3.29-18.4c1.45,0.27,3.83,0.61,6.5,0.61
				c4.07,0,8.8-0.8,11.9-3.9c0.73-0.73,1.36-1.58,1.89-2.55c0.01-0.02,0.01-0.03,0.02-0.05c0.03-0.06,0.04-0.12,0.06-0.18
				c0.01-0.06,0.03-0.11,0.03-0.17c0-0.06-0.01-0.12-0.02-0.17c-0.01-0.06-0.01-0.12-0.03-0.17c-0.02-0.05-0.05-0.1-0.08-0.15
				c-0.03-0.06-0.06-0.11-0.11-0.16c-0.01-0.01-0.02-0.03-0.03-0.04l-8.74-8.74c-0.36-0.36-0.95-0.36-1.32,0
				c-0.36,0.36-0.36,0.95,0,1.32l8.21,8.21c-0.36,0.57-0.76,1.1-1.21,1.55c-0.46,0.47-0.98,0.87-1.53,1.22L41.32,44.76
				c0.36-0.57,0.76-1.09,1.21-1.54c0.47-0.47,0.98-0.87,1.53-1.22l3.22,3.22c0.18,0.18,0.42,0.27,0.66,0.27
				c0.24,0,0.48-0.09,0.66-0.27c0.36-0.36,0.36-0.95,0-1.32l-2.8-2.8c1.38-0.57,2.9-0.91,4.42-1.08l10.38,10.38
				c-0.06,0.56-0.14,1.12-0.25,1.68c-0.1,0.51,0.23,1,0.73,1.1c0.06,0.01,0.12,0.02,0.18,0.02c0.44,0,0.82-0.31,0.91-0.75
				c0.89-4.45,0.27-9.14-0.16-11.43c1.44,0.26,3.81,0.61,6.5,0.61c0.86,0,1.75-0.03,2.64-0.12c0.05,0,0.08-0.03,0.13-0.04
				c0.06-0.01,0.12-0.03,0.18-0.05c0.06-0.03,0.11-0.07,0.17-0.11c0.03-0.03,0.07-0.04,0.1-0.07c0.01-0.01,0.01-0.02,0.02-0.04
				c0.05-0.05,0.08-0.11,0.11-0.17c0.03-0.05,0.06-0.09,0.08-0.14c0.02-0.05,0.02-0.11,0.03-0.17c0.01-0.06,0.02-0.12,0.02-0.19
				c0-0.02,0.01-0.03,0-0.04c0-0.05-0.03-0.08-0.04-0.13c-0.01-0.06-0.03-0.12-0.05-0.18c-0.03-0.06-0.07-0.11-0.11-0.17
				c-0.03-0.03-0.04-0.07-0.07-0.1l-6.6-6.6c-0.36-0.36-0.95-0.36-1.32,0c-0.36,0.37-0.36,0.95,0,1.32l5.12,5.12
				c-3.26,0.05-6.16-0.48-7.33-0.72c-0.41-1.99-1.64-9.03,0.5-14.24l13.73,13.73c-0.26,0.11-0.51,0.22-0.79,0.31
				c-0.49,0.17-0.75,0.69-0.58,1.18c0.13,0.39,0.49,0.63,0.88,0.63c0.1,0,0.2-0.02,0.3-0.05C77.57,39.95,79.18,38.99,80.43,37.74z"
				/>
			<path class="st4" d="M23.74,36.51c0.15,0.09,0.31,0.13,0.47,0.13c0.32,0,0.63-0.17,0.81-0.46c5.16-8.86,14.72-14.37,24.96-14.37
				c0.51,0,0.93-0.42,0.93-0.93c0-0.51-0.42-0.93-0.93-0.93c-10.9,0-21.08,5.86-26.57,15.29C23.15,35.68,23.3,36.25,23.74,36.51z"/>
			<path class="st2" d="M20.19,51.59c0.51,0,0.93-0.42,0.93-0.93c0-3.31,0.56-6.56,1.65-9.65c0.17-0.49-0.08-1.02-0.57-1.19
				c-0.48-0.17-1.02,0.08-1.19,0.57c-1.17,3.29-1.76,6.75-1.76,10.28C19.25,51.18,19.67,51.59,20.19,51.59z"/>
			<path class="st5" d="M68.39,72.89c-5.16,4.28-11.7,6.63-18.41,6.63c-0.51,0-0.93,0.42-0.93,0.93c0,0.52,0.42,0.93,0.93,0.93
				c7.15,0,14.11-2.51,19.6-7.06c0.4-0.33,0.45-0.92,0.12-1.31C69.37,72.62,68.78,72.56,68.39,72.89z"/>
			<path class="st2" d="M73.16,67.86c-0.48,0.64-0.98,1.27-1.51,1.87c-0.34,0.39-0.3,0.98,0.08,1.32c0.18,0.16,0.4,0.23,0.61,0.23
				c0.26,0,0.52-0.11,0.7-0.32c0.56-0.64,1.11-1.31,1.61-1.99c0.31-0.41,0.22-1-0.19-1.3C74.05,67.36,73.47,67.44,73.16,67.86z"/>
			<path class="st2" d="M79.77,49.73c-0.51,0-0.93,0.42-0.93,0.93c0,3.78-0.72,7.46-2.14,10.93c-0.3,0.74-0.64,1.47-1,2.19
				c-0.23,0.46-0.05,1.02,0.41,1.25c0.14,0.07,0.28,0.1,0.42,0.1c0.34,0,0.67-0.19,0.83-0.51c0.39-0.76,0.75-1.54,1.07-2.33
				c1.51-3.7,2.28-7.61,2.28-11.63C80.7,50.15,80.28,49.73,79.77,49.73z"/>
		</g>
		<g>
			<path class="st2" d="M183.23,73.82c-5.01,3.73-10.97,5.71-17.23,5.71c-2.76,0-5.49-0.39-8.12-1.16
				c-0.49-0.14-1.01,0.14-1.15,0.63c-0.15,0.5,0.14,1.01,0.63,1.16c2.8,0.82,5.7,1.23,8.64,1.23c6.67,0,13.01-2.1,18.34-6.08
				c0.41-0.31,0.5-0.89,0.19-1.3C184.22,73.6,183.64,73.51,183.23,73.82z"/>
			<path class="st2" d="M193.65,37.25c-0.23-0.46-0.78-0.65-1.25-0.43c-0.46,0.22-0.66,0.78-0.43,1.25
				c1.92,3.94,2.89,8.18,2.89,12.59c0,7.36-2.77,14.38-7.81,19.75c-0.35,0.38-0.33,0.97,0.04,1.32c0.18,0.17,0.41,0.25,0.64,0.25
				c0.25,0,0.5-0.1,0.68-0.29c5.36-5.72,8.32-13.18,8.32-21.02C196.72,45.96,195.68,41.45,193.65,37.25z"/>
			<path class="st2" d="M141.64,66.16c-0.28-0.43-0.85-0.56-1.29-0.28c-0.43,0.28-0.56,0.85-0.29,1.29c1.35,2.12,2.97,4.08,4.8,5.81
				c0.18,0.17,0.41,0.26,0.64,0.26c0.25,0,0.49-0.1,0.68-0.29c0.35-0.38,0.34-0.96-0.04-1.32
				C144.43,69.99,142.91,68.15,141.64,66.16z"/>
			<path class="st2" d="M156.26,47.5c-0.1,0.3-0.04,0.63,0.16,0.88l1.86,2.29l-1.86,2.29c-0.2,0.24-0.26,0.57-0.16,0.87
				c0.1,0.3,0.34,0.53,0.65,0.61l2.85,0.76l-0.16,2.95c-0.02,0.32,0.13,0.62,0.38,0.8c0.26,0.18,0.59,0.23,0.88,0.12l2.75-1.06
				l1.6,2.48c0.17,0.27,0.47,0.43,0.78,0.43c0.32,0,0.61-0.16,0.78-0.43l1.6-2.48l2.75,1.06c0.29,0.11,0.63,0.07,0.88-0.12
				c0.26-0.19,0.4-0.49,0.38-0.8l-0.16-2.95l2.85-0.76c0.31-0.08,0.55-0.31,0.65-0.61c0.1-0.3,0.04-0.63-0.16-0.87l-1.86-2.29
				l1.86-2.29c0.2-0.25,0.26-0.58,0.16-0.88c-0.1-0.3-0.34-0.53-0.65-0.61l-2.85-0.76l0.16-2.95c0.02-0.32-0.13-0.62-0.38-0.8
				c-0.25-0.19-0.59-0.23-0.88-0.12l-2.75,1.06l-1.6-2.48c-0.17-0.27-0.47-0.43-0.78-0.43c-0.32,0-0.61,0.16-0.78,0.43l-1.6,2.48
				l-2.75-1.06c-0.3-0.11-0.63-0.07-0.88,0.12c-0.25,0.18-0.4,0.49-0.38,0.8l0.16,2.95l-2.85,0.76
				C156.6,46.97,156.35,47.2,156.26,47.5z M160.2,50.08l-1.43-1.76l2.19-0.59c0.43-0.11,0.71-0.51,0.69-0.95l-0.12-2.27l2.12,0.82
				c0.41,0.16,0.88,0.01,1.12-0.36l1.23-1.9l1.23,1.9c0.24,0.37,0.71,0.52,1.12,0.36l2.12-0.82l-0.12,2.27
				c-0.02,0.44,0.26,0.84,0.69,0.95l2.19,0.59l-1.43,1.76c-0.28,0.34-0.28,0.83,0,1.17l1.43,1.76l-2.19,0.59
				c-0.43,0.11-0.72,0.51-0.69,0.95l0.12,2.27l-2.12-0.82c-0.41-0.16-0.88-0.01-1.12,0.36l-1.23,1.9l-1.23-1.9
				c-0.17-0.27-0.47-0.43-0.78-0.43c-0.11,0-0.23,0.02-0.34,0.06l-2.12,0.82l0.12-2.27c0.02-0.44-0.26-0.84-0.69-0.95l-2.19-0.59
				l1.43-1.76C160.48,50.91,160.48,50.42,160.2,50.08z"/>
			<path class="st2" d="M179.5,64.4c-0.34-0.38-0.93-0.42-1.32-0.08c-3.36,3-7.69,4.65-12.19,4.65c-3.44,0-6.79-0.96-9.69-2.77
				c-0.44-0.27-1.01-0.14-1.28,0.3c-0.27,0.44-0.14,1.01,0.3,1.28c3.2,2,6.89,3.06,10.68,3.06c4.96,0,9.73-1.82,13.43-5.12
				C179.81,65.37,179.84,64.78,179.5,64.4z"/>
			<path class="st2" d="M185.21,50.61c0.01,0,0.03,0,0.05,0c0.51-0.03,0.91-0.46,0.88-0.98C185.6,38.9,176.75,30.49,166,30.49
				c-1.88,0-3.74,0.26-5.54,0.77c-0.5,0.14-0.78,0.66-0.64,1.15c0.14,0.5,0.66,0.78,1.15,0.64c1.63-0.46,3.32-0.7,5.03-0.7
				c9.76,0,17.8,7.63,18.29,17.38C184.31,50.23,184.72,50.61,185.21,50.61z"/>
			<path class="st2" d="M155.31,33.55c-4.03,2.52-7.06,6.39-8.51,10.9c-0.16,0.49,0.11,1.01,0.6,1.17c0.09,0.03,0.19,0.05,0.29,0.05
				c0.39,0,0.76-0.25,0.89-0.65c1.32-4.09,4.07-7.6,7.73-9.89c0.44-0.27,0.57-0.85,0.3-1.28C156.32,33.41,155.75,33.28,155.31,33.55
				z"/>
			<path class="st2" d="M137.13,50.66c0-5.57,1.59-10.97,4.6-15.63c0.28-0.43,0.16-1.01-0.28-1.29c-0.43-0.28-1.01-0.16-1.29,0.28
				c-3.2,4.96-4.89,10.71-4.89,16.64c0,4.09,0.79,8.07,2.35,11.81c0.15,0.36,0.5,0.57,0.86,0.57c0.12,0,0.24-0.02,0.36-0.07
				c0.47-0.2,0.7-0.74,0.5-1.22C137.88,58.24,137.13,54.51,137.13,50.66z"/>
			<path class="st2" d="M144.58,60.68c0,2.91,2.37,5.28,5.28,5.28c2.91,0,5.28-2.37,5.28-5.28c0-2.91-2.37-5.28-5.28-5.28
				C146.95,55.4,144.58,57.77,144.58,60.68z M149.86,57.26c1.88,0,3.41,1.53,3.41,3.41c0,1.88-1.53,3.41-3.41,3.41
				s-3.41-1.53-3.41-3.41C146.44,58.79,147.97,57.26,149.86,57.26z"/>
			<path class="st2" d="M143.16,54.39c2.05,0,3.72-1.67,3.72-3.72c0-2.05-1.67-3.72-3.72-3.72c-2.05,0-3.72,1.67-3.72,3.72
				C139.43,52.72,141.1,54.39,143.16,54.39z M143.16,48.8c1.03,0,1.86,0.84,1.86,1.86c0,1.03-0.84,1.86-1.86,1.86
				c-1.03,0-1.86-0.84-1.86-1.86C141.29,49.64,142.13,48.8,143.16,48.8z"/>
			<path class="st2" d="M150.36,26.4c4.66-3.01,10.06-4.6,15.63-4.6c5.62,0,11.02,1.62,15.7,4.66c-0.32,0.76-0.49,1.6-0.49,2.48
				c0,1.49,0.51,2.94,1.45,4.1c0.32,0.4,0.91,0.46,1.31,0.14c0.4-0.32,0.46-0.91,0.14-1.31c-0.68-0.84-1.03-1.85-1.03-2.93
				c0-2.57,2.09-4.66,4.65-4.66c2.57,0,4.66,2.09,4.66,4.66c0,2.11-1.42,3.96-3.46,4.5c-0.5,0.13-0.79,0.64-0.66,1.14
				c0.11,0.42,0.49,0.69,0.9,0.69c0.08,0,0.16-0.01,0.24-0.03c2.85-0.76,4.85-3.35,4.85-6.3c0-3.59-2.92-6.52-6.52-6.52
				c-2.05,0-3.86,0.97-5.05,2.45c-4.97-3.22-10.71-4.94-16.67-4.94c-5.93,0-11.68,1.69-16.64,4.89c-0.43,0.28-0.56,0.86-0.28,1.29
				C149.35,26.55,149.93,26.68,150.36,26.4z"/>
			<path class="st2" d="M173.75,26.46c0-0.51-0.42-0.93-0.93-0.93s-0.93,0.42-0.93,0.93c0,0.52,0.42,0.93,0.93,0.93
				S173.75,26.97,173.75,26.46z"/>
			<path class="st2" d="M185.24,35.46c-0.51,0-0.93,0.42-0.93,0.93s0.42,0.93,0.93,0.93c0.51,0,0.93-0.42,0.93-0.93
				S185.75,35.46,185.24,35.46z"/>
			<path class="st2" d="M168.79,27.7c0-0.51-0.42-0.93-0.93-0.93c-0.52,0-0.93,0.42-0.93,0.93c0,0.51,0.42,0.93,0.93,0.93
				C168.37,28.63,168.79,28.21,168.79,27.7z"/>
			<circle class="st2" cx="177.79" cy="41.35" r="0.93"/>
			<path class="st2" d="M188.03,63.7c0,0.51,0.42,0.93,0.93,0.93c0.51,0,0.93-0.42,0.93-0.93c0-0.51-0.42-0.93-0.93-0.93
				C188.44,62.77,188.03,63.19,188.03,63.7z"/>
			<path class="st2" d="M140.85,57.49c0,0.51,0.42,0.93,0.93,0.93c0.51,0,0.93-0.42,0.93-0.93c0-0.51-0.42-0.93-0.93-0.93
				C141.27,56.56,140.85,56.98,140.85,57.49z"/>
			<path class="st2" d="M171.89,73.63c0,0.51,0.42,0.93,0.93,0.93s0.93-0.42,0.93-0.93c0-0.51-0.42-0.93-0.93-0.93
				S171.89,73.12,171.89,73.63z"/>
			<path class="st2" d="M160.72,62.46c0,0.51,0.42,0.93,0.93,0.93c0.51,0,0.93-0.42,0.93-0.93c0-0.51-0.42-0.93-0.93-0.93
				C161.13,61.53,160.72,61.95,160.72,62.46z"/>
			<path class="st2" d="M139.93,30.49c2.22,0,4.03,1.81,4.03,4.03c0,0.52,0.42,0.93,0.93,0.93c0.52,0,0.93-0.42,0.93-0.93
				c0-2.22,1.81-4.03,4.03-4.03c0.51,0,0.93-0.42,0.93-0.93c0-0.51-0.42-0.93-0.93-0.93c-2.22,0-4.03-1.81-4.03-4.03
				c0-0.51-0.42-0.93-0.93-0.93c-0.51,0-0.93,0.42-0.93,0.93c0,2.22-1.81,4.03-4.03,4.03c-0.52,0-0.93,0.42-0.93,0.93
				C139,30.08,139.41,30.49,139.93,30.49z M144.89,27.77c0.46,0.72,1.07,1.33,1.79,1.79c-0.72,0.46-1.33,1.07-1.79,1.79
				c-0.46-0.72-1.07-1.33-1.79-1.79C143.82,29.1,144.43,28.49,144.89,27.77z"/>
			<path class="st2" d="M189.27,58.81c0-0.51-0.42-0.93-0.93-0.93c-2.22,0-4.03-1.81-4.03-4.04c0-0.51-0.42-0.93-0.93-0.93
				c-0.51,0-0.93,0.42-0.93,0.93c0,2.23-1.81,4.04-4.03,4.04c-0.51,0-0.93,0.42-0.93,0.93c0,0.51,0.42,0.93,0.93,0.93
				c2.22,0,4.03,1.81,4.03,4.03c0,0.51,0.42,0.93,0.93,0.93c0.51,0,0.93-0.42,0.93-0.93c0-2.22,1.81-4.03,4.03-4.03
				C188.85,59.74,189.27,59.33,189.27,58.81z M183.37,60.6c-0.46-0.72-1.07-1.33-1.79-1.79c0.72-0.46,1.33-1.07,1.79-1.79
				c0.46,0.72,1.07,1.33,1.79,1.79C184.45,59.27,183.83,59.89,183.37,60.6z"/>
			<path class="st2" d="M158.55,75.49c0-0.51-0.42-0.93-0.93-0.93c-2.22,0-4.03-1.81-4.03-4.04c0-0.51-0.42-0.93-0.93-0.93
				c-0.51,0-0.93,0.42-0.93,0.93c0,2.23-1.81,4.04-4.03,4.04c-0.51,0-0.93,0.42-0.93,0.93c0,0.52,0.42,0.93,0.93,0.93
				c2.23,0,4.03,1.81,4.03,4.03c0,0.52,0.42,0.93,0.93,0.93c0.51,0,0.93-0.42,0.93-0.93c0-2.22,1.81-4.03,4.03-4.03
				C158.13,76.42,158.55,76,158.55,75.49z M152.65,77.28c-0.46-0.72-1.07-1.33-1.79-1.79c0.72-0.46,1.33-1.07,1.79-1.79
				c0.46,0.72,1.07,1.33,1.79,1.79C153.72,75.95,153.11,76.56,152.65,77.28z"/>
		</g>
		<g>
			<path class="st2" d="M256.93,47.32c0.26,0,0.53-0.11,0.71-0.33c1.55-1.84,3.39-3.37,5.48-4.54c2.14-1.2,3.46-3.44,3.46-5.83
				v-8.61h13.99c1.2,0,2.17-0.98,2.17-2.17v-3.72c0-1.2-0.97-2.17-2.17-2.17h-15.52c-1.2,0-2.17,0.98-2.17,2.17v3.72
				c0,1.08,0.8,1.98,1.84,2.14v8.64c0,1.73-0.96,3.34-2.51,4.21c-2.29,1.28-4.3,2.95-5.99,4.96c-0.33,0.39-0.28,0.98,0.11,1.31
				C256.51,47.25,256.72,47.32,256.93,47.32z M264.75,22.11c0-0.17,0.14-0.31,0.31-0.31h15.52c0.17,0,0.31,0.14,0.31,0.31v3.72
				c0,0.17-0.14,0.31-0.31,0.31h-15.52c-0.17,0-0.31-0.14-0.31-0.31V22.11z"/>
			<path class="st2" d="M277.88,78.87c-2.37,0.63-4.84,0.8-7.33,0.53c-9.22-1.03-16.74-8.79-17.48-18.06
				c-0.02-0.25-0.03-0.49-0.04-0.76c4.13,1.32,9.53,1.07,13.14-0.69c3.67-1.8,9.64-1.8,13.31,0c2.4,1.17,5.67,1.7,8.98,1.46
				c0.51-0.04,0.9-0.48,0.86-1c-0.04-0.51-0.46-0.9-1-0.86c-2.94,0.22-5.95-0.26-8.03-1.27c-4.19-2.05-10.75-2.05-14.94,0
				c-3.32,1.62-8.56,1.75-12.28,0.38c0.14-2.59,0.76-5.09,1.87-7.43c0.22-0.46,0.03-1.02-0.44-1.24c-0.46-0.22-1.02-0.03-1.24,0.44
				c-1.33,2.78-2.04,5.75-2.1,8.85l0,0c-0.02,0.85,0,1.58,0.05,2.27c0.82,10.31,8.87,18.62,19.13,19.76
				c0.83,0.09,1.66,0.14,2.48,0.14c1.87,0,3.73-0.24,5.53-0.71c0.5-0.13,0.79-0.64,0.66-1.14
				C278.88,79.04,278.37,78.74,277.88,78.87z"/>
			<path class="st2" d="M294.48,59.39l-0.01-0.17v0c-0.17-7.62-4.42-14.68-11.08-18.41c-1.53-0.86-2.49-2.47-2.49-4.19v-4.57
				c0-0.51-0.42-0.93-0.93-0.93s-0.93,0.42-0.93,0.93v4.57c0,2.4,1.32,4.63,3.44,5.82c6.09,3.41,9.97,9.86,10.13,16.83h0h0
				l0.02,0.44c0,7.04-3.79,13.62-9.89,17.15c-0.45,0.26-0.6,0.83-0.34,1.27c0.17,0.3,0.49,0.47,0.81,0.47
				c0.16,0,0.32-0.04,0.47-0.12c6.67-3.87,10.82-11.06,10.82-18.77C294.49,59.6,294.49,59.5,294.48,59.39z"/>
			<path class="st2" d="M280.23,66.25c-0.51,0-0.93,0.42-0.93,0.93c0,0.52,0.42,0.93,0.93,0.93c0.51,0,0.93-0.42,0.93-0.93
				C281.16,66.67,280.74,66.25,280.23,66.25z"/>
			<path class="st2" d="M284.27,69.66c0,0.51,0.42,0.93,0.93,0.93c0.51,0,0.93-0.42,0.93-0.93c0-0.51-0.42-0.93-0.93-0.93
				C284.68,68.73,284.27,69.15,284.27,69.66z"/>
			<path class="st2" d="M308.64,19.94h-15.52c-1.2,0-2.17,0.98-2.17,2.17v3.72c0,1.09,0.81,1.99,1.86,2.14v17.81
				c0,0.51,0.42,0.93,0.93,0.93c0.51,0,0.93-0.42,0.93-0.93v-3.23c0.83,0.2,1.74,0.31,2.66,0.31c1.41,0,2.82-0.23,3.92-0.69
				c1.56-0.66,4.07-0.72,5.83-0.19v7.02c0,0.51,0.42,0.93,0.93,0.93c0.51,0,0.93-0.42,0.93-0.93v-7.68v0V27.98
				c1.05-0.15,1.86-1.05,1.86-2.14v-3.72C310.82,20.92,309.84,19.94,308.64,19.94z M307.09,40.06c-2.11-0.49-4.75-0.36-6.55,0.4
				c-1.57,0.66-4.11,0.72-5.86,0.18V28.01h12.41V40.06z M308.95,25.84c0,0.17-0.14,0.31-0.31,0.31h-0.62h-14.28h-0.62
				c-0.17,0-0.31-0.14-0.31-0.31v-3.72c0-0.17,0.14-0.31,0.31-0.31h15.52c0.17,0,0.31,0.14,0.31,0.31V25.84z"/>
			<path class="st2" d="M308.02,53.03c-0.51,0-0.93,0.42-0.93,0.93v19.67c0,3.25-2.65,5.9-5.9,5.9h-0.62c-3.25,0-5.9-2.64-5.9-5.9
				V73.1c0-0.51-0.42-0.93-0.93-0.93c-0.51,0-0.93,0.42-0.93,0.93v0.53c0,4.28,3.48,7.76,7.76,7.76h0.62c4.28,0,7.76-3.48,7.76-7.76
				V53.96C308.95,53.45,308.54,53.03,308.02,53.03z"/>
			<path class="st2" d="M297.92,72.15c0,0.52,0.42,0.93,0.93,0.93c0.52,0,0.93-0.42,0.93-0.93c0-0.51-0.42-0.93-0.93-0.93
				C298.34,71.22,297.92,71.63,297.92,72.15z"/>
			<path class="st2" d="M302.89,65.94c0,0.51,0.42,0.93,0.93,0.93c0.51,0,0.93-0.42,0.93-0.93c0-0.52-0.42-0.93-0.93-0.93
				C303.3,65.01,302.89,65.43,302.89,65.94z"/>
			<path class="st2" d="M300.4,60.97c0,0.51,0.42,0.93,0.93,0.93c0.51,0,0.93-0.42,0.93-0.93c0-0.51-0.42-0.93-0.93-0.93
				C300.82,60.04,300.4,60.46,300.4,60.97z"/>
			<path class="st2" d="M297.61,50.11c-0.51,0-0.93,0.42-0.93,0.93c0,0.51,0.42,0.93,0.93,0.93c0.52,0,0.93-0.42,0.93-0.93
				C298.54,50.53,298.13,50.11,297.61,50.11z"/>
			<path class="st2" d="M302.58,45.15c-0.51,0-0.93,0.42-0.93,0.93c0,0.51,0.42,0.93,0.93,0.93c0.52,0,0.93-0.42,0.93-0.93
				C303.51,45.56,303.09,45.15,302.58,45.15z"/>
			<path class="st2" d="M273.09,70.91c0,0.51,0.42,0.93,0.93,0.93c0.51,0,0.93-0.42,0.93-0.93c0-0.52-0.42-0.93-0.93-0.93
				C273.51,69.98,273.09,70.39,273.09,70.91z"/>
			<path class="st2" d="M265.64,74.63c0,0.51,0.42,0.93,0.93,0.93c0.51,0,0.93-0.42,0.93-0.93c0-0.51-0.42-0.93-0.93-0.93
				C266.06,73.7,265.64,74.12,265.64,74.63z"/>
			<path class="st2" d="M268.13,64.7c0,0.51,0.42,0.93,0.93,0.93c0.51,0,0.93-0.42,0.93-0.93c0-0.51-0.42-0.93-0.93-0.93
				C268.54,63.77,268.13,64.18,268.13,64.7z"/>
			<path class="st2" d="M258.2,67.18c0,0.52,0.42,0.93,0.93,0.93c0.52,0,0.93-0.42,0.93-0.93c0-0.51-0.42-0.93-0.93-0.93
				C258.61,66.25,258.2,66.67,258.2,67.18z"/>
		</g>
		<g>
			<path class="st2" d="M-176.64,167.6c0.36,0.36,0.95,0.36,1.32,0c2.49-2.49,2.49-6.55,0-9.04c-1.21-1.21-2.81-1.87-4.52-1.87
				c-1.71,0-3.32,0.67-4.52,1.87c-2.49,2.49-2.49,6.55,0,9.04c0.75,0.75,1.69,1.31,2.7,1.61c0.09,0.03,0.18,0.04,0.26,0.04
				c0.4,0,0.77-0.26,0.89-0.67c0.15-0.49-0.14-1.01-0.63-1.16c-0.72-0.21-1.38-0.61-1.92-1.14c-1.77-1.77-1.77-4.64,0-6.41
				c1.71-1.71,4.7-1.71,6.41,0c1.77,1.77,1.77,4.64,0,6.41C-177.01,166.65-177.01,167.24-176.64,167.6z"/>
			<path class="st2" d="M-170.49,153.73c-0.36-0.36-0.95-0.36-1.32,0c-0.36,0.36-0.36,0.95,0,1.32c0.98,0.98,2.27,1.47,3.56,1.47
				c1.29,0,2.58-0.49,3.56-1.47c1.96-1.96,1.96-5.15,0-7.11c-1.96-1.96-5.15-1.96-7.11,0c-0.63,0.63-1.08,1.41-1.3,2.26
				c-0.13,0.5,0.16,1.01,0.66,1.14c0.5,0.14,1.01-0.16,1.14-0.66c0.14-0.54,0.43-1.03,0.82-1.42c1.24-1.24,3.25-1.24,4.48,0
				c1.24,1.24,1.24,3.24,0,4.48C-167.25,154.96-169.26,154.96-170.49,153.73z"/>
			<path class="st2" d="M-149.01,133.18c0-0.12-0.03-0.23-0.08-0.33c0,0,0-0.01,0-0.01c-0.02-0.05-0.05-0.08-0.08-0.12
				c-0.16-0.27-0.44-0.46-0.77-0.46c-0.21,0.01-17.48-0.13-31.77,10.59l-15.7,1.49c-0.21,0.02-0.41,0.11-0.56,0.26l-12.2,11.96
				c-0.24,0.24-0.34,0.59-0.25,0.92c0.09,0.33,0.35,0.58,0.68,0.66l13.7,3.21c-0.61,1.43-1.17,2.9-1.66,4.42l-7.83,3.2
				c-0.29,0.12-0.5,0.37-0.56,0.68c-0.06,0.31,0.03,0.62,0.25,0.84l18.58,18.58c0.22,0.22,0.54,0.32,0.84,0.26
				c0.31-0.06,0.56-0.27,0.68-0.56l3.19-7.8c1.53-0.49,3-1.06,4.43-1.67l1.96,8.35c0.1,0.43,0.48,0.72,0.91,0.72
				c0.07,0,0.14-0.01,0.21-0.03c0.5-0.12,0.81-0.62,0.69-1.12l-2.03-8.68c5.69-2.68,10.59-6.34,14.64-10.94l-1.19,12.56
				l-11.72,11.96c-0.36,0.37-0.35,0.96,0.01,1.32c0.18,0.18,0.42,0.27,0.65,0.27c0.24,0,0.48-0.09,0.66-0.28l11.96-12.2
				c0.15-0.15,0.24-0.35,0.26-0.56l1.52-15.93c0.04-0.41-0.2-0.8-0.59-0.96c-0.39-0.15-0.83-0.03-1.08,0.3
				c-5.5,7.19-12.95,12.31-22.14,15.2c-0.01,0-0.01,0-0.02,0c-0.31,0.06-0.56,0.27-0.68,0.56l-2.83,6.92l-16.6-16.6l6.35-2.6
				l9.36,9.36h0c0.18,0.18,0.42,0.27,0.66,0.27c0.24,0,0.48-0.09,0.66-0.27c0.36-0.36,0.36-0.95,0-1.32h0l-9.4-9.4
				c1.34-4.12,3.14-7.92,5.36-11.3c0.28-0.43,0.16-1.01-0.27-1.29c-0.43-0.28-1.01-0.16-1.29,0.27c-1.18,1.8-2.25,3.71-3.19,5.72
				l-12.38-2.9l10.75-10.54l12.57-1.19c-1.51,1.32-2.97,2.78-4.36,4.4c-0.34,0.39-0.29,0.98,0.1,1.31c0.18,0.15,0.39,0.23,0.61,0.23
				c0.26,0,0.52-0.11,0.71-0.33c12.64-14.73,31.98-16.29,36.39-16.45c-0.07,2.13-0.46,7.75-2.52,14.43l-9.38-9.38
				c-0.36-0.36-0.95-0.36-1.32,0s-0.36,0.95,0,1.32l10.04,10.04c-1,2.88-2.32,5.89-4.06,8.86c-0.26,0.44-0.11,1.01,0.33,1.27
				c0.15,0.09,0.31,0.13,0.47,0.13c0.32,0,0.63-0.17,0.8-0.46C-148.87,147.25-149,133.75-149.01,133.18z"/>
			<path class="st2" d="M-200,183.25c-0.36-0.36-0.95-0.36-1.32,0l-8.86,8.86c-0.36,0.36-0.36,0.95,0,1.32
				c0.18,0.18,0.42,0.27,0.66,0.27c0.24,0,0.48-0.09,0.66-0.27l8.86-8.86C-199.64,184.2-199.64,183.61-200,183.25z"/>
			<path class="st2" d="M-209.53,183.17c0.24,0,0.48-0.09,0.66-0.27l5.35-5.35c0.36-0.36,0.36-0.95,0-1.32
				c-0.36-0.36-0.95-0.36-1.32,0l-5.35,5.35c-0.36,0.36-0.36,0.95,0,1.32C-210,183.08-209.76,183.17-209.53,183.17z"/>
			<path class="st2" d="M-194.3,186.76l-5.35,5.35c-0.36,0.36-0.36,0.95,0,1.32c0.18,0.18,0.42,0.27,0.66,0.27
				c0.24,0,0.48-0.09,0.66-0.27l5.35-5.35c0.36-0.36,0.36-0.95,0-1.32C-193.34,186.39-193.93,186.39-194.3,186.76z"/>
		</g>
		<g>
			<path class="st2" d="M-77.1,163.74c0.66,1.3,1.34,2.6,2.09,3.89c0.87,1.51,1.8,2.99,2.75,4.42c0.18,0.27,0.48,0.41,0.78,0.41
				c0.18,0,0.36-0.05,0.52-0.16c0.43-0.29,0.54-0.86,0.26-1.29c-0.93-1.39-1.83-2.84-2.68-4.32c-0.99-1.71-1.88-3.42-2.7-5.13
				c0.82-1.7,1.72-3.41,2.7-5.11c1.01-1.74,2.04-3.37,3.08-4.9c1.9-0.14,3.84-0.22,5.79-0.22c9.46,0,18.38,1.71,23.84,4.58
				c0.14,0.07,0.28,0.11,0.43,0.11c0.34,0,0.66-0.18,0.83-0.5c0.24-0.46,0.07-1.02-0.39-1.26c-5.72-3-14.95-4.8-24.7-4.8
				c-1.5,0-2.97,0.05-4.42,0.13c7.49-10.28,15.29-15.08,18.85-13.02c0.42,0.24,0.78,0.59,1.1,1.02c-0.98,0.67-1.63,1.8-1.63,3.07
				c0,1.76,1.23,3.23,2.87,3.62c-0.06,0.95-0.16,1.93-0.34,2.99c-0.09,0.51,0.25,0.99,0.76,1.08c0.05,0.01,0.11,0.01,0.16,0.01
				c0.45,0,0.84-0.32,0.92-0.77c0.2-1.18,0.31-2.29,0.37-3.35c1.56-0.45,2.71-1.87,2.71-3.57c0-2.05-1.67-3.72-3.72-3.72
				c-0.1,0-0.18,0.02-0.28,0.03c-0.52-0.86-1.18-1.54-1.99-2.01c-5.07-2.93-14.23,3.41-22.19,14.8c-3.09,0.27-6.03,0.72-8.74,1.33
				c-0.63-2.3-1.05-4.49-1.21-6.47c-0.04-0.51-0.5-0.9-1-0.86c-0.51,0.04-0.9,0.49-0.86,1c0.16,2.07,0.61,4.36,1.25,6.76
				c-1.39,0.37-2.68,0.79-3.92,1.25c-0.68-0.94-1.77-1.56-3.02-1.56c-2.05,0-3.72,1.67-3.72,3.72c0,0.47,0.1,0.92,0.26,1.33
				c-1.93,1.61-2.96,3.43-2.96,5.29c0,3.47,3.44,6.63,9.67,8.9c0.1,0.04,0.21,0.06,0.32,0.06c0.38,0,0.74-0.24,0.87-0.61
				c0.18-0.48-0.07-1.02-0.56-1.19c-5.37-1.95-8.45-4.56-8.45-7.15c0-1.53,1.08-2.84,2.19-3.78c0.65,0.54,1.47,0.88,2.38,0.88
				c2.05,0,3.72-1.67,3.72-3.72c0-0.15-0.03-0.29-0.04-0.43c1.18-0.44,2.42-0.84,3.77-1.2c0.83,2.66,1.9,5.44,3.22,8.26
				c-3.85,8.27-5.71,16.23-4.85,21.35c0.08,0.45,0.47,0.78,0.92,0.78c0.05,0,0.1,0,0.16-0.01c0.51-0.09,0.85-0.57,0.76-1.07
				C-81.94,178.13-80.38,171.16-77.1,163.74z M-46.9,138.82c1.03,0,1.86,0.84,1.86,1.86c0,1.03-0.84,1.86-1.86,1.86
				c-1.03,0-1.86-0.84-1.86-1.86C-48.77,139.65-47.93,138.82-46.9,138.82z M-88.83,156.82c-1.03,0-1.86-0.84-1.86-1.86
				c0-1.03,0.84-1.86,1.86-1.86c1.03,0,1.86,0.84,1.86,1.86C-86.97,155.98-87.8,156.82-88.83,156.82z M-79.57,152.91
				c2.15-0.48,4.45-0.86,6.86-1.12c-0.78,1.2-1.55,2.45-2.3,3.74c-0.74,1.28-1.44,2.58-2.09,3.87
				C-78.08,157.18-78.91,155-79.57,152.91z"/>
			<path class="st2" d="M-35.87,157.1c-0.36-0.37-0.95-0.38-1.32-0.02c-0.37,0.36-0.38,0.95-0.02,1.32
				c1.02,1.05,1.54,2.12,1.54,3.18c0,2.57-3.03,5.15-8.31,7.1c-0.48,0.18-0.73,0.71-0.55,1.2c0.14,0.38,0.49,0.61,0.87,0.61
				c0.11,0,0.22-0.02,0.32-0.06c6.15-2.26,9.53-5.41,9.53-8.85C-33.81,160.01-34.5,158.5-35.87,157.1z"/>
			<path class="st2" d="M-64.53,156.31c2.91,0,5.28,2.37,5.28,5.28c0,0.51,0.42,0.93,0.93,0.93c0.51,0,0.93-0.42,0.93-0.93
				c0-3.94-3.2-7.14-7.14-7.14c-3.94,0-7.14,3.2-7.14,7.14s3.2,7.14,7.14,7.14c1.91,0,3.71-0.75,5.06-2.11
				c0.36-0.36,0.36-0.95,0-1.32c-0.36-0.36-0.95-0.36-1.32,0c-1,1-2.33,1.56-3.74,1.56c-2.91,0-5.28-2.37-5.28-5.28
				C-69.8,158.67-67.44,156.31-64.53,156.31z"/>
			<path class="st2" d="M-82.21,140.96c0.06,0.01,0.12,0.02,0.18,0.02c0.44,0,0.82-0.31,0.91-0.75c0.36-1.79,1.08-3.02,2.16-3.64
				c2.24-1.3,6.04,0.07,10.42,3.75c0.39,0.33,0.98,0.28,1.31-0.11c0.33-0.39,0.28-0.98-0.11-1.31c-5.09-4.27-9.54-5.67-12.55-3.93
				c-1.56,0.9-2.59,2.55-3.06,4.89C-83.05,140.37-82.72,140.86-82.21,140.96z"/>
			<path class="st2" d="M-68.59,182.87c-4.36,3.65-8.14,4.99-10.37,3.7c-0.19-0.11-0.36-0.24-0.53-0.38
				c-0.39-0.34-0.98-0.3-1.31,0.09c-0.34,0.39-0.3,0.98,0.09,1.31c0.25,0.22,0.53,0.42,0.82,0.59c0.84,0.49,1.8,0.73,2.85,0.73
				c2.69,0,6.01-1.57,9.64-4.62c0.39-0.33,0.45-0.92,0.12-1.31C-67.61,182.59-68.2,182.54-68.59,182.87z"/>
			<path class="st2" d="M-54.05,155.53c-0.17-0.3-0.35-0.6-0.53-0.9c-0.26-0.44-0.83-0.59-1.28-0.32c-0.44,0.26-0.59,0.84-0.32,1.28
				c0.17,0.29,0.35,0.59,0.52,0.88c7.87,13.64,9.56,25.55,6.49,29.3c-0.68-0.91-1.75-1.5-2.97-1.5c-1.4,0-2.6,0.78-3.24,1.92
				c-3.83-1.71-8.42-5.85-12.78-11.57c-0.31-0.41-0.89-0.49-1.3-0.18c-0.41,0.31-0.49,0.9-0.18,1.31
				c4.63,6.09,9.6,10.49,13.77,12.26c0.01,2.05,1.68,3.71,3.72,3.71c2.05,0,3.72-1.67,3.72-3.72c0-0.12-0.02-0.23-0.03-0.34
				C-43.53,183.49-45.88,169.68-54.05,155.53z M-52.14,189.85c-1.03,0-1.86-0.84-1.86-1.86c0-1.03,0.84-1.86,1.86-1.86
				c1.03,0,1.86,0.84,1.86,1.86C-50.28,189.01-51.12,189.85-52.14,189.85z"/>
		</g>
		<g>
			<path class="st2" d="M62.81,155.33c0.5,0.11,1-0.2,1.11-0.71c0.11-0.5-0.2-1-0.71-1.11c-4.15-0.93-8.6-1.4-13.24-1.4
				c-9.73,0-18.66,2.08-24.49,5.7c-0.44,0.27-0.57,0.85-0.3,1.28c0.18,0.28,0.48,0.44,0.79,0.44c0.17,0,0.34-0.04,0.49-0.14
				c5.46-3.39,14.25-5.42,23.5-5.42C54.48,153.98,58.8,154.43,62.81,155.33z"/>
			<path class="st2" d="M79.77,167.01c-0.51,0-0.93,0.42-0.93,0.93v1.24c0,4.31-5.24,8.44-13.68,10.78
				c-0.49,0.14-0.79,0.65-0.65,1.15c0.12,0.41,0.49,0.68,0.9,0.68c0.08,0,0.17-0.01,0.25-0.03c9.42-2.62,15.04-7.32,15.04-12.58
				v-1.24C80.7,167.43,80.28,167.01,79.77,167.01z"/>
			<path class="st2" d="M59.32,181.21c-3,0.46-6.15,0.7-9.34,0.7c-15.64,0-28.86-5.83-28.86-12.72v-7.33
				c2,2.62,5.57,4.92,10.42,6.63c0.48,0.17,1.02-0.08,1.19-0.57c0.17-0.49-0.08-1.02-0.57-1.19c-6.91-2.43-11.04-6.16-11.04-9.96
				c0-6.9,13.22-12.72,28.86-12.72s28.86,5.83,28.86,12.72c0,1.22-0.42,2.4-1.18,3.52c-2.06-2.03-5.12-3.82-8.93-5.19
				c-0.48-0.17-1.02,0.07-1.19,0.56c-0.17,0.48,0.07,1.02,0.56,1.19c3.64,1.32,6.5,3,8.37,4.88c-4.49,4.51-14.81,7.76-26.48,7.76
				c-4.37,0-8.58-0.43-12.5-1.28c-0.5-0.1-1,0.21-1.11,0.71c-0.11,0.5,0.21,1,0.71,1.11c4.05,0.87,8.39,1.32,12.89,1.32
				c17.23,0,30.72-6.41,30.72-14.59c0-8.18-13.5-14.59-30.72-14.59s-30.72,6.41-30.72,14.59v12.41c0,8.18,13.5,14.59,30.72,14.59
				c3.29,0,6.53-0.24,9.63-0.72c0.51-0.08,0.86-0.55,0.78-1.06C60.31,181.48,59.84,181.14,59.32,181.21z"/>
			<path class="st2" d="M35.96,161.87c0.23,0,0.47-0.09,0.64-0.26l2.17-2.08c0.37-0.35,0.38-0.94,0.03-1.32
				c-0.36-0.37-0.95-0.39-1.32-0.03l-2.17,2.08c-0.37,0.36-0.38,0.94-0.03,1.32C35.47,161.77,35.71,161.87,35.96,161.87z"/>
			<path class="st2" d="M44.81,159.51l-1.48-2.62c-0.25-0.45-0.82-0.61-1.27-0.35c-0.45,0.25-0.6,0.82-0.35,1.27l1.48,2.62
				c0.17,0.3,0.49,0.47,0.81,0.47c0.16,0,0.31-0.04,0.46-0.12C44.9,160.52,45.06,159.95,44.81,159.51z"/>
			<path class="st2" d="M47.22,161.4c-0.47,0.21-0.68,0.76-0.47,1.23l1.23,2.75c0.16,0.34,0.49,0.55,0.85,0.55
				c0.13,0,0.26-0.03,0.38-0.08c0.47-0.21,0.68-0.76,0.47-1.23l-1.23-2.75C48.24,161.4,47.69,161.19,47.22,161.4z"/>
			<path class="st2" d="M60.44,159.07c-0.17-0.48-0.71-0.73-1.19-0.56l-2.83,1.02c-0.48,0.17-0.73,0.71-0.56,1.19
				c0.14,0.38,0.5,0.62,0.88,0.62c0.1,0,0.21-0.02,0.32-0.06l2.83-1.02C60.37,160.08,60.62,159.55,60.44,159.07z"/>
			<path class="st2" d="M67.69,165.35l2.11-2.15c0.36-0.37,0.36-0.96-0.01-1.32c-0.37-0.36-0.95-0.35-1.32,0.01l-2.11,2.15
				c-0.36,0.37-0.36,0.96,0.01,1.32c0.18,0.18,0.42,0.27,0.65,0.27C67.27,165.63,67.51,165.53,67.69,165.35z"/>
			<path class="st2" d="M50.62,159.25c0.07,0.46,0.47,0.8,0.92,0.8c0.04,0,0.09,0,0.13-0.01c0.51-0.07,0.86-0.55,0.79-1.06
				c-0.13-0.92-0.62-1.73-1.36-2.28c-0.74-0.55-1.66-0.78-2.57-0.65c-0.51,0.07-0.86,0.55-0.79,1.06c0.08,0.51,0.55,0.85,1.06,0.79
				c0.43-0.07,0.85,0.05,1.19,0.3C50.34,158.45,50.56,158.82,50.62,159.25z"/>
			<path class="st2" d="M42.67,163.87c-0.76,0.47-1.75,0.23-2.21-0.52c-0.27-0.44-0.85-0.57-1.28-0.31
				c-0.44,0.27-0.57,0.84-0.3,1.28c0.66,1.06,1.8,1.65,2.96,1.65c0.62,0,1.25-0.17,1.82-0.51c0.44-0.27,0.57-0.84,0.3-1.28
				C43.68,163.74,43.11,163.6,42.67,163.87z"/>
			<path class="st2" d="M30.48,164.29c0.13,0.06,0.26,0.09,0.39,0.09c0.35,0,0.69-0.2,0.85-0.54c0.8-1.74,0.03-3.8-1.71-4.6
				c-0.47-0.21-1.02-0.01-1.23,0.46c-0.21,0.47-0.01,1.02,0.46,1.23c0.81,0.37,1.16,1.33,0.79,2.13
				C29.81,163.53,30.01,164.08,30.48,164.29z"/>
			<path class="st2" d="M55.95,164.23c-0.01-0.52-0.41-0.89-0.95-0.92c-0.51,0.01-0.92,0.43-0.92,0.95
				c0.03,1.89,1.58,3.41,3.47,3.41c0.02,0,0.04,0,0.06,0c0.51-0.01,0.92-0.43,0.92-0.95c-0.01-0.51-0.43-0.89-0.95-0.92
				C56.69,165.83,55.97,165.11,55.95,164.23z"/>
			<path class="st2" d="M62.5,160.88c-0.51,0.01-0.92,0.43-0.92,0.95c0.01,0.51,0.42,0.92,0.93,0.92c0,0,0.01,0,0.01,0
				c0.93-0.02,1.79-0.39,2.44-1.06c0.65-0.67,0.99-1.54,0.98-2.47c-0.01-0.51-0.42-0.93-0.95-0.92c-0.51,0.01-0.92,0.43-0.92,0.95
				c0.01,0.43-0.15,0.84-0.45,1.14C63.33,160.7,62.93,160.87,62.5,160.88z"/>
		</g>
		<g>
			<path class="st2" d="M183.66,168.18c0-2.05-1.67-3.72-3.72-3.72c-2.05,0-3.72,1.67-3.72,3.72c0,2.05,1.67,3.72,3.72,3.72
				C181.99,171.91,183.66,170.24,183.66,168.18z M178.07,168.18c0-1.03,0.84-1.86,1.86-1.86c1.03,0,1.86,0.84,1.86,1.86
				c0,1.03-0.84,1.86-1.86,1.86C178.91,170.05,178.07,169.21,178.07,168.18z"/>
			<path class="st2" d="M195.58,178.1c-0.58-0.49-1.26-0.6-2.12-0.45c-0.05-0.83-0.31-1.6-0.79-2.2c-0.15-0.18-0.31-0.33-0.49-0.47
				c0.36-0.94,0.39-1.99,0.06-2.95c-0.83-2.36-2.58-5.57-6.26-8.86c1.85-1.25,2.8-3.55,2.19-5.82c-0.49-1.82-1.92-3.27-3.73-3.78
				c-0.49-0.14-1.01,0.15-1.15,0.64c-0.14,0.5,0.15,1.01,0.64,1.15c1.19,0.34,2.13,1.28,2.44,2.48c0.45,1.66-0.38,3.36-1.9,4.07
				c-0.68-0.54-1.42-1.08-2.22-1.61c0.7-3.05-0.78-6.26-3.64-7.68c-1.64-0.81-3.5-0.93-5.24-0.35c-1.33,0.45-2.46,1.28-3.28,2.38
				c-5.59-1.51-10.34-1.03-14.11,1.49c-4.43,2.96-6.44,8.04-6.84,11.81c-0.06,0.51-0.09,1-0.09,1.47c-0.01,0.51,0.41,0.94,0.92,0.94
				c0,0,0.01,0,0.01,0c0.51,0,0.92-0.41,0.93-0.92c0.01-0.42,0.03-0.85,0.08-1.3c0.34-3.2,2.12-7.86,6.02-10.46
				c3.21-2.15,7.31-2.58,12.17-1.35c-0.57,1.49-0.63,3.1-0.12,4.62c0.59,1.74,1.81,3.14,3.46,3.95c0.46,0.23,1.02,0.04,1.25-0.42
				c0.23-0.46,0.04-1.02-0.42-1.25c-1.2-0.59-2.09-1.61-2.52-2.88c-0.43-1.26-0.34-2.62,0.26-3.81c0.59-1.2,1.61-2.09,2.88-2.52
				c1.26-0.43,2.62-0.34,3.81,0.26c2.25,1.11,3.33,3.74,2.51,6.1c-0.14,0.41,0.01,0.86,0.38,1.09c4.28,2.75,6.81,5.6,8.31,8.04
				c-1.37,0.2-2.91,0.99-3.58,3.12c-0.3,0.95-0.25,1.87,0.1,2.73c-0.17,0.07-0.33,0.12-0.5,0.19c-1.96,0.76-4.4,1.68-7.42,2.38
				c-1.28-1.23-3.02-1.15-3.05-1.15c-8.48,0.1-9.91-0.75-11.56-1.73l-0.53-0.31c-0.45-0.25-1.02-0.1-1.27,0.35
				c-0.26,0.45-0.1,1.02,0.35,1.27l0.5,0.29c1.9,1.13,3.52,2.1,12.57,1.99c0.01,0,1.07-0.03,1.76,0.67c0.5,0.51,0.72,1.34,0.64,2.44
				c-0.02,0.28-0.07,1.11-1.75,1.76c-1.73,0.66-5.53,1.22-13.84,0.1c-0.52-0.08-0.98,0.29-1.05,0.8c-0.07,0.51,0.29,0.98,0.8,1.05
				c3.25,0.44,6.06,0.66,8.42,0.66c2.66,0,4.74-0.28,6.23-0.83c6.84-1.32,11.46-3.26,14.52-4.54c1.89-0.79,3.68-1.54,4.07-1.21
				c0.45,0.38,0.49,0.67,0.48,0.86c-0.04,0.72-1,1.61-1.51,1.96c-1.9,1.49-3.93,2.82-6.06,3.97c-0.45,0.24-0.62,0.81-0.38,1.26
				c0.17,0.31,0.49,0.49,0.82,0.49c0.15,0,0.3-0.04,0.44-0.11c2.21-1.19,4.34-2.59,6.27-4.1c0.22-0.15,2.17-1.54,2.27-3.37
				C196.75,179.86,196.58,178.94,195.58,178.1z M187.17,173.18c0.57-1.8,2.05-1.91,2.78-1.85c0.21,0.46,0.39,0.9,0.53,1.31
				c0.18,0.53,0.17,1.1-0.01,1.61c-0.22-0.03-0.44-0.07-0.67-0.07c-0.76,0.01-1.61,0.23-2.56,0.55
				C187.02,174.23,187,173.73,187.17,173.18z M189.59,179.01c-2.47,1.04-6.01,2.51-10.92,3.71c0.1-0.3,0.15-0.59,0.17-0.86
				c0.06-0.85-0.02-1.61-0.23-2.27c2.87-0.71,5.17-1.59,7.06-2.32c1.79-0.69,3.2-1.23,4.17-1.24c0.61,0,1.08,0.19,1.4,0.58
				c0.32,0.39,0.45,0.96,0.41,1.56C191.02,178.4,190.35,178.69,189.59,179.01z"/>
			<path class="st2" d="M182.16,188.65c-14.35,5.47-29.1,2.57-34.78,1.07c-1.15-0.31-1.96-1.35-1.95-2.55l0.05-10.33
				c0-0.71,0.29-1.38,0.8-1.87c0.51-0.49,1.16-0.74,1.89-0.74c3.1,0.08,5.59,0.24,7.59,0.49c0.51,0.06,0.98-0.3,1.04-0.81
				c0.06-0.51-0.3-0.98-0.81-1.04c-2.07-0.26-4.61-0.43-7.77-0.51c-1.19-0.03-2.33,0.41-3.19,1.23c-0.47-0.74-1.28-1.23-2.22-1.23
				h-4.9c-1.45,0-2.63,1.18-2.63,2.63v7.44c0,0.51,0.42,0.93,0.93,0.93s0.93-0.42,0.93-0.93v-7.44c0-0.42,0.35-0.77,0.77-0.77h4.9
				c0.42,0,0.77,0.34,0.77,0.77v14.03c0,0.42-0.34,0.77-0.77,0.77h-4.9c-0.42,0-0.77-0.34-0.77-0.77v-1.63
				c0-0.51-0.42-0.93-0.93-0.93s-0.93,0.42-0.93,0.93v1.63c0,1.45,1.18,2.63,2.63,2.63h4.9c0.92,0,1.73-0.48,2.2-1.19
				c0.53,0.49,1.18,0.86,1.91,1.06c3.27,0.86,9.48,2.18,16.91,2.18c5.85,0,12.46-0.82,19.01-3.31c0.48-0.18,0.72-0.72,0.54-1.2
				C183.18,188.7,182.64,188.46,182.16,188.65z"/>
			<path class="st2" d="M146.27,166.73c0.51,0,0.93-0.42,0.93-0.93c0-0.51-0.42-0.93-0.93-0.93c-3.3,0-5.99-2.69-5.99-5.99
				c0-3.3,2.69-5.99,5.99-5.99h4.36c5.69,0,10.32-4.63,10.32-10.32c0-0.38-0.02-0.75-0.06-1.11c-0.05-0.51-0.51-0.89-1.02-0.83
				c-0.51,0.06-0.88,0.51-0.83,1.03c0.03,0.3,0.05,0.61,0.05,0.92c0,4.66-3.79,8.46-8.46,8.46h-4.36c-4.33,0-7.85,3.52-7.85,7.85
				S141.95,166.73,146.27,166.73z"/>
			<path class="st2" d="M141.25,143.51c0.51,0,0.93-0.42,0.93-0.93c0-4.66,3.79-8.46,8.46-8.46c2.76,0,5.35,1.35,6.93,3.61
				c0.29,0.42,0.88,0.52,1.3,0.23c0.42-0.29,0.52-0.88,0.23-1.3c-1.93-2.76-5.09-4.4-8.45-4.4c-5.69,0-10.32,4.63-10.32,10.32
				C140.32,143.09,140.73,143.51,141.25,143.51z"/>
		</g>
		<g>
			<path class="st2" d="M261.6,153.96c0.25,0,0.51-0.1,0.69-0.31c0.76-0.84,1.58-1.69,2.42-2.54l0.19-0.19
				c0.36-0.37,0.36-0.96-0.01-1.32c-0.37-0.36-0.96-0.36-1.32,0.01l-0.18,0.18c-0.87,0.87-1.7,1.74-2.48,2.6
				c-0.35,0.38-0.32,0.97,0.06,1.32C261.15,153.88,261.37,153.96,261.6,153.96z"/>
			<path class="st2" d="M254.98,161.91c0.15,0.09,0.32,0.14,0.48,0.14c0.32,0,0.62-0.16,0.8-0.45c0.62-1.03,1.32-2.07,2.07-3.11
				c0.3-0.42,0.21-1-0.21-1.3c-0.42-0.3-1-0.21-1.3,0.21c-0.78,1.08-1.51,2.17-2.16,3.24C254.4,161.07,254.54,161.64,254.98,161.91z
				"/>
			<path class="st2" d="M252.12,176.67c-0.06-0.51-0.51-0.89-1.03-0.83c-0.51,0.06-0.88,0.52-0.83,1.03
				c0.14,1.34,0.43,2.66,0.86,3.92c0.13,0.39,0.5,0.63,0.88,0.63c0.1,0,0.2-0.01,0.3-0.05c0.49-0.17,0.75-0.69,0.58-1.18
				C252.51,179.06,252.25,177.88,252.12,176.67z"/>
			<path class="st2" d="M252.99,165.93c-0.48-0.18-1.02,0.06-1.2,0.54c-0.48,1.27-0.86,2.54-1.12,3.78c-0.11,0.5,0.21,1,0.72,1.11
				c0.07,0.01,0.13,0.02,0.2,0.02c0.43,0,0.82-0.3,0.91-0.74c0.25-1.15,0.6-2.34,1.05-3.52
				C253.71,166.65,253.47,166.11,252.99,165.93z"/>
			<path class="st2" d="M257.12,186.85c-0.47-0.47-0.9-0.95-1.3-1.44c-0.33-0.4-0.91-0.46-1.31-0.14c-0.4,0.33-0.46,0.91-0.14,1.31
				c0.44,0.54,0.92,1.07,1.43,1.58c0.44,0.44,0.9,0.86,1.37,1.26c0.17,0.15,0.39,0.22,0.6,0.22c0.27,0,0.53-0.11,0.72-0.33
				c0.33-0.39,0.28-0.98-0.11-1.31C257.94,187.64,257.53,187.25,257.12,186.85z"/>
			<path class="st2" d="M286.22,136.4c0.11,0,0.22-0.02,0.33-0.06c1.19-0.45,2.38-0.84,3.54-1.16c0.5-0.14,0.79-0.65,0.65-1.15
				c-0.14-0.5-0.65-0.79-1.15-0.65c-1.21,0.33-2.46,0.74-3.71,1.21c-0.48,0.18-0.72,0.72-0.54,1.2
				C285.49,136.17,285.85,136.4,286.22,136.4z"/>
			<path class="st2" d="M306.51,137.47c0.43,0.43,0.82,0.9,1.17,1.4c0.18,0.26,0.47,0.4,0.77,0.4c0.18,0,0.37-0.05,0.53-0.17
				c0.42-0.29,0.53-0.88,0.24-1.3c-0.41-0.59-0.88-1.15-1.38-1.66c-0.46-0.46-0.97-0.89-1.5-1.27c-0.42-0.3-1-0.2-1.3,0.21
				c-0.3,0.42-0.2,1,0.22,1.3C305.69,136.72,306.12,137.08,306.51,137.47z"/>
			<path class="st2" d="M268.92,146.91c0.21,0,0.42-0.07,0.6-0.22c0.96-0.81,1.95-1.6,2.94-2.35c0.41-0.31,0.49-0.9,0.18-1.31
				c-0.31-0.41-0.9-0.49-1.31-0.18c-1.02,0.77-2.04,1.58-3.02,2.41c-0.39,0.33-0.44,0.92-0.11,1.32
				C268.39,146.8,268.66,146.91,268.92,146.91z"/>
			<path class="st2" d="M296.15,134.16c1.28-0.06,2.5-0.01,3.63,0.15c0.05,0.01,0.09,0.01,0.13,0.01c0.46,0,0.86-0.34,0.92-0.8
				c0.07-0.51-0.28-0.98-0.79-1.06c-1.24-0.18-2.59-0.24-3.98-0.17c-0.52,0.02-0.91,0.46-0.89,0.98
				C295.19,133.79,295.69,134.21,296.15,134.16z"/>
			<path class="st2" d="M277.14,140.94c0.17,0,0.34-0.04,0.49-0.14c1.08-0.67,2.18-1.3,3.26-1.87c0.46-0.24,0.63-0.81,0.39-1.26
				c-0.24-0.46-0.81-0.63-1.26-0.38c-1.11,0.59-2.24,1.24-3.36,1.93c-0.44,0.27-0.58,0.85-0.31,1.28
				C276.52,140.78,276.83,140.94,277.14,140.94z"/>
			<path class="st2" d="M267.06,191.83c-1.2-0.15-2.38-0.42-3.5-0.82c-0.48-0.17-1.02,0.08-1.19,0.57
				c-0.17,0.49,0.08,1.02,0.57,1.19c1.25,0.45,2.57,0.76,3.91,0.92c0.04,0,0.08,0.01,0.11,0.01c0.46,0,0.87-0.35,0.92-0.82
				C267.93,192.35,267.57,191.89,267.06,191.83z"/>
			<path class="st2" d="M299.53,171.65c-0.75,0.99-1.55,1.98-2.36,2.94c-0.33,0.39-0.28,0.98,0.11,1.31
				c0.17,0.15,0.39,0.22,0.6,0.22c0.26,0,0.53-0.11,0.71-0.33c0.83-0.98,1.64-1.99,2.42-3.01c0.31-0.41,0.23-1-0.18-1.31
				C300.42,171.16,299.84,171.24,299.53,171.65z"/>
			<path class="st2" d="M311.54,144.12c-0.07-0.51-0.53-0.88-1.05-0.8c-0.51,0.07-0.87,0.54-0.8,1.05c0.1,0.76,0.15,1.57,0.15,2.4
				c0,0.41-0.01,0.82-0.04,1.23c-0.03,0.51,0.36,0.96,0.88,0.99c0.02,0,0.04,0,0.06,0c0.49,0,0.9-0.38,0.93-0.88
				c0.03-0.45,0.04-0.9,0.04-1.34C311.71,145.86,311.65,144.97,311.54,144.12z"/>
			<path class="st2" d="M309.9,153.4c-0.5-0.14-1.01,0.15-1.15,0.65c-0.32,1.15-0.72,2.34-1.18,3.53c-0.18,0.48,0.05,1.02,0.54,1.21
				c0.11,0.04,0.22,0.06,0.34,0.06c0.37,0,0.73-0.23,0.87-0.6c0.48-1.25,0.89-2.49,1.23-3.7
				C310.68,154.05,310.39,153.54,309.9,153.4z"/>
			<path class="st2" d="M285.28,185.79c-1.05,0.75-2.1,1.44-3.12,2.05c-0.44,0.26-0.59,0.84-0.32,1.28c0.17,0.29,0.49,0.45,0.8,0.45
				c0.16,0,0.33-0.04,0.48-0.13c1.07-0.64,2.16-1.36,3.25-2.14c0.42-0.3,0.51-0.88,0.21-1.3
				C286.28,185.59,285.7,185.49,285.28,185.79z"/>
			<path class="st2" d="M306.22,162.86c-0.46-0.25-1.02-0.07-1.26,0.38c-0.58,1.07-1.21,2.17-1.88,3.25
				c-0.27,0.44-0.14,1.01,0.3,1.28c0.15,0.1,0.32,0.14,0.49,0.14c0.31,0,0.62-0.16,0.79-0.44c0.69-1.12,1.35-2.24,1.94-3.35
				C306.85,163.67,306.68,163.11,306.22,162.86z"/>
			<path class="st2" d="M292.86,179.27c-0.92,0.92-1.83,1.79-2.73,2.59c-0.38,0.34-0.42,0.93-0.07,1.32
				c0.18,0.21,0.44,0.31,0.69,0.31c0.22,0,0.45-0.08,0.62-0.24c0.92-0.83,1.86-1.72,2.82-2.68l-0.62-0.7l0.66,0.66
				c0.36-0.36,0.34-0.93-0.03-1.29C293.84,178.87,293.22,178.9,292.86,179.27z"/>
			<path class="st2" d="M276.61,190.53c-1.19,0.43-2.38,0.77-3.53,1.01c-0.51,0.1-0.83,0.6-0.73,1.1c0.09,0.44,0.48,0.75,0.91,0.75
				c0.06,0,0.12-0.01,0.19-0.02c1.24-0.25,2.52-0.62,3.8-1.09c0.48-0.18,0.73-0.71,0.56-1.2
				C277.63,190.6,277.09,190.35,276.61,190.53z"/>
			<path class="st2" d="M263.7,186.52c0.35,0,0.68-0.2,0.84-0.53c0.22-0.46,0.03-1.02-0.44-1.24c-1.03-0.5-1.99-1.18-2.84-2.03
				c-2.75-2.75-3.65-6.49-2.62-10.83c1.21-5.09,4.91-10.75,10.99-16.83c3.27-3.27,6.71-6.14,10.25-8.55
				c0.42-0.29,0.54-0.87,0.25-1.3c-0.29-0.43-0.87-0.53-1.3-0.25c-3.63,2.47-7.17,5.42-10.52,8.77
				c-6.33,6.33-10.19,12.29-11.49,17.72c-1.19,5-0.11,9.35,3.11,12.58c1,1,2.13,1.81,3.35,2.39
				C263.42,186.49,263.56,186.52,263.7,186.52z"/>
			<path class="st2" d="M293.5,172.2c0.34-0.38,0.3-0.98-0.08-1.32c-0.38-0.34-0.97-0.31-1.32,0.08c-1.01,1.14-2.08,2.28-3.18,3.38
				c-7.29,7.29-14.15,11.23-19.83,11.4c-0.52,0.02-0.92,0.44-0.9,0.96c0.01,0.51,0.43,0.91,0.93,0.91c0.01,0,0.02,0,0.03,0
				c6.16-0.19,13.46-4.32,21.09-11.95C291.37,174.53,292.46,173.37,293.5,172.2z"/>
			<path class="st2" d="M303.69,140.29c-3.77-3.77-11.37-3.07-20.33,1.88c-0.45,0.25-0.61,0.82-0.36,1.27
				c0.25,0.45,0.82,0.62,1.27,0.36c8.07-4.46,15-5.3,18.11-2.2c4.11,4.11,1.3,14.46-6.83,25.18c-0.31,0.41-0.23,1,0.18,1.31
				c0.17,0.13,0.37,0.19,0.56,0.19c0.28,0,0.56-0.13,0.74-0.37C305.87,156.25,308.55,145.14,303.69,140.29z"/>
			<path class="st2" d="M282.91,152.67c0.04,0,0.09,0,0.13-0.01l4.35-0.62c0.51-0.07,0.86-0.55,0.79-1.06
				c-0.07-0.51-0.54-0.87-1.06-0.79l-4.35,0.62c-0.51,0.07-0.86,0.55-0.79,1.06C282.05,152.33,282.45,152.67,282.91,152.67z"/>
			<path class="st2" d="M262.66,171.33c-0.51-0.09-0.99,0.25-1.08,0.76c-0.09,0.51,0.25,0.99,0.76,1.08l4.66,0.83
				c0.06,0.01,0.11,0.01,0.16,0.01c0.44,0,0.84-0.32,0.92-0.77c0.09-0.51-0.25-0.99-0.76-1.08L262.66,171.33z"/>
			<path class="st2" d="M285.81,162.94c-0.17,0.49,0.1,1.02,0.58,1.18l3.62,1.23c0.1,0.04,0.2,0.05,0.3,0.05
				c0.39,0,0.75-0.24,0.88-0.63c0.17-0.49-0.1-1.02-0.58-1.18l-3.62-1.23C286.5,162.19,285.97,162.45,285.81,162.94z"/>
			<path class="st2" d="M297,153.08c0.43,0,0.82-0.31,0.91-0.75l0.93-4.56c0.1-0.51-0.22-1-0.73-1.1c-0.51-0.11-1,0.22-1.1,0.73
				l-0.93,4.56c-0.1,0.51,0.22,1,0.73,1.1C296.88,153.07,296.94,153.08,297,153.08z"/>
			<path class="st2" d="M277.16,167.52c-0.49-0.14-1.01,0.14-1.15,0.64l-1.35,4.66c-0.14,0.49,0.14,1.01,0.64,1.15
				c0.09,0.02,0.17,0.04,0.26,0.04c0.41,0,0.78-0.27,0.9-0.67l1.35-4.66C277.94,168.18,277.65,167.66,277.16,167.52z"/>
			<path class="st2" d="M280.5,158.08c-1.33,0.52-2.84-0.14-3.35-1.48c-0.19-0.48-0.73-0.72-1.21-0.53
				c-0.48,0.19-0.72,0.73-0.53,1.21c0.68,1.76,2.37,2.84,4.16,2.84c0.54,0,1.08-0.1,1.61-0.3c0.48-0.18,0.72-0.73,0.53-1.21
				C281.52,158.13,280.98,157.9,280.5,158.08z"/>
			<path class="st2" d="M268.85,167.36c1.09-0.49,1.92-1.37,2.34-2.48c0.43-1.11,0.39-2.32-0.1-3.41c-0.21-0.47-0.76-0.68-1.23-0.47
				c-0.47,0.21-0.68,0.76-0.47,1.23c0.28,0.63,0.3,1.34,0.06,1.98c-0.25,0.65-0.73,1.16-1.36,1.44c-0.47,0.21-0.68,0.76-0.47,1.23
				c0.16,0.35,0.5,0.55,0.85,0.55C268.6,167.44,268.73,167.41,268.85,167.36z"/>
			<path class="st2" d="M270.61,179c0.69,0.02,1.33,0.32,1.8,0.83c0.18,0.2,0.43,0.3,0.69,0.3c0.23,0,0.45-0.08,0.63-0.25
				c0.38-0.35,0.4-0.94,0.05-1.32c-0.81-0.87-1.91-1.38-3.1-1.42c-1.19-0.04-2.32,0.38-3.2,1.18c-0.38,0.35-0.4,0.94-0.05,1.32
				c0.35,0.38,0.94,0.4,1.32,0.05C269.26,179.22,269.91,178.97,270.61,179z"/>
			<path class="st2" d="M295.26,160.55c-0.56-0.41-0.92-1.02-1.02-1.7c-0.1-0.69,0.07-1.37,0.48-1.92c0.31-0.41,0.22-1-0.2-1.3
				c-0.41-0.31-1-0.22-1.3,0.19c-0.71,0.96-1,2.13-0.83,3.31c0.17,1.18,0.8,2.21,1.76,2.92c0.17,0.12,0.36,0.18,0.55,0.18
				c0.29,0,0.57-0.13,0.75-0.38C295.76,161.44,295.67,160.85,295.26,160.55z"/>
			<circle class="st2" cx="286.77" cy="170.82" r="0.93"/>
			<path class="st2" d="M280.86,172.07c0,0.51,0.42,0.93,0.93,0.93c0.52,0,0.93-0.42,0.93-0.93c0-0.52-0.42-0.93-0.93-0.93
				C281.28,171.14,280.86,171.55,280.86,172.07z"/>
			<circle class="st2" cx="276.82" cy="178.29" r="0.93"/>
			<path class="st2" d="M271.85,175.49c0.52,0,0.93-0.42,0.93-0.93c0-0.51-0.42-0.93-0.93-0.93c-0.52,0-0.93,0.42-0.93,0.93
				C270.91,175.07,271.33,175.49,271.85,175.49z"/>
			<path class="st2" d="M278.38,164.61c0,0.51,0.42,0.93,0.93,0.93c0.52,0,0.93-0.42,0.93-0.93c0-0.51-0.42-0.93-0.93-0.93
				C278.79,163.68,278.38,164.09,278.38,164.61z"/>
			<circle class="st2" cx="274.33" cy="162.12" r="0.93"/>
			<path class="st2" d="M290.19,159.63c0-0.52-0.42-0.93-0.93-0.93c-0.52,0-0.93,0.42-0.93,0.93c0,0.51,0.42,0.93,0.93,0.93
				C289.77,160.57,290.19,160.15,290.19,159.63z"/>
			<circle class="st2" cx="285.53" cy="155.9" r="0.93"/>
			<path class="st2" d="M292.99,146.89c0.52,0,0.93-0.42,0.93-0.93c0-0.51-0.42-0.93-0.93-0.93c-0.52,0-0.93,0.42-0.93,0.93
				C292.05,146.47,292.47,146.89,292.99,146.89z"/>
			<path class="st2" d="M301.38,144.71c0-0.51-0.42-0.93-0.93-0.93c-0.51,0-0.93,0.42-0.93,0.93c0,0.51,0.42,0.93,0.93,0.93
				C300.96,145.64,301.38,145.23,301.38,144.71z"/>
		</g>
		<g>
			<path class="st2" d="M-156.43,271.27h-14.48c-0.51,0-0.93,0.42-0.93,0.93c0,0.51,0.42,0.93,0.93,0.93h14.48
				c0.51,0,0.93-0.42,0.93-0.93C-155.49,271.69-155.91,271.27-156.43,271.27z"/>
			<path class="st2" d="M-171.57,279.04c0.18,0.17,0.42,0.27,0.66,0.27c0.25,0,0.49-0.1,0.67-0.27c0.17-0.17,0.27-0.42,0.27-0.66
				c0-0.25-0.1-0.5-0.27-0.67c-0.36-0.35-0.97-0.35-1.33,0c-0.17,0.17-0.27,0.42-0.27,0.67
				C-171.85,278.62-171.75,278.87-171.57,279.04z"/>
			<path class="st2" d="M-166.09,277.45c-0.51,0-0.93,0.41-0.93,0.93c0,0.51,0.42,0.92,0.93,0.92c0.52,0,0.93-0.41,0.93-0.92
				C-165.16,277.86-165.56,277.45-166.09,277.45z"/>
			<path class="st2" d="M-161.26,277.45c-0.51,0-0.93,0.41-0.93,0.93c0,0.51,0.42,0.92,0.93,0.92c0.52,0,0.93-0.41,0.93-0.92
				C-160.33,277.86-160.74,277.45-161.26,277.45z"/>
			<path class="st2" d="M-156.43,279.3c0.25,0,0.49-0.09,0.67-0.27c0.16-0.17,0.26-0.41,0.26-0.65c0-0.25-0.1-0.5-0.27-0.67
				c-0.35-0.35-0.97-0.34-1.32,0c-0.17,0.17-0.27,0.42-0.27,0.67c0,0.24,0.1,0.47,0.27,0.66
				C-156.91,279.22-156.68,279.3-156.43,279.3z"/>
			<path class="st2" d="M-166.09,283.62c-0.51,0-0.93,0.42-0.93,0.93c0,0.52,0.42,0.93,0.93,0.93c0.52,0,0.93-0.41,0.93-0.93
				C-165.16,284.05-165.56,283.62-166.09,283.62z"/>
			<path class="st2" d="M-161.26,283.62c-0.51,0-0.93,0.42-0.93,0.93c0,0.52,0.42,0.93,0.93,0.93c0.52,0,0.93-0.41,0.93-0.93
				C-160.33,284.05-160.74,283.62-161.26,283.62z"/>
			<path class="st2" d="M-171.57,285.23c0.18,0.16,0.42,0.26,0.66,0.26c0.25,0,0.49-0.1,0.67-0.27c0.17-0.17,0.27-0.41,0.27-0.66
				c0-0.24-0.11-0.48-0.29-0.66c-0.35-0.35-0.96-0.35-1.32,0c-0.17,0.17-0.27,0.41-0.27,0.66
				C-171.85,284.8-171.75,285.04-171.57,285.23z"/>
			<path class="st2" d="M-171.57,291.39c0.18,0.17,0.42,0.27,0.66,0.27c0.25,0,0.49-0.1,0.67-0.27c0.16-0.17,0.27-0.41,0.27-0.66
				c0-0.25-0.1-0.48-0.29-0.66c-0.35-0.35-0.96-0.35-1.32,0c-0.17,0.17-0.27,0.41-0.27,0.66
				C-171.85,290.99-171.75,291.22-171.57,291.39z"/>
			<path class="st2" d="M-161.26,289.81c-0.51,0-0.93,0.42-0.93,0.93c0,0.52,0.42,0.93,0.93,0.93c0.52,0,0.93-0.41,0.93-0.93
				C-160.33,290.23-160.74,289.81-161.26,289.81z"/>
			<path class="st2" d="M-166.09,289.81c-0.51,0-0.93,0.42-0.93,0.93c0,0.52,0.42,0.93,0.93,0.93c0.52,0,0.93-0.41,0.93-0.93
				C-165.16,290.23-165.56,289.81-166.09,289.81z"/>
			<path class="st2" d="M-156.43,291.67c0.51,0,0.93-0.42,0.93-0.93v-6.18c0-0.51-0.42-0.93-0.93-0.93s-0.93,0.42-0.93,0.93v6.18
				C-157.36,291.25-156.94,291.67-156.43,291.67z"/>
			<path class="st2" d="M-153.6,265.09h-20.14c-1.88,0-3.41,1.53-3.41,3.41v25.93c0,1.88,1.53,3.41,3.41,3.41h2.83
				c0.51,0,0.93-0.42,0.93-0.93c0-0.51-0.42-0.93-0.93-0.93h-2.83c-0.86,0-1.55-0.7-1.55-1.55V268.5c0-0.86,0.69-1.55,1.55-1.55
				h20.14c0.85,0,1.55,0.7,1.55,1.55v7.39c0,0.51,0.42,0.93,0.93,0.93c0.51,0,0.93-0.42,0.93-0.93v-7.39
				C-150.18,266.62-151.72,265.09-153.6,265.09z"/>
			<path class="st2" d="M-151.11,279.93c-0.51,0-0.93,0.42-0.93,0.93v13.57c0,0.85-0.7,1.55-1.55,1.55h-12.35
				c-0.51,0-0.93,0.42-0.93,0.93c0,0.51,0.42,0.93,0.93,0.93h2.58v6.74h-44.06v-23.73c0-0.51-0.42-0.93-0.93-0.93
				c-0.51,0-0.93,0.42-0.93,0.93v24.66c0,0.51,0.42,0.93,0.93,0.93h45.92c0.52,0,0.93-0.42,0.93-0.93v-7.67h7.91
				c1.88,0,3.41-1.53,3.41-3.41v-13.57C-150.18,280.35-150.6,279.93-151.11,279.93z"/>
			<path class="st2" d="M-208.35,276.83c0.51,0,0.93-0.42,0.93-0.93V253.3c0-3.55,2.89-6.44,6.43-6.44c3.55,0,6.43,2.89,6.43,6.44
				c0,0.51,0.42,0.93,0.93,0.93h30.26v6.82c0,0.51,0.42,0.93,0.93,0.93c0.52,0,0.93-0.42,0.93-0.93v-6.82h6.43
				c0.51,0,0.93-0.42,0.93-0.93c0-4.58-3.72-8.3-8.3-8.3h-15.39c-0.51,0-0.93,0.42-0.93,0.93c0,0.51,0.42,0.93,0.93,0.93h15.39
				c3.23,0,5.92,2.4,6.37,5.5h-36.68c-0.25-2.21-1.37-4.17-3.01-5.5h12.97c0.51,0,0.93-0.42,0.93-0.93c0-0.51-0.42-0.93-0.93-0.93
				h-18.2c-4.57,0-8.3,3.72-8.3,8.3v22.59C-209.28,276.41-208.87,276.83-208.35,276.83z"/>
			<path class="st2" d="M-202.12,260.52h12c0.51,0,0.93-0.42,0.93-0.93c0-0.51-0.42-0.93-0.93-0.93h-12c-0.51,0-0.93,0.42-0.93,0.93
				C-203.05,260.1-202.64,260.52-202.12,260.52z"/>
			<path class="st2" d="M-202.12,267.97h6c0.51,0,0.93-0.42,0.93-0.93c0-0.51-0.42-0.93-0.93-0.93h-6c-0.51,0-0.93,0.42-0.93,0.93
				C-203.05,267.55-202.64,267.97-202.12,267.97z"/>
			<path class="st2" d="M-181.74,267.03c0-0.51-0.42-0.93-0.93-0.93h-8.48c-0.51,0-0.93,0.42-0.93,0.93c0,0.51,0.42,0.93,0.93,0.93
				h8.48C-182.16,267.97-181.74,267.55-181.74,267.03z"/>
			<path class="st2" d="M-186.71,274.48c0-0.51-0.42-0.93-0.93-0.93h-14.48c-0.51,0-0.93,0.42-0.93,0.93c0,0.51,0.42,0.93,0.93,0.93
				h14.48C-187.13,275.41-186.71,275-186.71,274.48z"/>
			<path class="st2" d="M-202.12,292.87c0.51,0,0.93-0.42,0.93-0.93v-5.04c0-0.51-0.42-0.93-0.93-0.93c-0.51,0-0.93,0.42-0.93,0.93
				v5.04C-203.05,292.45-202.64,292.87-202.12,292.87z"/>
			<path class="st2" d="M-194.98,291.94v-7.52c0-0.51-0.42-0.93-0.93-0.93c-0.51,0-0.93,0.42-0.93,0.93v7.52
				c0,0.51,0.42,0.93,0.93,0.93C-195.4,292.87-194.98,292.45-194.98,291.94z"/>
			<path class="st2" d="M-190.64,286.9v5.04c0,0.51,0.42,0.93,0.93,0.93c0.51,0,0.93-0.42,0.93-0.93v-5.04
				c0-0.51-0.42-0.93-0.93-0.93C-190.22,285.97-190.64,286.39-190.64,286.9z"/>
			<path class="st2" d="M-182.57,281.93c0-0.51-0.42-0.93-0.93-0.93s-0.93,0.42-0.93,0.93v10c0,0.51,0.42,0.93,0.93,0.93
				s0.93-0.42,0.93-0.93V281.93z"/>
			<path class="st2" d="M-168.96,259.59c0-0.51-0.42-0.93-0.93-0.93h-15.21c-0.51,0-0.93,0.42-0.93,0.93c0,0.51,0.42,0.93,0.93,0.93
				h15.21C-169.38,260.52-168.96,260.1-168.96,259.59z"/>
			<path class="st2" d="M-187.64,299.18h4.14c0.51,0,0.93-0.42,0.93-0.93c0-0.51-0.42-0.93-0.93-0.93h-4.14
				c-0.51,0-0.93,0.42-0.93,0.93C-188.57,298.76-188.16,299.18-187.64,299.18z"/>
			<path class="st2" d="M-202.12,299.18h9.52c0.51,0,0.93-0.42,0.93-0.93c0-0.51-0.42-0.93-0.93-0.93h-9.52
				c-0.51,0-0.93,0.42-0.93,0.93C-203.05,298.76-202.64,299.18-202.12,299.18z"/>
		</g>
		<g>
			<path class="st2" d="M-94.32,256.41c0.52,0,0.93-0.42,0.93-0.93v-8.61h27.93v27.93h-11.47c-0.51,0-0.93,0.42-0.93,0.93
				c0,0.51,0.42,0.93,0.93,0.93h11.47v10.01c-1.86-0.84-4.94-2.13-6.3-2.13c-3.36,0-6.09,2.73-6.09,6.09c0,3.36,2.73,6.09,6.09,6.09
				c1.34,0,4.44-1.28,6.3-2.11v5.95c0,0.51,0.42,0.93,0.93,0.93c0.51,0,0.93-0.42,0.93-0.93v-7.4c0-0.32-0.16-0.62-0.43-0.79
				c-0.27-0.17-0.61-0.19-0.9-0.06c-2.23,1.05-5.83,2.54-6.83,2.54c-2.33,0-4.22-1.9-4.22-4.23c0-2.33,1.9-4.23,4.22-4.23
				c1.02,0,4.6,1.5,6.83,2.57c0.29,0.14,0.63,0.12,0.9-0.05c0.27-0.17,0.44-0.47,0.44-0.79v-11.47h10.01
				c-0.84,1.86-2.13,4.94-2.13,6.3c0,1.07,0.28,2.13,0.82,3.05c0.26,0.44,0.83,0.6,1.27,0.34c0.44-0.26,0.6-0.83,0.34-1.27
				c-0.37-0.64-0.57-1.37-0.57-2.11c0-1.02,1.5-4.6,2.57-6.83c0.14-0.29,0.12-0.63-0.05-0.9c-0.17-0.27-0.47-0.43-0.79-0.43H-63.6
				v-28.86c0-0.51-0.42-0.93-0.93-0.93h-29.79c-0.51,0-0.93,0.42-0.93,0.93v9.54C-95.25,255.99-94.83,256.41-94.32,256.41z"/>
			<path class="st2" d="M-81.17,276.23c0.17-0.27,0.19-0.61,0.06-0.9c-1.05-2.24-2.54-5.83-2.54-6.83c0-2.33,1.9-4.23,4.23-4.23
				c2.33,0,4.23,1.9,4.23,4.23c0,0.15-0.05,0.64-0.49,1.9c-0.17,0.49,0.09,1.02,0.57,1.19c0.49,0.17,1.02-0.09,1.19-0.57
				c0.4-1.15,0.59-1.95,0.59-2.51c0-3.36-2.73-6.09-6.09-6.09c-3.36,0-6.09,2.73-6.09,6.09c0,1.34,1.28,4.44,2.11,6.3h-9.98v-13.11
				c0-0.51-0.42-0.93-0.93-0.93c-0.51,0-0.93,0.42-0.93,0.93v14.04v29.79c0,0.51,0.42,0.93,0.93,0.93c0.52,0,0.93-0.42,0.93-0.93
				v-28.86h11.43C-81.64,276.66-81.34,276.5-81.17,276.23z"/>
			<path class="st2" d="M-46.25,304.59h-41.86c-0.51,0-0.93,0.42-0.93,0.93c0,0.51,0.42,0.93,0.93,0.93h41.86
				c0.51,0,0.93-0.42,0.93-0.93C-45.32,305.01-45.74,304.59-46.25,304.59z"/>
			<path class="st2" d="M-34.74,274.8H-47.1c-0.32,0-0.62,0.16-0.79,0.43c-0.17,0.27-0.19,0.61-0.06,0.9
				c1.05,2.23,2.54,5.83,2.54,6.83c0,2.33-1.9,4.23-4.23,4.23c-0.51,0-0.93,0.42-0.93,0.93c0,0.51,0.42,0.93,0.93,0.93
				c3.36,0,6.09-2.73,6.09-6.09c0-1.34-1.28-4.44-2.11-6.3h9.98v27.93h-4.38c-0.51,0-0.93,0.42-0.93,0.93
				c0,0.51,0.42,0.93,0.93,0.93h5.31c0.51,0,0.93-0.42,0.93-0.93v-29.79C-33.81,275.21-34.22,274.8-34.74,274.8z"/>
			<path class="st2" d="M-55.41,257.26c0,0.51,0.42,0.93,0.93,0.93c0.51,0,0.93-0.42,0.93-0.93c0-1.29,0.57-2.49,1.57-3.3
				c1.02-0.82,2.3-1.13,3.61-0.85c1.6,0.33,2.9,1.63,3.23,3.23c0.38,1.82-0.39,3.62-1.96,4.57c-1.96,1.19-3.13,3.19-3.13,5.36
				c0,0.51,0.42,0.93,0.93,0.93c0.51,0,0.93-0.42,0.93-0.93c0-1.51,0.84-2.92,2.24-3.77c2.25-1.37,3.36-3.93,2.81-6.54
				c-0.48-2.31-2.36-4.19-4.67-4.67c-1.85-0.39-3.73,0.06-5.16,1.23C-54.59,253.68-55.41,255.41-55.41,257.26z"/>
			<path class="st2" d="M-49.29,269.39c-0.51,0-0.93,0.42-0.93,0.93v0.38c0,0.51,0.42,0.93,0.93,0.93c0.51,0,0.93-0.42,0.93-0.93
				v-0.38C-48.36,269.81-48.78,269.39-49.29,269.39z"/>
			<path class="st2" d="M-59.07,246.87h5.46c0.51,0,0.93-0.42,0.93-0.93c0-0.51-0.42-0.93-0.93-0.93h-5.46
				c-0.51,0-0.93,0.42-0.93,0.93C-60,246.45-59.58,246.87-59.07,246.87z"/>
			<path class="st2" d="M-48.14,246.87h5.46c0.51,0,0.93-0.42,0.93-0.93c0-0.51-0.42-0.93-0.93-0.93h-5.46
				c-0.52,0-0.93,0.42-0.93,0.93C-49.07,246.45-48.66,246.87-48.14,246.87z"/>
			<path class="st2" d="M-34.74,245.01h-2.48c-0.52,0-0.93,0.42-0.93,0.93c0,0.51,0.42,0.93,0.93,0.93h1.55v1.55
				c0,0.51,0.42,0.93,0.93,0.93c0.51,0,0.93-0.42,0.93-0.93v-2.48C-33.81,245.42-34.22,245.01-34.74,245.01z"/>
			<path class="st2" d="M-34.74,252.95c-0.51,0-0.93,0.42-0.93,0.93v5.46c0,0.51,0.42,0.93,0.93,0.93c0.51,0,0.93-0.42,0.93-0.93
				v-5.46C-33.81,253.37-34.22,252.95-34.74,252.95z"/>
			<path class="st2" d="M-34.74,263.87c-0.51,0-0.93,0.42-0.93,0.93v5.46c0,0.51,0.42,0.93,0.93,0.93c0.51,0,0.93-0.42,0.93-0.93
				v-5.46C-33.81,264.29-34.22,263.87-34.74,263.87z"/>
		</g>
		<g>
			<path class="st2" d="M27.28,288.12c0.51,0,0.93-0.42,0.93-0.93v-19.27c0-2.85,2.32-5.17,5.17-5.17h8.9
				c-0.21,0.67-0.33,1.38-0.33,2.12c0,0.74,0.12,1.45,0.33,2.12h-6.46c-1.86,0-3.37,1.51-3.37,3.37v3.69c0,0.51,0.42,0.93,0.93,0.93
				c0.51,0,0.93-0.42,0.93-0.93v-3.69c0-0.83,0.68-1.51,1.51-1.51h7.37c1.1,1.6,2.85,2.72,4.85,2.98v5.96
				c0,0.51,0.42,0.93,0.93,0.93h4.57v5.24c0,0.52,0.42,0.93,0.93,0.93h7.32c0.51,0,0.93-0.42,0.93-0.93v-5.24h4.57
				c0.51,0,0.93-0.42,0.93-0.93v-15.29c0-0.51-0.42-0.93-0.93-0.93c-0.51,0-0.93,0.42-0.93,0.93v8.76h-4.76v-12.79h5.69
				c0.51,0,0.93-0.42,0.93-0.93v-3.01c0-2.53-2.06-4.59-4.59-4.59h-1.47v-4.02c0-0.51-0.42-0.93-0.93-0.93h-6.21
				c-0.51,0-0.93,0.42-0.93,0.93v4.02h-1.47c-2.53,0-4.59,2.06-4.59,4.59v3.37c-2.01,0.27-3.75,1.39-4.85,2.98h-9.81
				c-3.88,0-7.03,3.15-7.03,7.03v19.27C26.35,287.71,26.76,288.12,27.28,288.12z M60.86,283.04h-5.45v-4.31h5.45V283.04z
				 M55.96,246.87h4.34v3.09h-4.34V246.87z M48.97,259.71c2.85,0,5.17,2.32,5.17,5.16c0,0.51,0.42,0.93,0.93,0.93
				c0.51,0,0.93-0.42,0.93-0.93c0-3.56-2.66-6.5-6.1-6.96v-3.38c0-1.5,1.22-2.73,2.73-2.73h2.4h6.21h2.4c1.5,0,2.73,1.22,2.73,2.73
				v2.08h-5.69c-0.51,0-0.93,0.42-0.93,0.93v14.65c0,0.51,0.42,0.93,0.93,0.93h5.69v3.74h-4.57h-7.32H49.9v-5.05
				c1.25-0.17,2.45-0.66,3.44-1.45c0.4-0.32,0.47-0.91,0.15-1.31c-0.32-0.4-0.9-0.47-1.31-0.15c-0.92,0.73-2.03,1.12-3.21,1.12
				c-2.85,0-5.17-2.32-5.17-5.17C43.81,262.03,46.13,259.71,48.97,259.71z"/>
			<path class="st2" d="M33.38,278.09c-0.51,0-0.93,0.42-0.93,0.93v17.97c0,1.86,1.51,3.37,3.37,3.37h12.47
				c0.51,0,0.93-0.42,0.93-0.93c0-0.51-0.42-0.93-0.93-0.93H35.81c-0.83,0-1.51-0.68-1.51-1.51v-17.97
				C34.31,278.51,33.89,278.09,33.38,278.09z"/>
			<path class="st2" d="M66.58,298.49H54.19l0-6.77h7.89v2.74c0,0.51,0.42,0.93,0.93,0.93c0.51,0,0.93-0.42,0.93-0.93v-2.74h6.38
				c0.51,0,0.93-0.42,0.93-0.93c0-0.51-0.42-0.93-0.93-0.93h-7.31h-9.75h-7.32c-0.51,0-0.93,0.42-0.93,0.93
				c0,0.52,0.42,0.93,0.93,0.93h6.38l0,7.7c0,0.25,0.1,0.48,0.27,0.66c0.17,0.17,0.41,0.27,0.66,0.27h13.32
				c2.53,0,4.64,1.83,5.08,4.23H33.38c-2.85,0-5.17-2.32-5.17-5.17v-7.26c0-0.51-0.42-0.93-0.93-0.93c-0.51,0-0.93,0.42-0.93,0.93
				v7.26c0,3.88,3.15,7.03,7.03,7.03h39.3c0.51,0,0.93-0.42,0.93-0.93C73.61,301.64,70.45,298.49,66.58,298.49z"/>
		</g>
		<g>
			<path class="st2" d="M162.11,294.47c-0.43-0.27-1.01-0.14-1.28,0.29l-6.22,9.88c-0.27,0.43-0.14,1.01,0.29,1.28
				c0.15,0.1,0.33,0.14,0.5,0.14c0.31,0,0.61-0.15,0.79-0.43l6.21-9.88C162.68,295.32,162.55,294.75,162.11,294.47z"/>
			<path class="st2" d="M196.66,266.13l-4.25-11.69c-0.17-0.48-0.71-0.73-1.19-0.56c-0.48,0.18-0.73,0.71-0.56,1.19l3.93,10.81
				l-3.46,1.26l-0.7-1.92v0l-2.65-7.27l-3.35-9.19l3.47-1.26l1.15,3.14c0.18,0.49,0.71,0.73,1.19,0.56
				c0.48-0.18,0.73-0.71,0.56-1.19l-1.46-4.02c-0.18-0.48-0.71-0.73-1.19-0.56l-5.22,1.9c-0.48,0.18-0.73,0.71-0.56,1.19l0.7,1.92
				l-28.77,10.47c-0.48,0.18-0.73,0.71-0.56,1.19l0.7,1.92l-17.08,6.22l-0.29-0.8c-0.18-0.48-0.71-0.73-1.19-0.56
				c-0.48,0.18-0.73,0.71-0.56,1.19l2.24,6.15l2.24,6.15c0.14,0.38,0.5,0.61,0.88,0.61c0.11,0,0.21-0.02,0.32-0.06
				c0.48-0.18,0.73-0.71,0.56-1.19l-0.29-0.8l5.56-2.03c0.48-0.18,0.73-0.71,0.56-1.19c-0.18-0.48-0.71-0.73-1.19-0.56l-5.57,2.03
				l-2.62-7.2l17.08-6.21l2.62,7.2l-6.97,2.54c-0.48,0.18-0.73,0.71-0.56,1.19c0.14,0.38,0.49,0.61,0.87,0.61
				c0.11,0,0.21-0.02,0.32-0.06l6.97-2.54l0.7,1.92c0.08,0.23,0.26,0.42,0.48,0.53c0.12,0.06,0.26,0.09,0.39,0.09
				c0.11,0,0.22-0.02,0.32-0.06l2.44-0.89c0.25,1.2,0.88,2.25,1.73,3.06v11.02h-0.31c-0.51,0-0.93,0.42-0.93,0.93
				c0,0.51,0.42,0.93,0.93,0.93h1.24h2.17v8.07c0,0.51,0.42,0.93,0.93,0.93c0.51,0,0.93-0.42,0.93-0.93v-8.07h2.17h0.73l8.42,13.37
				c0.18,0.28,0.48,0.43,0.79,0.43c0.17,0,0.34-0.05,0.5-0.14c0.43-0.27,0.57-0.85,0.29-1.28l-8.69-13.81
				c-0.17-0.27-0.47-0.43-0.79-0.43h-0.31v-6.44c0-0.51-0.42-0.93-0.93-0.93c-0.51,0-0.93,0.42-0.93,0.93v6.44h-4.34v-9.82
				c0.67,0.27,1.4,0.43,2.17,0.43c3.25,0,5.9-2.65,5.9-5.9c0-0.98-0.26-1.93-0.72-2.78l7.26-2.64c0.48-0.18,0.73-0.71,0.56-1.19
				c-0.18-0.48-0.71-0.73-1.19-0.56l-19.78,7.2l-4.65-12.79l27.89-10.15l1.43,3.93l-23.39,8.51c-0.48,0.18-0.73,0.71-0.56,1.19
				c0.14,0.38,0.5,0.61,0.88,0.61c0.11,0,0.21-0.02,0.32-0.06l23.39-8.51l0.26,0.71l2.33,6.4l-3.6,1.31
				c-0.48,0.18-0.73,0.71-0.56,1.19c0.17,0.48,0.71,0.73,1.19,0.56l3.6-1.31l0.7,1.92c0.08,0.23,0.26,0.42,0.48,0.52
				c0.12,0.06,0.26,0.09,0.39,0.09c0.11,0,0.22-0.02,0.32-0.06l5.22-1.9C196.59,267.14,196.84,266.61,196.66,266.13z M171.85,272.98
				c0.4,0.64,0.62,1.37,0.62,2.13c0,2.23-1.81,4.04-4.04,4.04c-2.02,0-3.68-1.5-3.97-3.48L171.85,272.98z"/>
		</g>
		<g>
			<path class="st2" d="M258.53,267.06l4.28-4.28c0.36-0.36,0.36-0.95,0-1.32c-0.36-0.36-0.95-0.36-1.32,0l-4.28,4.28
				c-7.9,7.9-9.23,20.45-3.16,29.84c0.18,0.28,0.48,0.43,0.78,0.43c0.17,0,0.35-0.05,0.5-0.15c0.43-0.28,0.56-0.85,0.28-1.29
				C250.03,285.91,251.25,274.34,258.53,267.06z"/>
			<path class="st2" d="M263.49,285.75c0.11,0.43,0.49,0.71,0.9,0.71c0.07,0,0.15-0.01,0.22-0.03c0.5-0.12,0.81-0.63,0.68-1.13
				c-0.7-2.84,0.15-5.88,2.2-7.93l14.62-14.62c0.17-0.17,0.27-0.41,0.27-0.66c0-0.25-0.1-0.48-0.27-0.66l-9.64-9.64
				c-0.36-0.36-0.95-0.36-1.32,0l-6.14,6.14c-0.36,0.36-0.36,0.95,0,1.32l8.98,8.98l-7.81,7.81
				C263.67,278.56,262.64,282.28,263.49,285.75z M266.99,258.6l4.83-4.83l8.32,8.32l-4.83,4.83L266.99,258.6z"/>
			<path class="st2" d="M284.15,259.32c4.5,0,8.65,2.25,11.11,6.03c0.18,0.27,0.48,0.42,0.78,0.42c0.17,0,0.35-0.05,0.51-0.15
				c0.43-0.28,0.55-0.86,0.27-1.29c-2.8-4.3-7.53-6.87-12.67-6.87c-0.51,0-0.93,0.42-0.93,0.93
				C283.22,258.9,283.64,259.32,284.15,259.32z"/>
			<path class="st2" d="M296.8,268.64c0.39,1.26,0.59,2.58,0.59,3.92c0,0.52,0.42,0.93,0.93,0.93c0.51,0,0.93-0.42,0.93-0.93
				c0-1.52-0.23-3.03-0.67-4.47c-0.15-0.49-0.67-0.76-1.17-0.61C296.92,267.62,296.65,268.14,296.8,268.64z"/>
			<path class="st2" d="M286.48,245.01c-0.52,0-0.93,0.42-0.93,0.93c0,0.51,0.42,0.93,0.93,0.93c7.24,0,13.94,3.27,18.4,8.97
				c0.18,0.23,0.46,0.36,0.74,0.36c0.2,0,0.4-0.06,0.57-0.2c0.41-0.32,0.48-0.9,0.16-1.31C301.54,248.53,294.3,245.01,286.48,245.01
				z"/>
			<path class="st2" d="M309.35,259.56c-0.22-0.47-0.77-0.67-1.24-0.45c-0.47,0.22-0.67,0.77-0.45,1.24
				c1.45,3.1,2.18,6.42,2.18,9.87c0,0.51,0.42,0.93,0.93,0.93c0.51,0,0.93-0.42,0.93-0.93C311.7,266.49,310.91,262.91,309.35,259.56
				z"/>
			<path class="st2" d="M285.49,252.92c1.72,0,3.43,0.24,5.07,0.71c0.08,0.03,0.17,0.04,0.26,0.04c0.41,0,0.78-0.27,0.9-0.67
				c0.14-0.5-0.14-1.01-0.64-1.15c-1.81-0.52-3.69-0.78-5.58-0.78c-0.51,0-0.93,0.42-0.93,0.93S284.98,252.92,285.49,252.92z"/>
			<path class="st2" d="M295.58,253.76c-0.44-0.26-1.01-0.1-1.27,0.34c-0.26,0.45-0.11,1.02,0.34,1.27
				c5.63,3.26,9.13,9.33,9.13,15.84c0,0.52,0.42,0.93,0.93,0.93c0.51,0,0.93-0.42,0.93-0.93
				C305.65,264.04,301.79,257.35,295.58,253.76z"/>
			<path class="st2" d="M295.27,274.59c-0.36-0.36-0.95-0.36-1.32,0l-14.62,14.62c-1.57,1.57-3.68,2.44-5.92,2.44
				c-2.24,0-4.35-0.87-5.92-2.44c-0.17-0.17-0.41-0.27-0.66-0.27c-0.25,0-0.48,0.1-0.66,0.27l-8.96,8.96
				c-0.36,0.36-0.36,0.95,0,1.32c4.5,4.51,10.58,6.96,16.86,6.96c1.52,0,3.05-0.14,4.58-0.44c0.51-0.1,0.84-0.59,0.74-1.09
				c-0.1-0.5-0.58-0.84-1.09-0.74c-6.92,1.33-13.98-0.67-19.09-5.37l7.66-7.66c1.83,1.53,4.12,2.36,6.55,2.36
				c2.74,0,5.31-1.06,7.23-2.99l7.81-7.81l5.47,5.47c0.18,0.18,0.42,0.27,0.66,0.27c0.24,0,0.48-0.09,0.66-0.27
				c0.36-0.36,0.36-0.95,0-1.32l-5.47-5.47l4.83-4.83l8.32,8.32l-13.28,13.28c-1.91,1.91-4.12,3.43-6.58,4.52
				c-0.47,0.21-0.68,0.76-0.47,1.23c0.21,0.47,0.76,0.68,1.23,0.47c2.67-1.18,5.07-2.84,7.14-4.91l13.94-13.94
				c0.17-0.17,0.27-0.41,0.27-0.66c0-0.25-0.1-0.48-0.27-0.66L295.27,274.59z"/>
		</g>
	</g>
	<polygon class="st6" points="-270.09,-115.45 -270.09,-152.57 -232.97,-152.57 	"/>
</g>
</svg>
