<?xml version="1.0" encoding="utf-8"?>
<!-- Generator: Adobe Illustrator 25.0.0, SVG Export Plug-In . SVG Version: 6.00 Build 0)  -->
<svg version="1.1" xmlns="http://www.w3.org/2000/svg" xmlns:xlink="http://www.w3.org/1999/xlink" x="0px" y="0px"
	 viewBox="0 0 153 228.8" style="enable-background:new 0 0 153 228.8;" xml:space="preserve">
<style type="text/css">
	.st0{display:none;}
	.st1{fill:#383838;}
	.st2{fill:url(#SVGID_1_);}
	.st3{fill:url(#SVGID_2_);}
</style>
<g id="background" class="st0">
</g>
<g id="image">
	<g>
		<g>
			<g>
				<path class="st1" d="M112.5,85H43.7c-0.6,0-1-0.4-1-1c0-0.6,0.4-1,1-1h68.9c0.6,0,1,0.4,1,1C113.5,84.5,113.1,85,112.5,85z"/>
			</g>
			<g>
				<path class="st1" d="M127.9,101.4H28.6c-0.6,0-1-0.4-1-1c0-0.6,0.4-1,1-1h99.3c0.6,0,1,0.4,1,1
					C128.9,101,128.4,101.4,127.9,101.4z"/>
			</g>
			<g>
				<path class="st1" d="M132.5,117.8H24.1c-0.6,0-1-0.4-1-1c0-0.6,0.4-1,1-1h108.4c0.6,0,1,0.4,1,1
					C133.5,117.4,133.1,117.8,132.5,117.8z"/>
			</g>
			<g>
				<path class="st1" d="M127.9,134.3H28.6c-0.6,0-1-0.4-1-1s0.4-1,1-1h99.3c0.6,0,1,0.4,1,1S128.4,134.3,127.9,134.3z"/>
			</g>
			<g>
				<path class="st1" d="M109.9,150.7H44.6c-0.6,0-1-0.4-1-1c0-0.6,0.4-1,1-1h65.3c0.6,0,1,0.4,1,1
					C110.9,150.2,110.5,150.7,109.9,150.7z"/>
			</g>
		</g>
		<g>
			<g>
				<path class="st1" d="M116.7,27.6H36.4c-0.6,0-1-0.4-1-1s0.4-1,1-1h80.3c0.6,0,1,0.4,1,1S117.3,27.6,116.7,27.6z"/>
			</g>
			<g>
				<path class="st1" d="M106.9,44H47.2c-0.6,0-1-0.4-1-1c0-0.6,0.4-1,1-1h59.7c0.6,0,1,0.4,1,1C107.9,43.5,107.4,44,106.9,44z"/>
			</g>
		</g>
		<g>
			<g>
				<path class="st1" d="M116.7,207.7H36.4c-0.6,0-1-0.4-1-1c0-0.6,0.4-1,1-1h80.3c0.6,0,1,0.4,1,1
					C117.7,207.2,117.3,207.7,116.7,207.7z"/>
			</g>
			<g>
				<path class="st1" d="M107.9,191.2H48.3c-0.6,0-1-0.4-1-1c0-0.6,0.4-1,1-1h59.7c0.6,0,1,0.4,1,1
					C108.9,190.8,108.5,191.2,107.9,191.2z"/>
			</g>
		</g>
		<linearGradient id="SVGID_1_" gradientUnits="userSpaceOnUse" x1="66.1352" y1="216.9247" x2="66.1352" y2="15.7795">
			<stop  offset="0" style="stop-color:#FF2AD0"/>
			<stop  offset="1" style="stop-color:#A855FF"/>
		</linearGradient>
		<path class="st2" d="M119.2,15.8c0.4,3.1,0.4,6.3-0.1,9.5c-0.5,3.2-1.5,6.3-2.9,9.3c-2.8,6-7.2,11.1-12,15.5
			c-4.8,4.4-10.1,8.2-15.4,11.6c-2.7,1.7-5.4,3.4-8.1,5c-2.7,1.6-5.4,3.2-8.1,4.7c-5.4,3.1-10.7,6.1-15.9,9.2
			c-5.1,3.2-10,6.4-14.4,10c-4.3,3.6-8,7.5-10.5,11.8c-2.5,4.3-3.7,8.9-3.7,13.9c0,5,1.2,9.6,3.7,13.9c2.4,4.3,6.1,8.2,10.5,11.8
			c4.3,3.6,9.2,6.8,14.4,10c2.6,1.6,5.2,3.1,7.8,4.6l8,4.6c2.7,1.5,5.4,3.1,8.1,4.7c2.7,1.6,5.4,3.2,8.1,5
			c5.3,3.4,10.6,7.2,15.4,11.6c4.8,4.4,9.1,9.6,12,15.6c1.4,3,2.4,6.1,2.9,9.3c0.5,3.2,0.5,6.4,0.1,9.5c-0.8-6.2-3.2-11.9-6.7-16.6
			c-3.5-4.7-8-8.5-13-11.8c-4.9-3.3-10.2-6.1-15.7-8.7c-2.7-1.3-5.5-2.6-8.3-3.9l-8.4-3.8l-8.5-3.9c-2.8-1.4-5.7-2.8-8.5-4.2
			c-5.7-2.9-11.3-6.3-16.8-10.4c-5.4-4.1-10.6-9.1-14.5-15.5c-1.9-3.2-3.5-6.7-4.5-10.4c-1-3.7-1.5-7.5-1.5-11.2
			c0-3.7,0.5-7.5,1.5-11.2c1-3.7,2.6-7.2,4.5-10.4c3.9-6.4,9.1-11.4,14.5-15.5c5.4-4.1,11.1-7.4,16.8-10.4c5.7-3,11.4-5.6,17-8.2
			l8.4-3.8c2.8-1.3,5.5-2.6,8.3-3.9c5.4-2.7,10.8-5.4,15.7-8.7c4.9-3.3,9.5-7.1,13-11.8C116,27.7,118.4,22,119.2,15.8z"/>
		<linearGradient id="SVGID_2_" gradientUnits="userSpaceOnUse" x1="33.5436" y1="116.3521" x2="140.2125" y2="116.3521">
			<stop  offset="5.860568e-08" style="stop-color:#2E2AFF"/>
			<stop  offset="1" style="stop-color:#37F1FF"/>
		</linearGradient>
		<path class="st3" d="M33.9,15.8c0.8,6.2,3.2,11.9,6.7,16.6c3.5,4.7,8,8.5,13,11.8c4.9,3.3,10.2,6.1,15.7,8.7
			c2.7,1.3,5.5,2.6,8.3,3.9l8.4,3.8c5.7,2.6,11.4,5.2,17,8.2c5.7,2.9,11.3,6.3,16.8,10.4c5.4,4.1,10.6,9.1,14.5,15.5
			c1.9,3.2,3.5,6.7,4.5,10.4c1,3.7,1.5,7.5,1.5,11.2c0,3.7-0.5,7.5-1.5,11.2c-1,3.7-2.6,7.2-4.5,10.4c-3.9,6.4-9.1,11.4-14.5,15.5
			c-5.4,4.1-11.1,7.4-16.8,10.4c-2.8,1.5-5.7,2.9-8.5,4.2l-8.5,3.9l-8.4,3.8c-2.8,1.3-5.5,2.6-8.3,3.9c-5.4,2.7-10.8,5.4-15.7,8.7
			c-4.9,3.3-9.5,7.1-13,11.8c-3.5,4.7-5.9,10.4-6.7,16.6c-0.5-3.1-0.4-6.3,0.1-9.5c0.5-3.2,1.5-6.3,2.9-9.3c2.8-6,7.2-11.1,12-15.6
			c4.8-4.4,10.1-8.2,15.4-11.6c2.7-1.7,5.4-3.4,8.1-5c2.7-1.6,5.4-3.2,8.1-4.7l8-4.6c2.7-1.5,5.3-3,7.8-4.6c5.1-3.2,10-6.4,14.4-10
			c4.3-3.6,8-7.5,10.5-11.8c2.5-4.3,3.7-8.9,3.7-13.9c0-5-1.2-9.6-3.7-13.9c-2.4-4.3-6.2-8.2-10.5-11.8c-4.3-3.6-9.2-6.8-14.4-10
			c-5.1-3.1-10.5-6.1-15.9-9.2c-2.7-1.5-5.4-3.1-8.1-4.7c-2.7-1.6-5.4-3.2-8.1-5c-5.3-3.4-10.6-7.2-15.4-11.6
			c-4.8-4.4-9.1-9.6-12-15.5c-1.4-3-2.4-6.1-2.9-9.3C33.5,22.1,33.4,18.9,33.9,15.8z"/>
	</g>
</g>
</svg>
